<svg xmlns="http://www.w3.org/2000/svg" width="13" height="13" viewBox="0 0 13 13">
    <path fill="#CBC9CA" d="M12.387 2.996L8.673 6.71l3.714 3.715c.265.262.414.62.414.993s-.149.731-.414.994c-.26.266-.618.416-.99.415-.37-.013-.719-.17-.972-.44L6.71 8.673l-3.714 3.714c-.263.266-.622.416-.996.415-.373.001-.73-.149-.991-.415-.265-.263-.414-.62-.414-.993 0-.374.149-.731.414-.994l3.714-3.714L1.01 2.97C.564 2.64.355 2.077.477 1.535.6.993 1.03.575 1.574.466c.545-.108 1.102.114 1.422.568L6.71 4.748l3.715-3.714c.326-.45.886-.666 1.43-.55.543.115.967.54 1.083 1.083.115.543-.101 1.103-.55 1.43z"/>
</svg>
