<svg xmlns="http://www.w3.org/2000/svg" width="148" height="148" viewBox="0 0 148 148">
    <defs>
        <filter id="prefix__a" width="117.1%" height="117.1%" x="-8.6%" y="-8.6%" filterUnits="objectBoundingBox">
            <feOffset dy="2" in="SourceAlpha" result="shadowOffsetOuter1"/>
            <feGaussianBlur in="shadowOffsetOuter1" result="shadowBlurOuter1" stdDeviation="2"/>
            <feColorMatrix in="shadowBlurOuter1" result="shadowMatrixOuter1" values="0 0 0 0 0 0 0 0 0 0 0 0 0 0 0 0 0 0 0.5 0"/>
            <feMerge>
                <feMergeNode in="shadowMatrixOuter1"/>
                <feMergeNode in="SourceGraphic"/>
            </feMerge>
        </filter>
    </defs>
    <g fill="none" fill-rule="evenodd" filter="url(#prefix__a)" transform="translate(4 2)">
        <rect width="140" height="140" fill="#D8D8D8" rx="21"/>
        <g fill="#FFF" fill-rule="nonzero">
            <path d="M39.318 46.1c6.333 0 11.817-2.272 16.298-6.753 4.481-4.481 6.753-9.964 6.753-16.298 0-6.332-2.272-11.815-6.753-16.297C51.134 2.272 45.65 0 39.318 0c-6.334 0-11.817 2.271-16.297 6.752-4.481 4.481-6.753 9.965-6.753 16.297 0 6.334 2.272 11.817 6.753 16.298 4.482 4.48 9.965 6.753 16.297 6.753zM79.65 73.59c-.129-1.865-.39-3.9-.775-6.048-.389-2.164-.889-4.21-1.487-6.08-.619-1.932-1.46-3.84-2.5-5.67-1.079-1.898-2.346-3.551-3.769-4.911-1.487-1.423-3.308-2.568-5.414-3.402-2.098-.83-4.424-1.25-6.911-1.25-.977 0-1.922.4-3.747 1.588-1.122.732-2.436 1.58-3.902 2.516-1.254.799-2.952 1.547-5.05 2.225-2.046.662-4.124.998-6.175.998s-4.129-.336-6.177-.998c-2.096-.677-3.794-1.426-5.046-2.224-1.453-.928-2.767-1.775-3.907-2.518-1.822-1.188-2.768-1.589-3.744-1.589-2.489 0-4.814.422-6.911 1.253-2.104.833-3.926 1.977-5.415 3.401-1.422 1.361-2.69 3.014-3.767 4.911-1.04 1.83-1.88 3.737-2.5 5.671-.598 1.87-1.098 3.915-1.486 6.08-.385 2.144-.646 4.18-.776 6.049C.064 75.422 0 77.323 0 79.242c0 4.996 1.588 9.04 4.72 12.023 3.093 2.944 7.185 4.437 12.162 4.437h46.08c4.977 0 9.068-1.493 12.161-4.437 3.133-2.98 4.72-7.025 4.72-12.023 0-1.928-.065-3.83-.193-5.653z" transform="translate(31 22)"/>
        </g>
    </g>
</svg>
