<svg xmlns="http://www.w3.org/2000/svg" width="300" height="220" viewBox="0 0 300 220">
    <g fill="none" opacity=".739">
        <path fill="#345FD0" d="M298.833 155.413l-100.038-57.76c-.322-.185-.723-.185-1.046 0l-18.88 10.97c-.322.186-.723.186-1.046 0l-15.272-8.814c-.322-.186-.723-.186-1.045 0l-71.033 41.277c-.323.186-.724.186-1.046 0l-16.224-9.372c-.322-.187-.723-.187-1.045 0L.523 173.363c-.695.4-.695 1.403 0 1.804l56.642 32.707c.322.186.723.186 1.045 0l67.01-38.943h.007l3.752-2.184c.322-.186.723-.186 1.045 0l15.63 9.029c.694.4.694 1.403 0 1.804l-9.637 5.599c-.695.401-.695 1.403 0 1.804l58.267 34.053c.158.093.344.143.53.143h3.322c.186 0 .365-.05.523-.143l43.976-25.554c.694-.4.694-1.403 0-1.804-.688-.401-.688-1.404 0-1.804l56.19-32.657c.702-.4.702-1.403.008-1.804z" opacity=".1"/>
        <g>
            <g fill="#081E59">
                <path d="M79.289 18.415c-.165.501-.48 1.003-.78 1.418l-.065.086c-.15.207-.315.415-.501.63-.065.079-.13.157-.2.236-.838.924-1.82 1.711-2.85 2.413-.043.029-.08.057-.122.086-.408.272-.845.544-1.303.816L42.043 42.365c-2.65 1.532-5.578 2.664-8.592 3.18-1.94.336-4.246.6-6.036-.43L1.768 30.308C.952 29.835.566 29.169.566 28.375c0 .988-.008 1.983-.008 2.971 0 .788.387 1.46 1.203 1.933l25.647 14.807c3.938 2.384 14.377-2.606 14.628-2.75L73.46 27.073c.121-.072 3.229-2.277 3.508-2.542l.029-.029c.98-.91 2.627-2.448 2.627-3.923v-.065l-.365-3.673c0 .208.143 1.131.086 1.353-.014.08-.036.15-.057.222z" transform="translate(159.666) translate(22.196 113.126)"/>
                <path d="M78.172 15.609c2.742 1.582.637 5.384-4.704 8.484L42.043 42.358c-5.341 3.1-11.885 4.332-14.628 2.75L1.768 30.3c-2.742-1.583-.637-5.377 4.705-8.478L37.905 3.558C43.245.451 49.79-.78 52.532.802l25.64 14.807z" transform="translate(159.666) translate(22.196 113.126)"/>
            </g>
            <path fill="#FFF" d="M124.926 75.737c1.41.817 2.549 2.786 2.542 4.411l-.258 90.079c-.007 1.618-1.153 2.277-2.563 1.46-40.124-23.17-80.248-46.331-120.38-69.5-1.41-.817-2.549-2.786-2.541-4.411l.257-90.08C1.99 6.08 3.136 5.42 4.547 6.237c40.13 23.17 80.255 46.34 120.379 69.501z" transform="translate(159.666)"/>
            <path fill="#7A7A87" d="M7.747.938c-.029-.007-.064-.022-.1-.029.071.022.15.043.207.072L7.747.938zM133.726 168.952c0 .072-.008.15-.015.222.007-.064.015-.143.015-.222zM133.733 168.838v-.029c0 .057-.007.093-.007.143 0-.043.007-.071.007-.114zM133.418 170.234c-.022.071-.05.15-.072.229.007-.014.014-.021.014-.036.136-.343.294-.766.344-1.26-.036.25-.115.365-.157.659l-.13.408z" transform="translate(159.666)"/>
            <path fill="#0B2B7D" d="M133.446 75.709c-.852-2.986-4.195-4.776-4.253-4.797C113.45 61.826 8.936 1.482 8.9 1.46 5.9-.172 2.456.93 1.253 4.196c-.58 1.575-.415 3.2-.437 4.84-.007.53-.258 87.172-.258 87.172 0 5.957 4.125 7.553 4.475 7.754 0 0 120.76 69.701 120.931 69.787 3.423 1.719 7.769-1.174 7.769-4.94 0 0 .007-85.067.014-86.72 0-.953.05-5.163-.3-6.38zM4.282 102.186c-1.41-.816-2.55-2.785-2.542-4.41l.258-90.08C2.005 6.08 3.15 5.42 4.56 6.237l120.372 69.501c1.41.817 2.55 2.786 2.542 4.411l-.258 90.079c-.007 1.618-1.153 2.277-2.563 1.46l-120.372-69.5z" transform="translate(159.666)"/>
            <g fill="#081E59">
                <path d="M7.532.874c-.007 0-.014 0-.021-.008.007 0 .014.008.021.008zM1.847 8.943c-.365-.215-.709-.322-1.024-.344v.437c-.007.53-.257 87.172-.257 87.172 0 5.957 4.124 7.553 4.475 7.754 0 0 105.794 61.06 119.47 68.95l.007-1.303L4.282 102.186c-1.41-.816-2.55-2.785-2.542-4.41L1.99 9.02l-.143-.078z" transform="translate(159.666)"/>
                <path d="M133.446 75.709c-.852-2.986-4.195-4.776-4.253-4.797C113.45 61.826 8.936 1.482 8.9 1.46 6.02-.1 2.742.852 1.418 3.809c1.446-.601 3.179-.523 4.782.35.036.022 104.55 60.359 120.294 69.452.05.021 3.401 1.811 4.253 4.797.35 1.217.3 5.427.3 6.38l-.014 86.72c0 .774-.193 1.504-.508 2.17 1.826-.895 3.215-2.742 3.215-4.869 0 0 .007-85.067.014-86.72-.007-.953.043-5.163-.308-6.38z" transform="translate(159.666)"/>
            </g>
            <g>
                <path fill="#FF5B83" d="M34.346 17.506c3.702 6.308 6.007 13.453 6.022 19.912v.129L20.32 26.334l-.065-.036-.25-.143.25-.15 14.091-8.499z" transform="translate(159.666) translate(10.74 26.492)"/>
                <path fill="#2E5DEB" d="M20.327 2.828c5.463 3.15 10.41 8.513 14.026 14.678l-14.09 8.506-.251.15.315-23.334z" transform="translate(159.666) translate(10.74 26.492)"/>
                <path fill="#D1DDFF" d="M20.327 2.828l-.315 23.334.25-.15-.25.15.25.143-.057 20.7-.014 1.911.007.13C9.086 42.63.115 27.092.15 14.326.18 1.568 9.208-3.587 20.327 2.828z" transform="translate(159.666) translate(10.74 26.492)"/>
                <path fill="#F7D355" d="M40.368 37.418v0z" transform="translate(159.666) translate(10.74 26.492)"/>
                <path fill="#081E59" d="M20.198 47.005l.122-20.664 20.048 11.213c-.1 12.938-9.108 17.756-20.17 11.37v-1.92z" transform="translate(159.666) translate(10.74 26.492)"/>
            </g>
            <g>
                <path fill="#081E59" d="M7.575 23.613L7.561 28.067 0.451 23.957 0.465 19.504z" transform="translate(159.666) translate(12.888 73.747)"/>
                <path fill="#FF5B83" d="M7.597 16.919L7.582 21.379 0.473 17.27 0.48 12.816z" transform="translate(159.666) translate(12.888 73.747)"/>
                <path fill="#2E5DEB" d="M7.611 10.976L7.604 14.685 0.487 10.582 0.501 6.866z" transform="translate(159.666) translate(12.888 73.747)"/>
                <path fill="#FFF" d="M6.988 3.909L6.974 7.625 0.508 3.895 0.516 0.179z" transform="translate(159.666) translate(12.888 73.747)"/>
                <path fill="#D1DDFF" d="M36.072 28.153L36.064 29.635 12.136 15.816 12.143 14.334zM36.05 34.84L36.05 36.322 12.115 22.511 12.122 21.021zM36.086 22.203L36.086 23.685 12.15 9.874 12.158 8.384zM36.036 41.527L36.029 43.017 12.1 29.198 12.1 27.709z" transform="translate(159.666) translate(12.888 73.747)"/>
            </g>
            <g>
                <g>
                    <path fill="#D1DDFF" d="M.315.043l20.7 11.95-.065 23.785-.308-.179c-1.661-8.943-9.916-13.811-10.332-14.055C2.9 17.592.387 23.514.25 23.821L.316.043zm10.031 19.51c2.306 1.332 4.181.266 4.189-2.384.007-2.649-1.855-5.87-4.16-7.202-2.306-1.332-4.182-.265-4.189 2.384-.007 2.649 1.855 5.871 4.16 7.203" transform="translate(159.666) translate(63.007 59.427) translate(33.652 11.456)"/>
                    <path fill="#FFF" d="M10.289 21.537c.437.25 8.692 5.12 10.353 14.062L.251 23.829c.128-.309 2.642-6.23 10.038-2.292zM10.375 9.967c2.305 1.331 4.167 4.553 4.16 7.202-.008 2.65-1.883 3.716-4.189 2.385C8.041 18.222 6.18 15 6.186 12.35c.007-2.65 1.883-3.716 4.189-2.384z" transform="translate(159.666) translate(63.007 59.427) translate(33.652 11.456)"/>
                </g>
                <g fill="#D1DDFF">
                    <path d="M30.766 17.241c-.007 1.733-1.883 2.814-3.387 1.948L1.49 4.239C.788 3.838.358 3.086.358 2.277.365.544 2.241-.537 3.745.329l25.89 14.95c.702.408 1.131 1.153 1.131 1.962zM30.215 24.537c0 .866-.945 1.41-1.69.974L6.58 12.838c-.35-.2-.566-.58-.566-.981 0-.867.945-1.41 1.69-.974L29.65 23.556c.351.2.566.573.566.981z" transform="translate(159.666) translate(63.007 59.427)"/>
                </g>
                <g>
                    <path fill="#D1DDFF" d="M52.611 29.499c0 .866-.945 1.41-1.69.974L1.897 2.169c-.35-.2-.565-.572-.565-.98 0-.867.945-1.411 1.69-.974l49.023 28.303c.351.208.566.58.566.98zM52.611 46.826c0 .866-.945 1.41-1.69.974L1.897 19.496c-.35-.2-.565-.572-.565-.98 0-.867.945-1.411 1.69-.974l49.023 28.303c.351.2.566.573.566.98zM52.862 34.396c0 .867-.946 1.41-1.69.974L16.776 15.508c-.351-.2-.566-.572-.566-.98 0-.867.945-1.411 1.69-.974l34.396 19.861c.358.2.573.58.566.981zM51.952 66.308c0 .866-.945 1.41-1.69.974L15.867 47.42c-.35-.2-.565-.573-.565-.98 0-.867.945-1.411 1.69-.975l34.396 19.862c.35.208.565.58.565.98zM52.79 38.864c0 .866-.945 1.41-1.69.974l-21.437-12.38c-.35-.2-.565-.573-.565-.98 0-.867.938-1.411 1.69-.974l21.436 12.38c.351.2.566.572.566.98z" transform="translate(159.666) translate(63.007 59.427) translate(2.148 22.912)"/>
                    <path fill="#CECEE6" d="M51.881 71.033L51.874 73.632 28.174 59.957 28.181 57.351z" transform="translate(159.666) translate(63.007 59.427) translate(2.148 22.912)"/>
                    <path fill="#D1DDFF" d="M52.282 52.017c0 .866-.945 1.41-1.69.973L8.857 28.897c-.351-.2-.566-.572-.566-.98 0-.867.945-1.411 1.69-.974l41.735 24.093c.35.2.566.573.566.98zM52.496 57.924c0 .866-.938 1.41-1.69.973L1.225 30.272c-.35-.2-.565-.573-.565-.98 0-.867.945-1.411 1.69-.975L51.93 56.943c.35.2.565.58.565.98z" transform="translate(159.666) translate(63.007 59.427) translate(2.148 22.912)"/>
                </g>
            </g>
        </g>
        <g>
            <g fill="#F5BBB8">
                <path d="M2.499.408s6.107 4.153 2.133 4.11c0 0-2.434-.272-4.324-3.773l2.19-.337z" transform="translate(206.205 115.274) translate(19.332 30.072)"/>
                <path d="M2.499.408s2.448.344 3.122.895c0 0-.008.952-3.38-.3L2.5.407z" transform="translate(206.205 115.274) translate(19.332 30.072)"/>
            </g>
            <path fill="#486DE7" d="M3.408 12.88s1.475-2.763 4.06-.744c0 0 1.289 1.654-.902 4.733l-2.57 6.236 2.269 6.816s-.88 1.633-2.341.215c0 0-2.778-4.826-3.645-7.368-.007 0-.737-.715 3.13-9.887z" transform="translate(206.205 115.274)"/>
            <path fill="#46464D" d="M3.086 60.043s-.666 2.936 2.291 1.51c0 0 10.067-6.135 4.69-5.713l-4.69 2.012-2.291 2.191zM11.291 64.604s-.666 2.935 2.291 1.51c0 0 10.067-6.135 4.69-5.713l-4.69 2.012-2.29 2.19z" transform="translate(206.205 115.274)"/>
            <path fill="#002CA6" d="M1.955 32.785L3.02 60.68s1.747.373 4.06-3.279l1.124-17.628 3.086 24.83s1.59 1.247 4.404-1.76l-.373-28.991-7.117-2.885-6.25 1.818z" transform="translate(206.205 115.274)"/>
            <path fill="#2E5DEB" d="M9.136 10.446S.58 9.186 1.489 23.012v10.711s8.814 4.382 14.206.702l-1.89-19.532s-.695-3.824-4.669-4.447z" transform="translate(206.205 115.274)"/>
            <path fill="#486DE7" d="M9.294 15.952s-.802-3.021 2.47-3.308c0 0 2.069.337 2.563 4.082l1.768 7.396 5.635 6.014s.186 1.625-1.847 1.582c0 0-3.78-2.405-6.759-5.248-.007.007-1.153-1.66-3.83-10.518z" transform="translate(206.205 115.274)"/>
            <path fill="#F5BBB8" d="M12.2 5.356c0-2.463-1.303-4.41-3.48-4.41-2.169 0-3.93 1.997-3.93 4.46 0 1.482.952 2.75 2.177 3.53l-.494.107.25 1.582 3.888.43v-1.51c1.282-.538 1.59-2.177 1.59-4.19z" transform="translate(206.205 115.274)"/>
            <path fill="#FF5B83" d="M13.167.945s-.38 1.031-2.248 0C9.537.186 7.067-.1 5.199 1.16c0 0-5.027 3.415.694 8.37 0 0 1.976.88 3.687.229 0 0-.652-7.912 1.174-4.604.007.007 2.413-2.348 2.413-4.21z" transform="translate(206.205 115.274)"/>
            <path fill="#F5BBB8" d="M6.723 10.632s.065 1.454 3.888.43l-1.783-1.06-2.105.63z" transform="translate(206.205 115.274)"/>
        </g>
        <g>
            <path fill="#F0F4FF" d="M95.67 18.2c.251.137.258.452-.15.688C75.021 30.802 54.516 42.716 34.017 54.63c-.408.236-.953.23-1.189.086-9.96-5.75-19.919-11.506-29.885-17.255-.25-.136-.258-.451.143-.688C23.585 24.86 44.09 12.945 64.589 1.031c.416-.236.953-.236 1.196-.086C75.752 6.702 85.711 12.451 95.671 18.2z" transform="translate(89.499 102.387)"/>
            <path fill="#0B2B7D" d="M96.866 18.322c-9.96-6.38-19.919-11.62-29.878-17.37-.15-.086-.974-.58-1.711-.58-.988 0-1.883.623-1.883.623-1.847.91-61.34 35.642-61.282 35.585-2.27 2.212-1.568 4.346-.365 5.42 1.496.866 29.878 17.248 29.878 17.248h.007c.387.222 1.282.523 1.755.516.945-.022 1.847-.423 1.847-.423s57.415-33.5 61.503-35.9c3.73-2.19.13-5.119.13-5.119zM35.22 59.348s57.415-33.5 61.503-35.9m-61.503 35.9s57.415-33.5 61.503-35.9M64.597 1.039c.415-.236.952-.236 1.195-.086l29.886 17.256c.25.136.258.45-.15.687L34.023 54.637c-.408.237-.952.23-1.189.086L2.95 37.468c-.25-.136-.258-.451.143-.688L64.597 1.038z" transform="translate(89.499 102.387)"/>
            <g fill="#081E59">
                <path d="M65.27.365c-.988 0-1.883.623-1.883.623-1.676.83-51.058 29.642-59.922 34.797l.666.387L64.597 1.03c.415-.236.952-.236 1.195-.086L94.49 17.513l.573-.33C85.704 11.314 76.346 6.352 66.988.946c-.157-.086-.974-.58-1.718-.58zM96.73 21.473c-4.095 2.398-61.503 35.9-61.503 35.9s-.902.4-1.848.422c-.472.014-1.367-.294-1.754-.516h-.007S3.236 40.89 1.74 40.031c-.415-.372-.76-.866-.96-1.446-.465 1.432.13 2.678.96 3.422 1.496.867 29.878 17.248 29.878 17.248l.007.008c.387.221 1.282.522 1.754.515.946-.021 1.848-.422 1.848-.422s57.415-33.502 61.503-35.9c1.876-1.103 1.905-2.384 1.475-3.394-.25.473-.709.96-1.475 1.41z" transform="translate(89.499 102.387)"/>
            </g>
            <g opacity=".24">
                <g>
                    <path fill="#D8E3FF" d="M5.069 53.621L0.573 51.007 0.437 3.444 4.933 6.057z" transform="translate(89.499 102.387) translate(30.788) translate(26.492)"/>
                    <path fill="#EDF3FF" d="M4.933 6.057L0.437 3.444 5.613 0.451 10.11 3.064z" transform="translate(89.499 102.387) translate(30.788) translate(26.492)"/>
                    <path fill="#EBF1FF" d="M10.11 3.064L10.246 50.635 5.069 53.621 4.933 6.057z" transform="translate(89.499 102.387) translate(30.788) translate(26.492)"/>
                </g>
                <g>
                    <path fill="#2E5DEB" d="M4.611 37.368L0.115 34.754 0.021 3.537 4.525 6.15z" transform="translate(89.499 102.387) translate(30.788) translate(17.9 21.48)"/>
                    <path fill="#4B73EB" d="M4.525 6.15L0.021 3.537 5.198 0.551 9.695 3.165z" transform="translate(89.499 102.387) translate(30.788) translate(17.9 21.48)"/>
                    <path fill="#3F6AEB" d="M9.695 3.165L9.788 34.382 4.611 37.368 4.525 6.15z" transform="translate(89.499 102.387) translate(30.788) translate(17.9 21.48)"/>
                </g>
                <g>
                    <path fill="#FF5B83" d="M4.79 49.389L0.294 46.776 0.172 3.666 4.668 6.279z" transform="translate(89.499 102.387) translate(30.788) translate(9.308 14.32)"/>
                    <path fill="#FF96B0" d="M4.668 6.279L0.172 3.666 5.341 0.68 9.845 3.294z" transform="translate(89.499 102.387) translate(30.788) translate(9.308 14.32)"/>
                    <path fill="#FF809F" d="M9.845 3.294L9.967 46.396 4.79 49.389 4.668 6.279z" transform="translate(89.499 102.387) translate(30.788) translate(9.308 14.32)"/>
                </g>
                <g>
                    <path fill="#081E59" d="M5.048 58.912L0.544 56.291 0.401 3.523 4.897 6.136z" transform="translate(89.499 102.387) translate(30.788) translate(0 10.024)"/>
                    <path fill="#0D308F" d="M4.897 6.136L0.401 3.523 5.57 0.537 10.074 3.15z" transform="translate(89.499 102.387) translate(30.788) translate(0 10.024)"/>
                    <path fill="#0B2A7D" d="M10.074 3.15L10.217 55.919 5.048 58.912 4.897 6.136z" transform="translate(89.499 102.387) translate(30.788) translate(0 10.024)"/>
                </g>
            </g>
            <g fill="#0B2B7D">
                <path d="M11.434 6.286c.888.516.895 1.354.008 1.87-.888.515-2.335.515-3.23 0-.887-.516-.902-1.354-.007-1.87.888-.515 2.334-.515 3.23 0zM8.857 7.783c.537.308 1.403.308 1.94 0 .53-.315.523-.81-.014-1.117-.537-.308-1.396-.308-1.933 0-.523.3-.53.802.007 1.117M4.947 1.232c.05.093.015.193-.107.264L1.983 3.158c-.107.064-.272.093-.43.064-.078-.007-.157-.036-.214-.072-.05-.028-.086-.064-.107-.107l-1.11-2.02C.072.939.107.846.208.774.315.71.465.666.623.687l3.966.358c.094.008.18.036.251.072.043.036.079.072.107.115zM1.862 2.477l1.696-.98-2.348-.215.652 1.195M21.91 12.451c0 .065-.044.136-.13.186l-1.926 1.117c-.086.05-.2.079-.322.079-.114 0-.236-.029-.322-.079l-3.236-1.869c-.079-.043-.136-.114-.136-.186.007-.071.05-.136.136-.186l1.926-1.117c.086-.05.2-.079.322-.079s.243.03.322.072l3.236 1.869c.086.05.136.121.13.193zm-2.385.745l1.282-.745-2.585-1.49-1.282.745 2.585 1.49" transform="translate(89.499 102.387) translate(10.74 36.516)"/>
            </g>
        </g>
        <g>
            <path fill="#FF5B83" d="M22.081 9.637c3.673 2.12 6.645 7.268 6.63 11.492l-.036 11.47c-.007 4.217-3 5.921-6.673 3.802l-8.119-4.69-7.425 3.036-1.446-8.52C2.334 23.692.387 19.675.394 16.267l.028-11.47c.015-4.224 3-5.928 6.68-3.809l14.98 8.65z" transform="translate(247.017 32.22)"/>
            <path fill="#FFF" d="M23.979 18.473L23.971 20.513 3.2 8.52 3.208 6.487zM23.263 22.403L23.263 24.437 5.506 14.191 5.513 12.15zM23.234 26.234L23.227 28.274 11.749 21.644 11.757 19.611z" transform="translate(247.017 32.22)"/>
        </g>
        <g>
            <path fill="#345FD0" d="M36.2 62.076c4.747 2.743 4.769 7.182.058 9.924-4.711 2.735-12.38 2.742-17.127 0-4.74-2.735-4.761-7.181-.057-9.924 4.718-2.735 12.394-2.735 17.126 0z" opacity=".05" transform="translate(245.585 128.878)"/>
            <path fill="#FF5B83" d="M36.838 64.138c-.093-1.167-.666-3.98-1.747-6.486L20.549 57.2s-2.72 3.967-2.341 7.561c-.036 1.182.515 2.735.522 2.735h.007c.459.91 1.203 1.382 2.27 1.99 3.709 2.142 9.702 2.077 13.382-.056 2.127-1.232 2.535-3.559 2.449-5.292z" transform="translate(245.585 128.878)"/>
            <path fill="#D9397B" d="M33.208 55.919c3.078 1.776 3.1 4.661.035 6.444-3.057 1.775-8.04 1.775-11.119 0-3.079-1.776-3.093-4.661-.036-6.444 3.065-1.783 8.048-1.776 11.12 0z" transform="translate(245.585 128.878)"/>
            <path fill="#F1639E" d="M19.56 60.258c-.644-1.719.237-3.53 2.3-4.733 3.178-1.847 8.376-1.847 11.577 0 1.84 1.06 2.756 2.563 2.513 4.11l-.902-.143c.179-1.16-.573-2.32-2.07-3.18-2.95-1.703-7.732-1.703-10.66 0-1.676.974-2.392 2.328-1.905 3.624l-.852.322z" transform="translate(245.585 128.878)"/>
            <path fill="#FFF" d="M27.23 62.542c-.674-1.325-1.333-2.692-1.963-4.089-3.88-8.556-6.938-18.2-9.014-25.675-1.031-3.737-1.826-6.945-2.356-9.215-.265-1.131-.465-2.026-.601-2.642-.064-.308-.115-.544-.15-.701-.036-.165-.05-.237-.05-.237-.08-.372-.337-.744-.623-.909-.058-.029-.115-.057-.172-.072-.344-.093-.552.2-.459.652.008.021 1.97 9.58 5.628 21.136 1.833 5.785 4.081 12.057 6.745 17.921.666 1.46 1.353 2.9 2.069 4.303l.43.817c.386-.015.773-.036 1.16-.058-.215-.408-.43-.816-.645-1.231z" transform="translate(245.585 128.878)"/>
            <path fill="#8AA4F7" d="M26.284 63.014c-.716-1.396-1.403-2.835-2.07-4.303-2.656-5.864-4.91-12.143-6.744-17.921-3.659-11.556-5.62-21.115-5.628-21.136-.093-.451.115-.738.459-.652.057.015.114.036.172.072.286.165.544.53.622.91 0 0 .015.078.05.236.036.157.087.4.15.701.137.616.337 1.511.602 2.642.53 2.27 1.325 5.478 2.356 9.215 2.07 7.482 5.126 17.127 9.014 25.675.63 1.397 1.29 2.764 1.962 4.089.48-.437.81-1.167.93-2.263.337-3.086-1.947-7.124-1.86-10.332.085-3.408 4.718-6.014 1.152-10.618-1.518-1.954-3.623-2.17-4.504-5.17-.615-2.09.452-3.192.845-4.61.416-1.554.423-3.365-.343-5.485-.945-2.606-2.943-2.942-4.29-4.918-1.732-2.528-.257-4.268-.371-6.323-.093-1.646-1.082-2.57-2.234-3.236-.459-.265-.938-.487-1.404-.694-.458-.208-.887-.409-1.317-.652-2.434-1.453-2.212-2.499-4.224-4.647C8.477 2.384 7.13 1.49 7.059 1.44 6.789 1.196 6.502.99 6.2.81 3.007-1.03-1.547 1.031.566 5.284c.973 1.962 3.608 3.358 4.646 5.263 2.292 4.167-1.51 4.503-2.27 6.608-1.431 3.981 4.89 6.244 4.54 10.353-.208 2.356-2.67 3.25-.601 6.738 1.01 1.704 2.692 1.933 3.572 3.63 1.182 2.277-.1 4.217-.443 5.685-.423 1.797.372 4.912 1.603 7.06 2.263 3.995 6.308 7.575 9.416 10.116.651.537 1.324 1.01 1.969 1.39 1.217.701 2.37 1.066 3.286.887z" transform="translate(245.585 128.878)"/>
            <g>
                <path fill="#FFF" d="M20.105 18.458c-.1-.114-.2-.207-.308-.265-.229-.136-.45-.121-.565.065-.008.014-2.621 4.067-5.234 10.238-2.385 5.62-4.783 12.967-5.22 20.678-.043.745-.064 1.504-.064 2.256.444-.065.88-.144 1.324-.244.015-.422.015-.838.036-1.26.43-7.418 2.77-14.663 5.126-20.19 1.29-3.058 2.585-5.586 3.559-7.347.487-.88.888-1.575 1.174-2.048.143-.236.25-.408.322-.537.08-.114.115-.179.115-.179.165-.272.05-.787-.265-1.167z" transform="translate(245.585 128.878) translate(20.764 12.172)"/>
                <path fill="#082FAD" d="M30.73 22.504c1.611-1.318-1.389-4.662-2.556-6.652-1.732-2.957-.866-3.143-1.74-5.957-.494-1.575-1.403-3.258-1.446-3.35-.838-2.12-3.122-4.411-5.212-5.614-2.027-1.174-3.867-1.325-4.024.68-.136 1.718 1.847 4.854 1.826 6.616-.036 3.859-4.304.229-6.373.293-3.91.122 1.504 7.225-1.331 8.449-1.626.702-4.79-1.382-4.662 1.998.065 1.654 1.726 3.4 1.654 4.911-.1 2.048-2.627 1.525-3.873 1.747-1.518.28-2.535 2.249-2.506 4.29.043 3.772 2.234 9.15 4.024 13.188 1.088 2.441 2.606 4.782 4.274 6.064.43-7.711 2.836-15.057 5.22-20.678 2.62-6.164 5.234-10.217 5.234-10.238.114-.18.336-.194.565-.065.1.057.208.15.308.265.315.372.437.895.265 1.16 0 0-.043.064-.114.179-.072.129-.18.3-.323.537-.286.473-.687 1.167-1.174 2.048-.974 1.761-2.27 4.288-3.558 7.346-2.356 5.527-4.697 12.78-5.127 20.19.773.309 1.561.352 2.349.05.093-.035.171-.085.257-.128-.064.007-.129.014-.207.014.078 0 .143-.007.207-.014 1.94-1.045 2.005-4.582 3.924-5.678 2.126-1.224 8.635 2.349 7.568-2.943-.451-2.248-2.57-4.403-1.726-6.422.588-1.418 2.392-.788 3.652-.945 1.375-.186 2.463-.874 2.907-2.442.551-1.933-1.382-4.03-1.654-6.121-.344-2.664 2.263-1.883 3.372-2.778z" transform="translate(245.585 128.878) translate(20.764 12.172)"/>
            </g>
            <g>
                <path fill="#082FAD" d="M10.783 46.525c-.222-1.052-.415-2.126-.58-3.2-.673-4.346-.888-8.807-.88-12.795.014-3.924.243-7.382.472-9.874.114-1.238.229-2.234.315-2.92l.1-.781c.022-.18.036-.272.036-.272.05-.373-.186-.888-.537-1.16-.036-.022-.065-.043-.1-.065-.315-.179-.588-.079-.645.258 0 .029-.916 6.1-.938 14.062-.014 4.053.208 8.6.902 13.103.18 1.145.387 2.284.63 3.422.122.551.258 1.103.394 1.647.38-.036.76-.086 1.139-.143-.1-.423-.215-.845-.308-1.282z" transform="translate(245.585 128.878) translate(18.616 15.752)"/>
                <path fill="#FFF" d="M14.764 28.912c.036-1.44 1.274-1.561 1.997-2.177.795-.659 1.296-1.661 1.218-3.179-.1-1.876-1.74-2.971-2.37-4.675-.802-2.184.959-2.47 1.424-3.659.68-1.733-1.883-3.501-3.035-4.797-1.712-1.905-1.232-2.384-2.392-4.49-.651-1.18-1.575-2.29-1.618-2.348-.551-.86-1.396-1.59-2.305-2.112C5.42.165 2.763.158 3.286 2.749c.301 1.525 2.206 3.494 2.585 5.027.845 3.343-2.556 1.797-3.795 2.613-2.34 1.547 2.528 5.678 1.089 7.783-.83 1.21-3.215.58-2.377 3.45.4 1.397 1.804 2.3 2.097 3.631.394 1.797-1.253 2.277-1.954 2.936-.86.794-1.031 2.885-.559 4.625.874 3.236 3.394 7.067 5.392 9.888C6.78 44.14 7.969 45.408 9.1 46.06c.158.093.315.172.466.236-.244-1.131-.451-2.277-.63-3.422-.695-4.511-.917-9.05-.903-13.103.022-7.97.938-14.04.938-14.062.058-.344.33-.437.645-.258.028.014.064.036.1.065.35.272.594.787.537 1.16 0 .007-.014.092-.036.271-.021.172-.057.444-.1.78-.093.688-.2 1.676-.315 2.922-.23 2.485-.458 5.95-.473 9.874-.014 3.988.208 8.448.881 12.794.165 1.074.358 2.148.58 3.2.487-.056.924-.307 1.296-.815 1.146-1.547.28-4.826 1.239-6.559 1.016-1.847 5.756-1.174 3.93-5.334-.78-1.768-2.556-2.842-2.491-4.897z" transform="translate(245.585 128.878) translate(18.616 15.752)"/>
            </g>
            <path fill="#FF82A1" d="M27.695 64.138c-2.098 0-4.196-.465-5.793-1.389-1.167-.673-1.89-1.575-2.248-2.534l.515-.194c.366.716 1.196 1.368 2.184 1.934 2.95 1.704 7.733 1.704 10.661 0 1.167-.68 1.955-1.468 2.263-2.47l.673.143c-.186 1.188-1.067 2.298-2.477 3.114-1.59.931-3.68 1.396-5.778 1.396z" transform="translate(245.585 128.878)"/>
        </g>
        <g>
            <path fill="#345FD0" d="M36.838 62.19c4.747 2.743 4.768 7.182.057 9.925-4.711 2.735-12.38 2.742-17.127 0-4.74-2.736-4.76-7.182-.057-9.924 4.711-2.742 12.387-2.742 17.127 0z" opacity=".05" transform="translate(54.415 60.143)"/>
            <path fill="#FF5B83" d="M37.468 64.253c-.093-1.167-.666-3.98-1.747-6.487l-14.542-.451s-2.72 3.967-2.341 7.56c-.036 1.182.515 2.736.522 2.736h.008c.458.91 1.202 1.382 2.27 1.99 3.708 2.141 9.7 2.077 13.381-.057 2.134-1.239 2.542-3.565 2.449-5.291z" transform="translate(54.415 60.143)"/>
            <path fill="#D9397B" d="M33.845 56.026c3.079 1.776 3.1 4.661.036 6.444-3.058 1.776-8.04 1.776-11.12 0-3.078-1.775-3.093-4.66-.035-6.444 3.057-1.783 8.04-1.775 11.119 0z" transform="translate(54.415 60.143)"/>
            <path fill="#F1639E" d="M20.198 60.365c-.644-1.718.236-3.53 2.298-4.733 3.18-1.847 8.378-1.847 11.578 0 1.84 1.06 2.757 2.564 2.513 4.11l-.902-.143c.179-1.16-.573-2.32-2.07-3.179-2.95-1.704-7.732-1.704-10.66 0-1.676.974-2.392 2.327-1.905 3.623l-.852.322z" transform="translate(54.415 60.143)"/>
            <path fill="#FFF" d="M27.866 62.65c-.673-1.325-1.331-2.693-1.961-4.09-3.881-8.555-6.938-18.2-9.015-25.675-1.03-3.737-1.826-6.945-2.355-9.214-.265-1.132-.466-2.027-.602-2.642-.064-.308-.114-.545-.15-.702-.036-.165-.05-.236-.05-.236-.08-.373-.337-.745-.623-.91-.057-.028-.115-.057-.172-.071-.344-.093-.551.2-.458.651.007.022 1.969 9.58 5.627 21.136 1.833 5.786 4.082 12.058 6.745 17.922.666 1.46 1.353 2.9 2.07 4.303l.429.816c.386-.014.773-.036 1.16-.057-.222-.408-.437-.817-.645-1.232z" transform="translate(54.415 60.143)"/>
            <path fill="#2E5DEB" d="M26.914 63.122c-.716-1.396-1.403-2.836-2.07-4.303-2.655-5.864-4.91-12.144-6.744-17.922-3.658-11.556-5.62-21.114-5.627-21.136-.094-.45.114-.737.458-.651.057.014.114.036.172.071.286.165.544.53.623.91 0 0 .014.078.05.236.035.157.086.4.15.702.136.615.337 1.51.601 2.642.53 2.27 1.325 5.477 2.356 9.214 2.07 7.483 5.127 17.127 9.014 25.676.63 1.396 1.29 2.764 1.962 4.088.48-.437.81-1.167.931-2.262.336-3.086-1.948-7.124-1.862-10.332.086-3.408 4.719-6.014 1.153-10.618-1.518-1.955-3.623-2.17-4.503-5.17-.616-2.09.45-3.193.844-4.61.416-1.554.423-3.366-.336-5.485-.945-2.606-2.943-2.943-4.289-4.919-1.733-2.527-.258-4.267-.372-6.322-.093-1.647-1.081-2.57-2.234-3.236-.458-.265-.938-.487-1.396-.695-.458-.208-.888-.408-1.318-.652-2.434-1.453-2.212-2.498-4.224-4.646-1.131-1.21-2.477-2.105-2.549-2.155-.272-.244-.558-.452-.86-.63C3.653-.924-.901 1.137 1.21 5.39c.974 1.962 3.609 3.358 4.647 5.263 2.291 4.167-1.51 4.504-2.27 6.609-1.432 3.98 4.89 6.243 4.54 10.353-.208 2.355-2.671 3.25-.602 6.737 1.01 1.704 2.692 1.933 3.573 3.63 1.181 2.277-.1 4.217-.444 5.685-.422 1.797.372 4.912 1.604 7.06 2.262 3.995 6.308 7.575 9.415 10.117.652.537 1.325 1.01 1.969 1.389 1.203.702 2.363 1.067 3.272.888z" transform="translate(54.415 60.143)"/>
            <g>
                <path fill="#FFF" d="M20.02 18.573c-.101-.115-.201-.208-.309-.265-.229-.136-.45-.122-.565.064-.008.015-2.62 4.067-5.234 10.239-2.385 5.62-4.783 12.967-5.22 20.678-.043.744-.064 1.503-.064 2.255.444-.064.88-.143 1.324-.243.015-.423.015-.838.036-1.26.43-7.418 2.77-14.664 5.127-20.191 1.288-3.058 2.584-5.585 3.558-7.346.487-.881.888-1.576 1.174-2.048.143-.236.25-.408.322-.537.08-.115.115-.18.115-.18.172-.271.05-.794-.265-1.166z" transform="translate(54.415 60.143) translate(21.48 12.172)"/>
                <path fill="#081E59" d="M30.652 22.611c1.61-1.317-1.39-4.661-2.557-6.652-1.725-2.957-.866-3.143-1.74-5.957-.493-1.575-1.403-3.257-1.446-3.35-.837-2.12-3.121-4.41-5.212-5.614-2.026-1.174-3.866-1.324-4.024.68-.136 1.719 1.847 4.855 1.826 6.616-.036 3.86-4.303.23-6.373.294-3.909.121 1.504 7.224-1.331 8.448-1.626.702-4.79-1.381-4.661 1.998.064 1.654 1.725 3.4 1.654 4.912-.1 2.047-2.628 1.525-3.874 1.747C1.396 26.012.38 27.98.408 30.02c.043 3.774 2.234 9.15 4.024 13.189 1.088 2.442 2.606 4.783 4.274 6.064.43-7.71 2.836-15.057 5.22-20.677 2.62-6.165 5.227-10.218 5.234-10.239.114-.179.336-.193.566-.064.1.057.207.15.307.264.315.38.437.895.265 1.16 0 0-.043.065-.114.18-.072.128-.18.3-.322.536-.287.473-.688 1.167-1.175 2.048-.973 1.761-2.27 4.289-3.558 7.346-2.356 5.528-4.697 12.78-5.127 20.191.774.308 1.561.35 2.349.05.093-.036.172-.086.258-.129-.065.007-.13.015-.208.015.079 0 .143-.008.208-.015 1.94-1.045 2.004-4.582 3.923-5.677 2.127-1.225 8.635 2.348 7.568-2.943-.45-2.248-2.57-4.404-1.725-6.423.587-1.417 2.391-.787 3.651-.945 1.375-.186 2.463-.873 2.907-2.441.551-1.933-1.382-4.031-1.654-6.122-.35-2.663 2.263-1.876 3.373-2.778z" transform="translate(54.415 60.143) translate(21.48 12.172)"/>
            </g>
            <g>
                <path fill="#081E59" d="M10.704 45.916c-.222-1.052-.415-2.126-.58-3.2-.673-4.346-.888-8.807-.88-12.795.014-3.923.243-7.382.472-9.873.115-1.239.23-2.234.315-2.922.043-.336.079-.608.1-.78.022-.179.036-.272.036-.272.05-.372-.186-.888-.537-1.16-.036-.021-.064-.043-.1-.064-.315-.18-.587-.08-.645.257 0 .029-.916 6.1-.938 14.062-.014 4.053.208 8.6.903 13.103.179 1.146.386 2.284.63 3.423.121.55.257 1.102.394 1.646.379-.036.758-.086 1.138-.143-.107-.422-.222-.845-.308-1.282z" transform="translate(54.415 60.143) translate(19.332 16.468)"/>
                <path fill="#FFF" d="M14.678 28.303c.036-1.439 1.274-1.56 1.997-2.177.795-.658 1.296-1.66 1.218-3.179-.1-1.875-1.74-2.97-2.37-4.675-.802-2.184.96-2.47 1.424-3.659.68-1.732-1.883-3.5-3.035-4.797C12.2 7.912 12.68 7.432 11.52 5.327c-.651-1.181-1.575-2.291-1.618-2.348-.551-.86-1.396-1.59-2.305-2.113C5.334-.444 2.677-.45 3.2 2.141c.301 1.525 2.206 3.494 2.585 5.026C6.63 10.511 3.23 8.964 1.99 9.78c-2.34 1.547 2.528 5.678 1.089 7.783-.83 1.21-3.215.58-2.377 3.451.4 1.397 1.804 2.299 2.098 3.63.393 1.798-1.253 2.277-1.955 2.936-.86.795-1.031 2.885-.559 4.625.874 3.237 3.394 7.067 5.392 9.888 1.017 1.44 2.205 2.707 3.336 3.358.158.093.315.172.466.236-.244-1.13-.451-2.276-.63-3.422-.695-4.51-.917-9.05-.903-13.103.022-7.969.938-14.04.938-14.062.058-.336.337-.437.645-.258.028.015.064.036.1.065.35.272.594.788.537 1.16 0 .007-.014.093-.036.272-.021.172-.057.444-.1.78-.093.688-.2 1.676-.315 2.922-.23 2.484-.458 5.95-.473 9.873-.007 3.988.208 8.449.881 12.795.165 1.074.358 2.148.58 3.2.487-.057.924-.308 1.296-.816 1.146-1.546.28-4.826 1.239-6.558 1.016-1.848 5.756-1.175 3.93-5.335-.78-1.76-2.548-2.835-2.491-4.897z" transform="translate(54.415 60.143) translate(19.332 16.468)"/>
            </g>
            <path fill="#FF82A1" d="M28.332 64.246c-2.098 0-4.196-.466-5.793-1.39-1.167-.672-1.89-1.574-2.248-2.534l.516-.193c.365.716 1.195 1.367 2.183 1.933 2.95 1.704 7.733 1.704 10.662 0 1.167-.68 1.954-1.468 2.262-2.47l.673.143c-.186 1.189-1.067 2.298-2.477 3.115-1.59.938-3.688 1.396-5.778 1.396z" transform="translate(54.415 60.143)"/>
        </g>
        <g>
            <g>
                <path fill="#D8E3FF" d="M5.069 53.248L0.573 50.635 0.437 3.064 4.933 5.685z" transform="translate(120.286 73.031) translate(26.492)"/>
                <path fill="#EDF3FF" d="M4.933 5.685L0.437 3.064 5.613 0.079 10.11 2.692z" transform="translate(120.286 73.031) translate(26.492)"/>
                <path fill="#EBF1FF" d="M10.11 2.692L10.246 50.263 5.069 53.248 4.933 5.685z" transform="translate(120.286 73.031) translate(26.492)"/>
            </g>
            <g>
                <path fill="#2E5DEB" d="M4.611 36.995L0.115 34.382 0.021 3.165 4.525 5.778z" transform="translate(120.286 73.031) translate(17.9 21.48)"/>
                <path fill="#4B73EB" d="M4.525 5.778L0.021 3.165 5.198 0.179 9.695 2.792z" transform="translate(120.286 73.031) translate(17.9 21.48)"/>
                <path fill="#3F6AEB" d="M9.695 2.792L9.788 34.01 4.611 36.995 4.525 5.778z" transform="translate(120.286 73.031) translate(17.9 21.48)"/>
            </g>
            <g>
                <path fill="#FF5B83" d="M4.79 49.017L0.294 46.396 0.172 3.294 4.668 5.907z" transform="translate(120.286 73.031) translate(9.308 14.32)"/>
                <path fill="#FF96B0" d="M4.668 5.907L0.172 3.294 5.341 0.308 9.845 2.921z" transform="translate(120.286 73.031) translate(9.308 14.32)"/>
                <path fill="#FF809F" d="M9.845 2.921L9.967 46.024 4.79 49.017 4.668 5.907z" transform="translate(120.286 73.031) translate(9.308 14.32)"/>
            </g>
            <g>
                <path fill="#081E59" d="M5.048 58.532L0.544 55.919 0.401 3.15 4.897 5.764z" transform="translate(120.286 73.031) translate(0 10.024)"/>
                <path fill="#0D308F" d="M4.897 5.764L0.401 3.15 5.57 0.165 10.074 2.778z" transform="translate(120.286 73.031) translate(0 10.024)"/>
                <path fill="#0B2A7D" d="M10.074 2.778L10.217 55.547 5.048 58.532 4.897 5.764z" transform="translate(120.286 73.031) translate(0 10.024)"/>
            </g>
        </g>
        <path fill="#EBF0FF" d="M143.807 54.029c0 .694-.08 1.41-.23 2.14l.044.13-.086.078c-.81 3.566-3.308 7.267-6.258 8.971-3.616 2.084-6.566.409-6.58-3.744-.014-4.153 2.921-9.236 6.537-11.32 3.608-2.09 6.558-.408 6.573 3.745zm-6.408-3.208l.014 5.162c.974-.58 2.04-1.303 3.186-2.205-.594-2.241-2.083-3.165-2.399-3.336-.264.1-.53.221-.801.379m-5.786 12.63c.645 1.611 2.048 2.356 3.802 1.998-.837-.695-1.453-1.547-1.833-2.556-.873.322-1.539.48-1.969.558m3.716-11.098c-1.625 1.568-2.942 3.73-3.608 5.914.3-.043.859-.157 1.647-.408.43-2.227 1.338-4.274 1.961-5.506m3.838 10.912c1.726-1.661 3.1-3.995 3.723-6.308-.658.587-1.296 1.124-1.911 1.611-.366 1.453-.974 3.021-1.812 4.697m3.609-11.341c-.673-1.41-1.984-2.062-3.602-1.769.63.501 1.532 1.482 1.97 3.18.522-.43 1.066-.903 1.632-1.411m-5.914 4.367l-.015-5.148c-.186.115-.372.25-.551.387-.294.501-1.804 3.186-2.384 6.143.809-.294 1.804-.737 2.95-1.382m.55.33l.008 3.773c.96-.573 2.005-1.275 3.136-2.141.23-1.017.322-1.969.286-2.85-.014-.386-.064-.744-.121-1.08-1.196.944-2.306 1.696-3.308 2.298m-.537 4.088l-.007-3.766c-1.196.673-2.227 1.131-3.072 1.439-.057.386-.1.773-.107 1.16-.029.93.071 1.783.315 2.542.802-.316 1.768-.76 2.87-1.375m.56 3.91c.279-.173.544-.352.808-.56.981-1.796 1.683-3.472 2.113-5.011-1.053.794-2.027 1.446-2.936 1.99l.014 3.58m-.55.308l-.008-3.573c-1.002.566-1.897.988-2.664 1.303.437 1.017 1.146 1.87 2.12 2.52.179-.078.365-.157.551-.25m-5.642-3.644c0 .558.064 1.066.172 1.525.258-.036.945-.15 1.983-.509-.2-.751-.286-1.582-.258-2.484.015-.423.058-.838.115-1.26-.816.265-1.403.372-1.726.415-.186.788-.293 1.568-.286 2.313m11.843-5.148c.114-.609.179-1.21.179-1.783 0-.73-.1-1.39-.294-1.94-.587.536-1.153 1.03-1.704 1.482.064.358.114.744.136 1.167.036.852-.05 1.761-.236 2.728.615-.509 1.253-1.06 1.919-1.654"/>
        <g>
            <path fill="#3E3E45" d="M90.659 27.294v1.36c.25.501.4 1.117.4 1.869.008 2.856-2.004 6.343-4.481 7.775-.917.53-1.776.702-2.485.566-.465-.544-.737-1.36-.745-2.399-.007-1.76.767-3.766 1.94-5.377-.207.022-.414.007-.622-.043-.129-.028-.258-.071-.387-.136-.322-.322-.53-.651-.651-.973-1.346 1.847-2.227 4.138-2.22 6.157.007 1.618.58 2.764 1.504 3.3l1.288.745c-.064-.035-.121-.078-.179-.121.946.666 2.32.644 3.845-.23 2.843-1.639 5.141-5.627 5.127-8.892-.007-2.062-.93-3.35-2.334-3.601z" transform="translate(2.148 131.742)"/>
            <path fill="#3E3E45" d="M82.453 21.823v1.361c.251.501.401 1.117.401 1.869.008 2.856-2.004 6.343-4.482 7.775-.916.53-1.775.702-2.484.566-.466-.544-.738-1.36-.745-2.399-.007-1.761.766-3.766 1.94-5.377-.207.022-.415.007-.622-.043-.13-.028-.258-.071-.387-.136-.322-.322-.53-.651-.652-.974-1.346 1.848-2.226 4.139-2.22 6.158.008 1.618.58 2.764 1.504 3.3l1.29.745c-.065-.036-.122-.079-.18-.121.945.665 2.32.644 3.838-.23 2.842-1.64 5.14-5.627 5.126-8.892 0-2.062-.93-3.351-2.327-3.602z" transform="translate(2.148 131.742)"/>
            <path fill="#3E3E45" d="M74.248 17.263v1.36c.25.501.401 1.117.401 1.869.007 2.856-2.005 6.343-4.482 7.775-.916.53-1.776.702-2.484.566-.466-.544-.738-1.36-.745-2.399-.007-1.761.766-3.766 1.94-5.377-.207.022-.415.007-.623-.043-.129-.028-.257-.071-.386-.136-.322-.322-.53-.651-.652-.973-1.346 1.847-2.227 4.138-2.22 6.157.008 1.618.58 2.764 1.504 3.3l1.289.745c-.064-.035-.122-.078-.179-.121.945.666 2.32.644 3.838-.23 2.842-1.64 5.14-5.627 5.126-8.892 0-2.062-.93-3.344-2.327-3.601zM65.126 11.792v1.361c.251.5.401 1.117.401 1.868.008 2.857-2.004 6.344-4.482 7.776-.916.53-1.775.702-2.484.566-.466-.544-.738-1.36-.745-2.399-.007-1.761.766-3.766 1.94-5.377-.207.022-.415.007-.622-.043-.13-.028-.258-.071-.387-.136-.322-.322-.53-.651-.652-.974-1.346 1.848-2.226 4.139-2.22 6.158.008 1.618.58 2.764 1.504 3.3l1.29.745c-.065-.036-.122-.079-.18-.121.945.665 2.32.644 3.838-.23 2.842-1.64 5.14-5.627 5.127-8.892 0-2.062-.924-3.351-2.328-3.602zM56.012 6.322v1.361c.25.5.4 1.117.4 1.868.008 2.857-2.004 6.344-4.481 7.776-.917.53-1.776.702-2.485.566-.465-.545-.737-1.36-.744-2.399-.007-1.761.766-3.766 1.94-5.377-.208.021-.415.007-.623-.043-.129-.029-.258-.072-.387-.136-.322-.322-.53-.652-.651-.974-1.346 1.847-2.227 4.139-2.22 6.158.007 1.618.58 2.763 1.504 3.3l1.289.745c-.065-.036-.122-.079-.18-.122.946.666 2.32.645 3.838-.229 2.843-1.64 5.141-5.627 5.127-8.892 0-2.062-.93-3.351-2.327-3.602zM46.897.852v1.36c.251.502.401 1.117.401 1.87.007 2.856-2.004 6.343-4.482 7.775-.916.53-1.775.701-2.484.565-.466-.544-.738-1.36-.745-2.398-.007-1.761.766-3.766 1.94-5.377-.207.021-.415.007-.622-.043-.13-.029-.258-.072-.387-.136-.322-.322-.53-.652-.652-.974-1.346 1.847-2.226 4.138-2.22 6.158.008 1.618.58 2.763 1.504 3.3l1.29.745c-.065-.036-.123-.079-.18-.122.945.666 2.32.645 3.845-.229 2.842-1.64 5.14-5.628 5.127-8.893-.008-2.062-.938-3.35-2.335-3.601zM98.864 32.764v1.36c.25.501.4 1.117.4 1.869.008 2.857-2.004 6.344-4.481 7.775-.917.53-1.776.702-2.485.566-.465-.544-.737-1.36-.744-2.398-.007-1.762.766-3.767 1.94-5.378-.208.022-.415.008-.623-.042-.129-.03-.258-.072-.387-.137-.322-.322-.53-.651-.651-.973-1.346 1.847-2.227 4.138-2.22 6.157.008 1.618.58 2.764 1.504 3.301l1.289.745c-.065-.036-.122-.08-.18-.122.946.666 2.32.644 3.838-.23 2.843-1.639 5.141-5.627 5.127-8.892 0-2.062-.924-3.35-2.327-3.601z" transform="translate(2.148 131.742)"/>
            <g>
                <path fill="#BFD1FF" d="M98.07 34.654L60.114 56.706c-1.196.695-3.136.695-4.34 0L1.254 25.224c-.609-.35-.91-.809-.91-1.267l-.006 2.971c0 .459.3.917.909 1.268l54.53 31.482c1.203.694 3.143.694 4.339 0l37.954-22.053c.594-.343.895-.794.895-1.246l.007-2.97c-.007.45-.3.901-.902 1.245z" transform="translate(2.148 131.742) translate(0 9.308)"/>
                <path fill="#E6EDFF" d="M98.055 32.14c1.203.695 1.21 1.82.014 2.514L60.115 56.706c-1.196.695-3.136.695-4.34 0L1.254 25.224c-1.203-.694-1.217-1.818-.021-2.52L39.186.652c1.196-.695 3.143-.695 4.346.007L98.055 32.14z" transform="translate(2.148 131.742) translate(0 9.308)"/>
            </g>
            <path fill="#FFF" d="M98.07 39.401L60.114 61.453c-1.196.695-3.136.695-4.34 0L1.254 29.971c-.609-.35-.91-.809-.91-1.267l-.006 2.971c0 .459.3.917.909 1.268l54.53 31.482c1.203.694 3.143.694 4.339 0l37.954-22.053c.594-.343.895-.794.895-1.246l.007-2.97c-.007.45-.3.901-.902 1.245z" transform="translate(2.148 131.742)"/>
            <g>
                <path fill="#BFD1FF" d="M98.07 34.711L60.114 56.764c-1.196.694-3.136.694-4.34 0L1.254 25.289c-.609-.351-.91-.81-.91-1.268l-.006 2.972c0 .458.3.916.909 1.267l54.53 31.482c1.203.695 3.143.695 4.339 0L98.069 37.69c.594-.344.895-.795.895-1.246l.007-2.971c-.007.443-.3.895-.902 1.238z" transform="translate(2.148 131.742) translate(0 2.864)"/>
                <path fill="#E6EDFF" d="M98.055 32.198c1.203.695 1.21 1.819.014 2.513L60.115 56.764c-1.196.694-3.136.694-4.34 0L1.254 25.289c-1.203-.695-1.217-1.819-.021-2.52L39.186.715c1.196-.695 3.143-.695 4.346 0l54.523 31.482z" transform="translate(2.148 131.742) translate(0 2.864)"/>
            </g>
            <path fill="#3E3E45" d="M98.864 32.578l-.458-.265c-.938-.545-2.234-.473-3.659.358-1.081.623-2.084 1.596-2.914 2.735.122.322.322.651.651.973.13.065.258.108.387.137.208.05.415.057.623.042.723-.995 1.604-1.847 2.549-2.39.924-.53 1.768-.688 2.484-.552.13.15.244.315.344.508v-.437-.05-.866c.3.057.58.15.83.3l-.837-.493zM90.659 27.107l-.459-.265c-.937-.544-2.233-.472-3.658.358-1.081.623-2.084 1.597-2.914 2.736.121.322.322.651.651.973.13.065.258.108.387.136.208.05.415.058.623.043.723-.995 1.604-1.847 2.549-2.391.923-.53 1.768-.687 2.484-.551.13.15.244.315.344.508v-.437-.05-.873c.3.057.58.15.83.3l-.837-.487zM82.453 21.637l-.458-.265c-.938-.544-2.234-.472-3.658.358-1.082.623-2.084 1.597-2.915 2.735.122.323.323.652.652.974.129.065.258.108.387.136.207.05.415.057.623.043.723-.995 1.603-1.847 2.548-2.391.924-.53 1.769-.688 2.485-.552.129.15.243.315.344.509v-.437-.05-.866c.3.057.58.15.83.3l-.838-.494zM74.248 17.076l-.458-.265c-.938-.544-2.234-.472-3.659.358-1.08.623-2.083 1.597-2.914 2.736.122.322.322.651.652.973.129.065.257.108.386.136.208.05.416.058.623.043.723-.995 1.604-1.847 2.55-2.391.923-.53 1.768-.687 2.484-.551.129.15.243.315.343.508v-.437-.05-.873c.301.057.58.15.83.3l-.837-.487zM65.126 11.606l-.458-.265c-.938-.544-2.234-.472-3.658.358-1.082.623-2.084 1.597-2.915 2.735.122.323.323.652.652.974.129.065.258.108.387.136.207.05.415.057.623.043.723-.995 1.603-1.847 2.548-2.391.924-.53 1.769-.688 2.485-.552.129.15.243.315.344.509v-.437-.05-.866c.3.057.58.15.83.3l-.838-.494zM56.012 6.136l-.458-.265c-.938-.544-2.234-.472-3.659.358-1.081.623-2.084 1.597-2.914 2.735.122.322.322.652.651.974.13.064.258.107.387.136.208.05.415.057.623.043.723-.995 1.604-1.847 2.549-2.391.924-.53 1.768-.688 2.484-.552.13.15.244.315.344.509v-.437-.05-.867c.3.058.58.15.83.301l-.837-.494zM46.897.666L46.44.4c-.938-.544-2.234-.473-3.659.358-1.08.623-2.083 1.597-2.914 2.735.122.322.323.652.652.974.129.064.258.107.387.136.207.05.415.057.622.043.724-.995 1.604-1.847 2.55-2.392.923-.53 1.768-.687 2.484-.55.129.15.243.314.344.507v-.436-.05-.867c.3.057.58.15.83.3l-.838-.493z" transform="translate(2.148 131.742)"/>
            <path fill="#081E59" d="M46.31 13.303L14.8 31.618 7.926 27.652 39.437 9.337zM44.728 20.721L27.165 30.931 24.902 29.621 42.465 19.411z" transform="translate(2.148 131.742)"/>
        </g>
        <g>
            <path fill="#FF4572" d="M20.67.723c-.064-.036-.723-.3-1.546.186 0 0-16.46 9.502-16.468 9.509C1.317 11.19.394 12.802.394 14.34L.43 26.742c0 .387.078.802.315 1.117.365.487 1.324.795 1.324.795-.35-.2-.651-.451-.701-1.368l-.036-12.4c.064-1.561.923-2.986 2.262-3.917L20.07 1.461c.702-.43 1.396-.258 1.497-.215-.08-.05-.673-.394-.895-.523z" transform="translate(91.647 37.947)"/>
            <path fill="#9494E8" d="M1.532 13.675c.015-.028.029-.057.036-.086-.007.03-.021.058-.036.086zM2.198 12.344c.022-.029.036-.058.057-.086-.021.021-.035.057-.057.086z" transform="translate(91.647 37.947)"/>
            <path fill="#FF5B83" d="M22.339 2.757c.036-1.103-.788-1.518-.788-1.518-.4-.18-.916-.115-1.496.214L3.58 10.962c-.895.515-2.263 2.19-2.263 3.923l.036 12.401c-.036 1.29 1.01 1.848 2.277 1.296l16.475-9.508c2.098-1.181 2.298-3.043 2.263-3.924l-.03-12.393z" transform="translate(91.647 37.947)"/>
            <path fill="#9494E8" d="M22.217 16.224c0-.007.007-.014.007-.021-.007.007-.007.014-.007.021z" transform="translate(91.647 37.947)"/>
            <path fill="#FFF" d="M2.363 12.143l9.551 4.11 9.573-15.036c.114 0 .544.322.673.673L15.1 12.974l7.217 3.093c-.136.637-.279 1.067-.58 1.518l-7.503-3.25-1.948 3.064c-.107.164-.236.293-.372.372-.136.079-.272.1-.372.05l-1.99-.86-7.483 11.693c-.286-.129-.472-.422-.58-.659l7.196-11.398-7.045-3.18c.164-.493.415-.837.723-1.274z" transform="translate(91.647 37.947)"/>
        </g>
        <path fill="#D1DDFF" d="M42.523 111.902l1.31-.759c-.244.723-.666 1.561-1.26 2.513-.602.953-1.31 1.84-2.134 2.671-.83.838-1.818 1.582-2.986 2.255-1.074.623-2.062 1.031-2.97 1.239-.91.2-1.683.179-2.32-.093-.638-.265-1.125-.723-1.447-1.36-.408-.817-.616-1.833-.616-3.05-.007-1.354.23-2.786.716-4.297.58-1.84 1.418-3.48 2.499-4.904 1.081-1.425 2.391-2.578 3.945-3.473 1.196-.687 2.277-1.03 3.23-1.024.952.015 1.71.423 2.269 1.218.473.687.709 1.596.709 2.728.007 1.61-.487 3.322-1.468 5.148-.874 1.625-1.833 2.742-2.885 3.343-.33.194-.602.294-.81.294-.2 0-.35-.079-.45-.244-.065-.1-.108-.315-.137-.637-.315.602-.665 1.139-1.052 1.611-.387.48-.78.83-1.174 1.06-.43.25-.845.343-1.253.286-.408-.057-.738-.308-.996-.759-.25-.458-.386-1.038-.386-1.761 0-.88.193-1.883.587-2.986.394-1.117.88-2.062 1.46-2.842.588-.78 1.153-1.332 1.705-1.647.422-.243.823-.344 1.202-.315.38.036.716.222.989.58l.243-1.432 1.296-.752-1.031 6.193c-.136.86-.215 1.332-.215 1.418 0 .15.05.25.15.3.1.05.215.037.358-.042.258-.15.595-.508 1.003-1.088.551-.76.988-1.611 1.303-2.542.315-.931.48-1.797.472-2.592 0-.93-.214-1.668-.63-2.241-.415-.573-1.03-.86-1.854-.866-.823-.008-1.726.272-2.72.844-1.132.652-2.163 1.554-3.101 2.7-.93 1.145-1.654 2.441-2.162 3.873-.516 1.432-.766 2.793-.76 4.096.008 1.367.266 2.391.781 3.071.516.688 1.26.981 2.234.895.974-.1 2.055-.487 3.236-1.167 1.268-.73 2.327-1.59 3.18-2.57.88-.981 1.517-1.948 1.94-2.893zm-4.39-1.024c.172-.666.266-1.281.258-1.847 0-.759-.164-1.246-.494-1.475-.329-.229-.723-.208-1.195.065-.308.179-.602.436-.874.773-.272.336-.537.78-.795 1.332-.257.544-.458 1.152-.615 1.811-.15.666-.23 1.231-.222 1.704 0 .759.164 1.26.48 1.504.314.236.672.243 1.08.014.273-.158.559-.415.853-.773.3-.358.587-.802.859-1.332.272-.523.494-1.117.666-1.776"/>
        <g fill="#EBF0FF">
            <g>
                <path d="M10.167 12.48c.057.036.122.071.18.114 1.345.888 2.355 2.821 2.247 4.31-.1 1.411-1.174 1.927-2.441 1.19-.058-.037-.122-.073-.18-.115-1.345-.888-2.348-2.814-2.247-4.296.1-1.418 1.174-1.934 2.441-1.203z" transform="translate(210.501 2.864) translate(2.864 5.728)"/>
                <path d="M10.088 7.518c.194.114.387.229.58.358 2.077 1.375 3.981 3.558 5.356 6.136.444.838.4 1.704-.108 1.919-.236.1-.522.05-.816-.115-.336-.193-.666-.544-.91-.995-.951-1.797-2.269-3.308-3.708-4.26-.136-.086-.272-.172-.408-.25-1.661-.96-3.243-1.003-4.296-.101-.243.208-.609.179-.967-.029-.021-.014-.05-.028-.071-.043-.236-.164-.48-.393-.673-.694-.53-.788-.609-1.718-.186-2.084 1.518-1.296 3.809-1.231 6.207.158z" transform="translate(210.501 2.864) translate(2.864 5.728)"/>
                <path d="M10.103 2.22c.308.179.615.365.923.572 2.95 1.955 5.742 5.012 7.848 8.614.48.823.486 1.71.014 1.997-.244.144-.559.1-.874-.086-.308-.179-.615-.486-.852-.895-1.697-2.9-3.938-5.362-6.315-6.938-.25-.164-.494-.322-.744-.458C7.339 3.43 4.704 3.2 2.778 4.418c-.243.15-.573.107-.895-.08-.029-.013-.05-.028-.079-.05-.272-.185-.537-.465-.751-.815C.566 2.656.55 1.754 1.017 1.46 3.4-.043 6.666.243 10.103 2.22z" transform="translate(210.501 2.864) translate(2.864 5.728)"/>
            </g>
            <path d="M12.974 2.778c.415.243.837.501 1.26.78 3.952 2.614 7.697 6.695 10.54 11.492.486.816.493 1.711.028 2.005-.244.15-.559.107-.88-.079-.301-.172-.61-.48-.846-.873-2.441-4.117-5.649-7.611-9.035-9.852-.358-.237-.71-.459-1.067-.66-3.96-2.283-7.754-2.634-10.532-.923-.244.15-.566.108-.888-.079-.029-.014-.058-.035-.086-.05-.272-.179-.537-.465-.752-.823C.236 2.9.222 2.005.687 1.711 3.931-.286 8.356.115 12.974 2.778z" transform="translate(210.501 2.864)"/>
        </g>
        <g>
            <path fill="#7291F7" d="M36.193 15.401c-.214-.208-4.281-4.131-12.071-8.628C20.134 4.468 15.222 2.07 9.487.08 8.577-.093 7.568 0 6.88.4L1.274 3.659c.688-.401 1.705-.487 2.614-.315 5.728 1.99 10.64 4.389 14.628 6.694 7.79 4.497 11.856 8.427 12.071 8.628 1.16 1.203 2.606 3.752 2.6 5.234l-.051 17.692c-.014 3.451-2.513 5.978-5.549 7.733l5.606-3.258c3.029-1.762 5.535-4.282 5.542-7.733l.05-17.692c.015-1.49-1.439-4.031-2.592-5.241z" transform="translate(141.05 121.002)"/>
            <path fill="#8AA4F7" d="M18.516 10.031c7.79 4.496 11.856 8.427 12.071 8.628 1.16 1.203 2.606 3.752 2.6 5.234l-.051 17.692c-.029 8.584-15.473 11.42-16.067 11.083C11.842 46.575.387 29.134.41 22.69l.05-17.692C.464 3.516 2.326 3.05 3.88 3.337c5.735 1.99 10.646 4.389 14.635 6.694z" transform="translate(141.05 121.002)"/>
            <path fill="#FFF" d="M27.974 22.468c.279.164.565.422.816.759.659.902.816 2.026.365 2.513L17.105 38.7c-.265.271-.68.185-1.131-.072-.487-.28-.902-.609-1.174-1.153L8.885 25.69c-.494-1.003-.4-1.948.222-2.17.265-.093.573-.028.888.15.423.244.845.702 1.131 1.275l4.712 9.451 10.962-11.9c.272-.3.723-.286 1.174-.028z" transform="translate(141.05 121.002)"/>
        </g>
        <g>
            <path fill="#BFD0FF" d="M71.198 23.112l-1.253.73-.007 1.49 1.253-.73c.587-.337.88-.788.88-1.232l.008-1.49c-.007.445-.301.888-.88 1.232z" transform="translate(153.938 172.554)"/>
            <path fill="#FFF" d="M71.177 20.628c1.188.687 1.202 1.797.021 2.484l-1.253.73c-.15-.214-.372-.422-.68-.594L46.189 9.924l1.074-.623c1.18-.688 3.093-.688 4.281 0l19.633 11.327z" transform="translate(153.938 172.554)"/>
            <path fill="#FFF" d="M69.265 23.241c.308.172.53.38.68.594.43.63.208 1.375-.673 1.89l-24.644 14.32c-1.182.688-3.093.688-4.282 0L1.31 17.506c-1.188-.687-1.195-1.797-.014-2.477L25.94.709c1.189-.688 3.1-.688 4.29 0l15.959 9.215L69.265 23.24z" transform="translate(153.938 172.554)"/>
            <path fill="#D8E3FF" d="M69.272 25.726l-24.644 14.32c-1.182.687-3.093.687-4.282 0L1.31 17.505c-.594-.344-.895-.795-.895-1.246l-.007 1.49c0 .45.3.902.895 1.245l39.036 22.54c1.188.687 3.1.687 4.282 0l24.644-14.32c.587-.344.888-.788.888-1.239l.007-1.49c0 .452-.3.896-.888 1.24z" transform="translate(153.938 172.554)"/>
            <path fill="#082FAD" d="M25.153 8.735L8.8 18.243 7.303 17.377 23.656 7.876zM25.403 15.523L14.019 22.146 12.53 21.279 23.914 14.663zM31.704 8.406L11.377 20.22 9.881 19.36 30.208 7.547z" transform="translate(153.938 172.554)"/>
        </g>
    </g>
</svg>
