<svg xmlns="http://www.w3.org/2000/svg" width="199" height="224" viewBox="0 0 199 224">
    <g fill="none" opacity=".8">
        <ellipse cx="99.969" cy="58.302" fill="#909AFF" opacity=".4" rx="57.367" ry="99.046" transform="rotate(-89.838 153.331 111.513)"/>
        <g transform="translate(4.587)">
            <g>
                <g>
                    <g fill="#4F4FBF">
                        <g>
                            <path d="M2.954.523l6.34 3.679c-.725-.422-1.725-.358-2.835.275L.119.798C1.22.156 2.23.101 2.954.523z" transform="translate(68.807) translate(8.257 144.954) translate(4.587)"/>
                            <path d="M6.459 4.477L.119.798C.312.688.495.596.68.523l6.34 3.679c-.193.073-.377.174-.56.275" transform="translate(68.807) translate(8.257 144.954) translate(4.587)"/>
                            <path d="M7.01 4.202L.67.522C.826.46.982.405 1.138.359l6.34 3.679c-.148.046-.304.1-.469.165" transform="translate(68.807) translate(8.257 144.954) translate(4.587)"/>
                            <path d="M7.477 4.046L1.137.367c.12-.037.24-.055.35-.073l6.339 3.678c-.11.01-.23.037-.349.074M7.835 3.963L1.495.284c.101-.018.202-.027.294-.027l6.34 3.679-.294.027" transform="translate(68.807) translate(8.257 144.954) translate(4.587)"/>
                            <path d="M8.128 3.936L1.79.256h.266l6.34 3.68h-.267" transform="translate(68.807) translate(8.257 144.954) translate(4.587)"/>
                            <path d="M8.394 3.936L2.055.256l.239.028 6.339 3.68-.239-.028" transform="translate(68.807) translate(8.257 144.954) translate(4.587)"/>
                            <path d="M8.633 3.972L2.293.294c.074.009.147.027.22.055l6.34 3.679c-.073-.028-.147-.046-.22-.056M8.853 4.018L2.513.34c.074.019.148.046.212.074l6.34 3.679c-.065-.028-.138-.055-.212-.074M9.064 4.092L2.724.412c.074.028.138.065.203.102l6.34 3.679c-.065-.037-.13-.074-.203-.101" transform="translate(68.807) translate(8.257 144.954) translate(4.587)"/>
                            <path d="M9.266 4.193L2.926.513c.01 0 .019.01.019.01l6.34 3.679s-.01-.01-.019-.01" transform="translate(68.807) translate(8.257 144.954) translate(4.587)"/>
                        </g>
                        <path d="M8.23 13.927l-6.34-3.68C1.174 9.836.734 8.946.725 7.689c-.01-2.523 1.77-5.605 3.981-6.88l6.34 3.678c-2.202 1.275-3.982 4.358-3.982 6.881 0 1.257.45 2.138 1.165 2.56z" transform="translate(68.807) translate(8.257 144.954)"/>
                        <path d="M8.23 13.927l-6.34-3.68C1.174 9.836.734 8.946.725 7.689c0-.257.018-.514.055-.78l6.34 3.68c-.037.265-.056.522-.056.779 0 1.257.45 2.138 1.165 2.56M7.12 10.587L.78 6.908c.027-.183.055-.367.092-.55l6.339 3.679c-.037.183-.073.367-.092.55M7.211 10.037l-6.34-3.68c.037-.155.074-.302.11-.458l6.34 3.679c-.037.147-.082.303-.11.459" transform="translate(68.807) translate(8.257 144.954)"/>
                        <path d="M7.321 9.578L.981 5.899c.037-.138.083-.266.13-.404l6.339 3.68c-.046.128-.092.265-.129.403" transform="translate(68.807) translate(8.257 144.954)"/>
                        <path d="M7.45 9.174L1.11 5.495c.046-.128.083-.247.138-.376l6.34 3.68c-.056.118-.102.247-.138.375" transform="translate(68.807) translate(8.257 144.954)"/>
                        <path d="M7.578 8.798L1.238 5.12c.046-.119.092-.238.147-.358l6.34 3.68c-.046.119-.101.238-.147.357M7.725 8.44l-6.34-3.679c.046-.119.101-.229.156-.348l6.34 3.679c-.055.11-.101.23-.156.348M7.89 8.092l-6.34-3.68c.056-.11.11-.229.175-.339l6.34 3.68c-.065.11-.12.22-.175.339" transform="translate(68.807) translate(8.257 144.954)"/>
                        <path d="M8.055 7.752l-6.34-3.679c.065-.11.12-.229.184-.34l6.34 3.68c-.056.11-.12.23-.184.34M8.248 7.413l-6.34-3.68c.064-.11.138-.228.202-.339l6.34 3.68c-.074.119-.138.229-.202.339" transform="translate(68.807) translate(8.257 144.954)"/>
                        <path d="M8.45 7.083l-6.34-3.68c.073-.119.156-.229.23-.348l6.339 3.679c-.073.11-.156.23-.23.349" transform="translate(68.807) translate(8.257 144.954)"/>
                        <path d="M8.679 6.734l-6.34-3.679c.083-.12.175-.238.267-.358l6.339 3.68c-.092.118-.174.238-.266.357" transform="translate(68.807) translate(8.257 144.954)"/>
                        <path d="M8.945 6.376l-6.34-3.679c.101-.137.212-.266.322-.394l6.34 3.679c-.111.128-.212.257-.322.394M9.275 5.982l-6.34-3.68c.138-.164.285-.32.441-.467l6.34 3.679c-.156.147-.303.303-.44.468" transform="translate(68.807) translate(8.257 144.954)"/>
                        <path d="M9.706 5.514l-6.339-3.68c.413-.412.862-.76 1.33-1.036l6.34 3.68c-.459.274-.909.623-1.33 1.036" transform="translate(68.807) translate(8.257 144.954)"/>
                    </g>
                    <path fill="#97A4F6" d="M11.046 4.477c2.202-1.266 3.99-.248 4 2.275.009 2.532-1.77 5.615-3.973 6.89-2.201 1.275-4 .248-4-2.284-.018-2.523 1.762-5.606 3.973-6.88z" transform="translate(68.807) translate(8.257 144.954)"/>
                </g>
                <g>
                    <g fill="#4F4FBF">
                        <g>
                            <path d="M3.468.642l6.34 3.68c-.725-.423-1.725-.359-2.836.274L.633.917C1.743.284 2.743.22 3.468.642z" transform="translate(68.807) translate(44.037 144.037) translate(3.67)"/>
                            <path d="M6.972 4.606L.633.926c.193-.11.376-.201.56-.275l6.34 3.68c-.184.073-.368.164-.56.275" transform="translate(68.807) translate(44.037 144.037) translate(3.67)"/>
                            <path d="M7.532 4.33L1.192.651c.157-.064.313-.119.469-.165L8 4.166c-.156.036-.312.09-.468.164" transform="translate(68.807) translate(44.037 144.037) translate(3.67)"/>
                            <path d="M8 4.165L1.66.486c.12-.036.24-.055.35-.073l6.339 3.679c-.11.018-.23.036-.349.073" transform="translate(68.807) translate(44.037 144.037) translate(3.67)"/>
                            <path d="M8.349 4.092L2.009.412c.101-.018.202-.027.294-.027l6.34 3.68c-.093 0-.193.008-.294.027" transform="translate(68.807) translate(44.037 144.037) translate(3.67)"/>
                            <path d="M8.642 4.064L2.302.385h.267l6.34 3.68c-.083-.01-.175-.01-.267 0" transform="translate(68.807) translate(44.037 144.037) translate(3.67)"/>
                            <path d="M8.908 4.064L2.568.385l.24.028 6.339 3.679c-.074-.019-.156-.028-.239-.028" transform="translate(68.807) translate(44.037 144.037) translate(3.67)"/>
                            <path d="M9.147 4.092L2.807.412c.074.01.147.028.22.056l6.34 3.679c-.064-.028-.138-.046-.22-.055M9.376 4.138L3.036.458c.074.02.147.047.212.074l6.34 3.679c-.074-.028-.138-.046-.212-.073" transform="translate(68.807) translate(44.037 144.037) translate(3.67)"/>
                            <path d="M9.587 4.22L3.247.541c.074.028.138.065.203.101l6.339 3.68c-.064-.047-.138-.074-.202-.102" transform="translate(68.807) translate(44.037 144.037) translate(3.67)"/>
                            <path d="M9.789 4.312L3.449.633c.01 0 .019.01.019.01l6.34 3.678c-.01 0-.019 0-.019-.01" transform="translate(68.807) translate(44.037 144.037) translate(3.67)"/>
                        </g>
                        <g>
                            <path d="M7.826 13.128L1.486 9.45C.771 9.037.33 8.147.321 6.89.311 4.367 2.091 1.284 4.303.01l6.34 3.678C8.44 4.963 6.66 8.046 6.66 10.568c.009 1.258.45 2.148 1.165 2.56z" transform="translate(68.807) translate(44.037 144.037) translate(0 .917)"/>
                            <path d="M7.826 13.128L1.486 9.45C.771 9.037.33 8.147.321 6.89c0-.257.018-.514.055-.78l6.34 3.679c-.037.266-.055.523-.055.78.009 1.257.45 2.147 1.165 2.56" transform="translate(68.807) translate(44.037 144.037) translate(0 .917)"/>
                            <path d="M6.716 9.789L.376 6.11c.028-.183.055-.367.092-.55l6.34 3.679c-.037.183-.065.367-.092.55" transform="translate(68.807) translate(44.037 144.037) translate(0 .917)"/>
                            <path d="M6.807 9.239l-6.34-3.68.111-.458 6.34 3.679c-.037.156-.074.303-.11.459M6.927 8.78L.587 5.1c.037-.137.083-.274.129-.403l6.339 3.68c-.055.137-.092.265-.128.403" transform="translate(68.807) translate(44.037 144.037) translate(0 .917)"/>
                            <path d="M7.046 8.376L.706 4.697c.046-.128.083-.247.138-.376L7.184 8l-.138.376" transform="translate(68.807) translate(44.037 144.037) translate(0 .917)"/>
                            <path d="M7.183 8L.844 4.321c.046-.12.092-.238.147-.358l6.34 3.68c-.056.118-.102.238-.148.357" transform="translate(68.807) translate(44.037 144.037) translate(0 .917)"/>
                            <path d="M7.33 7.642L.99 3.963c.047-.119.102-.23.157-.348l6.34 3.679c-.056.119-.11.229-.157.348" transform="translate(68.807) translate(44.037 144.037) translate(0 .917)"/>
                            <path d="M7.486 7.294l-6.34-3.68c.056-.11.11-.229.175-.339l6.34 3.68c-.065.118-.12.228-.175.339M7.66 6.954L1.322 3.275c.064-.11.12-.23.184-.34l6.339 3.68c-.064.119-.128.229-.183.34" transform="translate(68.807) translate(44.037 144.037) translate(0 .917)"/>
                            <path d="M7.844 6.624l-6.34-3.679c.065-.11.138-.23.202-.34l6.34 3.68c-.064.11-.138.22-.202.339M8.055 6.284l-6.34-3.678c.074-.12.157-.23.23-.35l6.34 3.68c-.083.119-.157.23-.23.348" transform="translate(68.807) translate(44.037 144.037) translate(0 .917)"/>
                            <path d="M8.284 5.936l-6.339-3.68c.083-.118.174-.238.266-.357l6.34 3.679c-.092.12-.184.239-.267.358" transform="translate(68.807) translate(44.037 144.037) translate(0 .917)"/>
                            <path d="M8.55 5.578L2.211 1.899c.1-.138.211-.266.321-.394l6.34 3.678c-.11.129-.22.257-.322.395" transform="translate(68.807) translate(44.037 144.037) translate(0 .917)"/>
                            <path d="M8.872 5.183l-6.34-3.678c.138-.166.285-.322.44-.468l6.34 3.679c-.156.156-.303.302-.44.467" transform="translate(68.807) translate(44.037 144.037) translate(0 .917)"/>
                            <path d="M9.312 4.716l-6.34-3.68C3.385.625 3.835.277 4.302 0l6.34 3.679c-.468.275-.917.633-1.33 1.037" transform="translate(68.807) translate(44.037 144.037) translate(0 .917)"/>
                        </g>
                    </g>
                    <path fill="#97A4F6" d="M10.642 4.606c2.202-1.267 3.991-.248 4 2.275.01 2.532-1.77 5.614-3.972 6.89-2.202 1.275-4 .247-4-2.285-.01-2.523 1.77-5.614 3.972-6.88z" transform="translate(68.807) translate(44.037 144.037)"/>
                </g>
                <g>
                    <g fill="#4F4FBF">
                        <path d="M6.945.798l-6.34 3.68c.725-.423 1.725-.359 2.835.274l6.34-3.679C8.67.431 7.67.376 6.945.798z" transform="translate(68.807) translate(46.789 122.018) translate(.917)"/>
                        <path d="M3.44 4.761l6.34-3.678C9.587.973 9.404.88 9.22.807l-6.34 3.68c.184.073.368.164.56.274M2.88 4.477L9.22.798c-.156-.064-.312-.12-.468-.165l-6.34 3.679c.157.046.313.1.469.165" transform="translate(68.807) translate(46.789 122.018) translate(.917)"/>
                        <path d="M2.413 4.321L8.753.642c-.12-.036-.24-.055-.35-.073L2.065 4.248c.11.009.23.036.349.073" transform="translate(68.807) translate(46.789 122.018) translate(.917)"/>
                        <path d="M2.064 4.248l6.34-3.68C8.303.55 8.202.542 8.11.542l-6.34 3.68c.092 0 .193.008.294.027M1.761 4.211L8.101.532h-.266l-6.34 3.679h.266" transform="translate(68.807) translate(46.789 122.018) translate(.917)"/>
                        <path d="M1.505 4.22L7.844.541 7.606.57l-6.34 3.679c.073-.019.156-.028.239-.028M1.257 4.248l6.34-3.68c-.074.01-.147.028-.22.056l-6.34 3.679c.073-.028.146-.046.22-.055M1.037 4.294l6.34-3.68c-.074.019-.148.047-.212.074L.825 4.367c.065-.028.138-.046.212-.073" transform="translate(68.807) translate(46.789 122.018) translate(.917)"/>
                        <path d="M.826 4.367L7.166.688c-.074.028-.138.064-.203.101L.623 4.468c.065-.037.13-.074.203-.101" transform="translate(68.807) translate(46.789 122.018) translate(.917)"/>
                        <path d="M.624 4.468L6.964.789c-.01 0-.019.01-.019.01L.605 4.476c.01 0 .01-.01.019-.01" transform="translate(68.807) translate(46.789 122.018) translate(.917)"/>
                        <g>
                            <path d="M3.495 13.284l6.34-3.678c.715-.413 1.156-1.303 1.165-2.56.01-2.523-1.77-5.606-3.982-6.88L.678 3.843c2.203 1.275 3.983 4.358 3.983 6.88 0 1.258-.45 2.138-1.166 2.56z" transform="translate(68.807) translate(46.789 122.018) translate(.917) translate(2.752 .917)"/>
                            <path d="M3.495 13.284l6.34-3.678c.715-.413 1.156-1.303 1.165-2.56 0-.257-.018-.514-.055-.78l-6.34 3.679c.037.266.056.523.056.78 0 1.257-.45 2.137-1.166 2.56" transform="translate(68.807) translate(46.789 122.018) translate(.917) translate(2.752 .917)"/>
                            <path d="M4.615 9.945l6.34-3.679c-.028-.183-.056-.367-.093-.55l-6.34 3.678c.038.184.065.367.093.551M4.514 9.394l6.34-3.678c-.037-.156-.074-.303-.11-.46l-6.34 3.68c.046.156.082.303.11.458" transform="translate(68.807) translate(46.789 122.018) translate(.917) translate(2.752 .917)"/>
                            <path d="M4.404 8.936l6.34-3.68c-.038-.137-.083-.274-.12-.403l-6.34 3.68c.046.128.083.265.12.403M4.284 8.532l6.34-3.679c-.046-.128-.083-.247-.138-.376l-6.34 3.679c.047.12.093.248.138.376" transform="translate(68.807) translate(46.789 122.018) translate(.917) translate(2.752 .917)"/>
                            <path d="M4.147 8.156l6.34-3.679c-.047-.12-.093-.238-.148-.358L4 7.8c.055.118.1.238.147.357" transform="translate(68.807) translate(46.789 122.018) translate(.917) translate(2.752 .917)"/>
                            <path d="M4 7.798l6.34-3.679c-.046-.119-.101-.23-.157-.348L3.844 7.45c.055.119.11.229.156.348" transform="translate(68.807) translate(46.789 122.018) translate(.917) translate(2.752 .917)"/>
                            <path d="M3.844 7.45l6.34-3.68c-.056-.11-.11-.229-.175-.339l-6.34 3.68c.065.11.12.228.175.339" transform="translate(68.807) translate(46.789 122.018) translate(.917) translate(2.752 .917)"/>
                            <path d="M3.67 7.11l6.34-3.679c-.065-.11-.12-.23-.184-.34l-6.34 3.68c.064.119.12.229.184.34" transform="translate(68.807) translate(46.789 122.018) translate(.917) translate(2.752 .917)"/>
                            <path d="M3.486 6.77l6.34-3.678c-.065-.11-.138-.23-.202-.34l-6.34 3.68c.065.118.129.229.202.339" transform="translate(68.807) translate(46.789 122.018) translate(.917) translate(2.752 .917)"/>
                            <path d="M3.275 6.44l6.34-3.679c-.074-.119-.156-.229-.23-.348l-6.34 3.679c.083.11.157.23.23.348" transform="translate(68.807) translate(46.789 122.018) translate(.917) translate(2.752 .917)"/>
                            <path d="M3.046 6.092l6.34-3.68c-.083-.118-.175-.238-.267-.357L2.78 5.734c.093.12.184.238.267.358" transform="translate(68.807) translate(46.789 122.018) translate(.917) translate(2.752 .917)"/>
                            <path d="M2.78 5.734l6.34-3.679c-.102-.138-.212-.266-.322-.394l-6.34 3.678c.11.129.22.257.322.395" transform="translate(68.807) translate(46.789 122.018) translate(.917) translate(2.752 .917)"/>
                            <path d="M2.459 5.34l6.34-3.68c-.138-.165-.285-.32-.441-.467l-6.34 3.679c.156.146.294.302.44.467" transform="translate(68.807) translate(46.789 122.018) translate(.917) translate(2.752 .917)"/>
                            <path d="M2.018 4.872l6.34-3.68C7.945.78 7.495.433 7.028.157L.688 3.835c.468.275.918.624 1.33 1.037" transform="translate(68.807) translate(46.789 122.018) translate(.917) translate(2.752 .917)"/>
                        </g>
                    </g>
                    <path fill="#97A4F6" d="M4.358 4.761c-2.202-1.266-3.991-.247-4 2.276-.01 2.532 1.77 5.614 3.972 6.89 2.202 1.275 4 .247 4-2.285.01-2.532-1.77-5.614-3.972-6.88z" transform="translate(68.807) translate(46.789 122.018)"/>
                </g>
                <g>
                    <g fill="#4F4FBF">
                        <path d="M7.183.954L.844 4.633c.725-.422 1.725-.358 2.835.275l6.34-3.679C8.916.587 7.908.532 7.182.954z" transform="translate(68.807) translate(9.174 123.853) translate(.917)"/>
                        <path d="M3.688 4.908l6.34-3.679c-.193-.11-.377-.201-.56-.275l-6.34 3.679c.184.073.367.165.56.275M3.128 4.633L9.468.954C9.312.89 9.156.834 9 .79L2.66 4.468c.147.046.312.1.468.165" transform="translate(68.807) translate(9.174 123.853) translate(.917)"/>
                        <path d="M2.66 4.468L9 .789C8.88.752 8.761.734 8.651.716l-6.34 3.678c.111.019.23.046.35.074" transform="translate(68.807) translate(9.174 123.853) translate(.917)"/>
                        <path d="M2.312 4.394L8.652.716C8.55.697 8.45.688 8.357.688l-6.34 3.679c.092 0 .193.018.294.027M2.01 4.367L8.348.688h-.266l-6.34 3.679h.266" transform="translate(68.807) translate(9.174 123.853) translate(.917)"/>
                        <path d="M1.743 4.367L8.083.688c-.083.01-.166.018-.239.028l-6.34 3.678.24-.027" transform="translate(68.807) translate(9.174 123.853) translate(.917)"/>
                        <path d="M1.505 4.394L7.844.716c-.073.009-.147.027-.22.055L1.284 4.45l.22-.056M1.284 4.45L7.624.77c-.074.019-.147.047-.211.074l-6.34 3.679c.065-.028.138-.055.211-.073" transform="translate(68.807) translate(9.174 123.853) translate(.917)"/>
                        <path d="M1.073 4.523L7.413.844c-.074.028-.138.064-.202.101L.871 4.624c.065-.037.129-.074.202-.101" transform="translate(68.807) translate(9.174 123.853) translate(.917)"/>
                        <path d="M.872 4.624L7.21.945c-.01 0-.018.01-.018.01L.853 4.632s.01-.01.019-.01" transform="translate(68.807) translate(9.174 123.853) translate(.917)"/>
                        <g>
                            <path d="M2.826 13.431l6.34-3.679c.715-.413 1.155-1.302 1.164-2.56.01-2.522-1.77-5.605-3.981-6.88L.009 3.99c2.202 1.275 3.982 4.358 3.982 6.88 0 1.267-.45 2.147-1.165 2.56z" transform="translate(68.807) translate(9.174 123.853) translate(.917) translate(3.67 .917)"/>
                            <path d="M2.826 13.431l6.34-3.679c.715-.413 1.155-1.302 1.164-2.56 0-.256-.018-.513-.055-.78l-6.34 3.68c.037.266.056.523.056.78 0 1.266-.45 2.146-1.165 2.56" transform="translate(68.807) translate(9.174 123.853) translate(.917) translate(3.67 .917)"/>
                            <path d="M3.945 10.1l6.34-3.678c-.028-.183-.056-.367-.092-.55L3.853 9.55c.037.184.064.367.092.55M3.844 9.541l6.34-3.679c-.037-.156-.074-.302-.11-.458l-6.34 3.679c.046.156.083.311.11.458" transform="translate(68.807) translate(9.174 123.853) translate(.917) translate(3.67 .917)"/>
                            <path d="M3.734 9.092l6.34-3.68c-.037-.137-.083-.274-.129-.403l-6.34 3.68c.046.128.092.265.129.403M3.615 8.679L9.955 5c-.047-.128-.083-.248-.138-.376l-6.34 3.679c.046.128.092.257.138.376" transform="translate(68.807) translate(9.174 123.853) translate(.917) translate(3.67 .917)"/>
                            <path d="M3.477 8.303l6.34-3.68c-.046-.118-.092-.238-.147-.357L3.33 7.945c.055.12.101.238.147.358M3.33 7.945l6.34-3.679c-.046-.12-.101-.23-.156-.349l-6.34 3.68c.055.119.101.238.156.348" transform="translate(68.807) translate(9.174 123.853) translate(.917) translate(3.67 .917)"/>
                            <path d="M3.174 7.606l6.34-3.68c-.055-.11-.11-.229-.175-.339L3 7.267c.055.11.12.22.174.339" transform="translate(68.807) translate(9.174 123.853) translate(.917) translate(3.67 .917)"/>
                            <path d="M3 7.266l6.34-3.679c-.065-.11-.12-.23-.184-.34l-6.34 3.68c.065.11.12.22.184.34" transform="translate(68.807) translate(9.174 123.853) translate(.917) translate(3.67 .917)"/>
                            <path d="M2.817 6.927l6.339-3.68c-.064-.11-.138-.229-.202-.339l-6.34 3.68c.065.11.13.229.203.339M2.606 6.587l6.339-3.679c-.073-.119-.156-.23-.23-.348L2.377 6.239c.083.119.156.238.23.348" transform="translate(68.807) translate(9.174 123.853) translate(.917) translate(3.67 .917)"/>
                            <path d="M2.376 6.248l6.34-3.68c-.083-.118-.175-.238-.266-.357L2.11 5.89c.092.11.184.23.266.358" transform="translate(68.807) translate(9.174 123.853) translate(.917) translate(3.67 .917)"/>
                            <path d="M2.11 5.89L8.45 2.21c-.101-.138-.211-.266-.322-.394L1.79 5.495c.11.12.22.257.321.395" transform="translate(68.807) translate(9.174 123.853) translate(.917) translate(3.67 .917)"/>
                            <path d="M1.789 5.495l6.34-3.678c-.138-.166-.285-.322-.44-.468l-6.34 3.679c.146.146.293.302.44.467M1.349 5.028l6.34-3.68C7.274.937 6.825.589 6.357.313L.018 3.99c.468.275.918.624 1.33 1.037" transform="translate(68.807) translate(9.174 123.853) translate(.917) translate(3.67 .917)"/>
                        </g>
                    </g>
                    <path fill="#97A4F6" d="M4.606 4.908c-2.202-1.266-3.991-.247-4 2.275-.01 2.533 1.77 5.615 3.972 6.89 2.202 1.276 4 .248 4-2.284.01-2.523-1.77-5.606-3.972-6.88z" transform="translate(68.807) translate(9.174 123.853)"/>
                </g>
                <g>
                    <g fill="#382B99">
                        <g>
                            <path d="M2.01.89L2 3.092C2 3.89 1.477 4.679.44 5.284l.01-2.201C1.486 2.477 2.01 1.679 2.01.89z" transform="translate(68.807) translate(10.092 120.183) translate(0 2.752) translate(46.789)"/>
                            <path d="M2.01.89L2 3.092v.046L2.01.936V.89" transform="translate(68.807) translate(10.092 120.183) translate(0 2.752) translate(46.789)"/>
                            <path d="M2.01.936L2 3.138c0 .1-.018.21-.037.312l.01-2.202c.018-.11.036-.211.036-.312" transform="translate(68.807) translate(10.092 120.183) translate(0 2.752) translate(46.789)"/>
                            <path d="M1.972 1.248L1.963 3.45c-.018.1-.046.201-.091.302L1.88 1.55c.046-.1.073-.201.091-.302" transform="translate(68.807) translate(10.092 120.183) translate(0 2.752) translate(46.789)"/>
                            <path d="M1.89 1.55l-.01 2.202c-.036.101-.082.211-.146.312l.01-2.202c.054-.11.1-.21.146-.312M1.743 1.862l-.01 2.202c-.063.11-.137.22-.22.321l.01-2.202c.083-.11.156-.22.22-.32M1.523 2.183l-.01 2.202c-.1.12-.21.239-.33.358l.01-2.202c.128-.119.238-.238.33-.358" transform="translate(68.807) translate(10.092 120.183) translate(0 2.752) translate(46.789)"/>
                            <path d="M1.193 2.541l-.01 2.202c-.192.174-.412.349-.678.496l.009-2.202c.266-.156.486-.321.679-.496M.514 3.037l-.01 2.202c-.018.009-.045.027-.064.036l.01-2.202c.027-.009.045-.018.064-.036" transform="translate(68.807) translate(10.092 120.183) translate(0 2.752) translate(46.789)"/>
                        </g>
                        <path d="M.495 3.046L.505.844c0 .807.523 1.615 1.587 2.23l-.01 2.201C1.029 4.661.496 3.853.496 3.045z" transform="translate(68.807) translate(10.092 120.183) translate(0 2.752)"/>
                        <path d="M2.092 3.073l-.01 2.202C1.019 4.661.496 3.853.496 3.045L.505.845c-.01.817.523 1.624 1.587 2.23M47.239 3.073L47.239 5.275 32.339 13.927 32.349 11.734z" transform="translate(68.807) translate(10.092 120.183) translate(0 2.752)"/>
                        <path d="M17.083 11.734L17.073 13.927 2.083 5.275 2.092 3.073zM39.734 24.807L39.725 27.009 24.734 18.349 24.743 16.156z" transform="translate(68.807) translate(10.092 120.183) translate(0 2.752)"/>
                        <path d="M24.743 16.156L24.734 18.349 9.844 27.009 9.844 24.807z" transform="translate(68.807) translate(10.092 120.183) translate(0 2.752)"/>
                        <g>
                            <path d="M9.468.587l-.01 2.202c0 .798-.522 1.596-1.559 2.193-2.092 1.22-5.523 1.22-7.624 0l.01-2.202c2.1 1.21 5.532 1.21 7.623 0 1.037-.597 1.56-1.395 1.56-2.193z" transform="translate(68.807) translate(10.092 120.183) translate(0 2.752) translate(39.45 22.018)"/>
                            <path d="M9.468.587l-.01 2.202v.046l.01-2.202V.587" transform="translate(68.807) translate(10.092 120.183) translate(0 2.752) translate(39.45 22.018)"/>
                            <path d="M9.468.633l-.01 2.202c0 .1-.018.21-.036.312l.01-2.202c.027-.101.036-.202.036-.312M9.431.945l-.009 2.202c-.018.1-.046.202-.092.303l.01-2.202c.045-.092.073-.193.091-.303" transform="translate(68.807) translate(10.092 120.183) translate(0 2.752) translate(39.45 22.018)"/>
                            <path d="M9.349 1.257l-.01 2.202c-.036.1-.082.21-.146.312l.009-2.202c.055-.11.11-.211.147-.312M9.202 1.56l-.01 2.201c-.064.11-.137.22-.22.322l.01-2.202c.091-.101.156-.211.22-.321" transform="translate(68.807) translate(10.092 120.183) translate(0 2.752) translate(39.45 22.018)"/>
                            <path d="M8.982 1.89l-.01 2.202c-.1.119-.21.247-.33.358l.01-2.202c.128-.12.238-.239.33-.358" transform="translate(68.807) translate(10.092 120.183) translate(0 2.752) translate(39.45 22.018)"/>
                            <path d="M8.651 2.248L8.642 4.45c-.192.174-.422.348-.679.504l.01-2.202c.256-.165.486-.33.678-.504" transform="translate(68.807) translate(10.092 120.183) translate(0 2.752) translate(39.45 22.018)"/>
                            <path d="M7.972 2.752l-.009 2.202c-.018.01-.046.028-.064.037-.358.21-.752.376-1.174.514l.009-2.202c.422-.138.816-.312 1.174-.514.019-.018.046-.028.064-.037M6.734 3.303l-.01 2.202c-.33.11-.669.192-1.018.256l.01-2.201c.348-.065.688-.147 1.018-.257M5.706 3.56L5.697 5.76c-.23.037-.458.074-.688.092l.01-2.202c.238-.018.467-.055.687-.091" transform="translate(68.807) translate(10.092 120.183) translate(0 2.752) translate(39.45 22.018)"/>
                            <path d="M5.018 3.651L5.01 5.853c-.202.019-.403.037-.605.037l.009-2.202c.202 0 .404-.018.605-.037M4.413 3.697L4.403 5.9c-.183.01-.366.01-.559 0l.01-2.202h.559" transform="translate(68.807) translate(10.092 120.183) translate(0 2.752) translate(39.45 22.018)"/>
                            <path d="M3.862 3.697L3.853 5.9c-.174 0-.358-.018-.532-.027l.01-2.202.531.027M3.321 3.67l-.01 2.202-.522-.055.01-2.202.522.055" transform="translate(68.807) translate(10.092 120.183) translate(0 2.752) translate(39.45 22.018)"/>
                            <path d="M2.798 3.606L2.79 5.807c-.183-.027-.358-.055-.532-.091l.01-2.202c.173.036.348.073.531.092M2.266 3.514l-.01 2.202c-.192-.037-.375-.083-.559-.138l.01-2.202c.174.055.366.101.56.138M1.697 3.376l-.009 2.202c-.22-.064-.44-.138-.651-.22l.009-2.202c.21.083.431.156.651.22" transform="translate(68.807) translate(10.092 120.183) translate(0 2.752) translate(39.45 22.018)"/>
                            <path d="M1.046 3.156l-.01 2.202c-.275-.11-.531-.23-.77-.367l.01-2.202c.247.138.504.266.77.367" transform="translate(68.807) translate(10.092 120.183) translate(0 2.752) translate(39.45 22.018)"/>
                        </g>
                        <g>
                            <path d="M.615 2.761L.624.56c0 .807.523 1.614 1.587 2.229 2.11 1.22 5.541 1.22 7.633 0l-.01 2.202c-2.09 1.22-5.522 1.22-7.632 0C1.147 4.376.615 3.569.615 2.76z" transform="translate(68.807) translate(10.092 120.183) translate(0 2.752) translate(0 22.018)"/>
                            <path d="M9.844 2.789l-.01 2.202c-.357.21-.751.376-1.173.514l.009-2.202c.422-.138.816-.303 1.174-.514M8.67 3.303l-.01 2.202c-.33.11-.67.192-1.018.256l.01-2.201c.348-.065.697-.147 1.018-.257M7.651 3.56L7.642 5.76c-.23.037-.459.074-.688.092l.01-2.202c.229-.018.458-.045.687-.091M6.954 3.66l-.009 2.202c-.202.019-.404.037-.606.037l.01-2.202c.21-.009.412-.018.605-.036" transform="translate(68.807) translate(10.092 120.183) translate(0 2.752) translate(0 22.018)"/>
                            <path d="M6.358 3.697L6.348 5.9c-.183.01-.366.01-.559 0l.01-2.202c.183.01.375.01.559 0" transform="translate(68.807) translate(10.092 120.183) translate(0 2.752) translate(0 22.018)"/>
                            <path d="M5.798 3.697L5.79 5.9c-.174 0-.358-.018-.532-.027l.01-2.202c.173.018.357.027.531.027M5.266 3.67l-.01 2.202c-.173-.019-.357-.037-.531-.055l.009-2.202c.174.018.358.046.532.055M4.734 3.615l-.01 2.202c-.183-.028-.357-.056-.54-.092l.009-2.202c.183.037.367.064.54.092" transform="translate(68.807) translate(10.092 120.183) translate(0 2.752) translate(0 22.018)"/>
                            <path d="M4.202 3.523l-.01 2.202c-.192-.037-.375-.083-.559-.138l.01-2.202c.183.046.366.092.559.138M3.633 3.376l-.01 2.202c-.22-.064-.44-.138-.65-.22l.009-2.202c.21.083.43.165.651.22" transform="translate(68.807) translate(10.092 120.183) translate(0 2.752) translate(0 22.018)"/>
                            <path d="M2.982 3.156l-.01 2.202c-.275-.11-.532-.23-.77-.367C1.138 4.376.615 3.569.615 2.76L.624.56c0 .807.523 1.614 1.587 2.229.239.138.505.266.77.367" transform="translate(68.807) translate(10.092 120.183) translate(0 2.752) translate(0 22.018)"/>
                        </g>
                    </g>
                    <path fill="#EBEFFF" d="M47.211 1.413c2.11 1.22 2.12 3.202.028 4.422l-14.89 8.651 14.99 8.652c2.101 1.21 2.11 3.201.019 4.422-2.092 1.22-5.523 1.22-7.624 0l-14.99-8.652-14.89 8.652c-2.093 1.22-5.524 1.22-7.634 0-2.11-1.22-2.12-3.202-.027-4.422l14.89-8.652L2.092 5.835c-2.11-1.22-2.12-3.202-.028-4.422 2.092-1.22 5.523-1.22 7.633 0l14.991 8.651 14.89-8.651c2.092-1.22 5.523-1.22 7.633 0z" transform="translate(68.807) translate(10.092 120.183)"/>
                </g>
                <g>
                    <g fill="#4F4FBF">
                        <path d="M17.789.303l-.018 5.862c0 1.275-.844 2.56-2.514 3.532-3.367 1.954-8.89 1.964-12.275 0C1.275 8.716.422 7.413.432 6.12L.45.257c0 1.293.844 2.596 2.55 3.578 3.385 1.954 8.908 1.954 12.275 0 1.68-.973 2.514-2.248 2.514-3.532z" transform="translate(68.807) translate(25.688 122.018) translate(0 5.505)"/>
                        <path d="M17.789.303l-.018 5.862v.074l.018-5.863V.303" transform="translate(68.807) translate(25.688 122.018) translate(0 5.505)"/>
                        <path d="M17.789.385l-.018 5.863c-.01.165-.028.33-.055.504L17.734.89c.027-.174.046-.34.055-.505M17.734.88l-.018 5.863c-.037.165-.083.33-.138.486l.018-5.862c.055-.156.101-.321.138-.486M17.587 1.376L17.57 7.24c-.064.165-.138.33-.23.495l.019-5.862c.092-.166.174-.33.23-.496M17.358 1.872l-.019 5.862c-.1.174-.22.349-.348.523l.018-5.863c.138-.174.248-.348.349-.522" transform="translate(68.807) translate(25.688 122.018) translate(0 5.505)"/>
                        <path d="M17.01 2.385l-.02 5.863c-.155.202-.33.394-.54.578l.018-5.863c.21-.183.385-.376.541-.578" transform="translate(68.807) translate(25.688 122.018) translate(0 5.505)"/>
                        <path d="M16.477 2.963l-.018 5.863c-.312.284-.67.56-1.092.807l.018-5.862c.413-.248.78-.523 1.092-.808M15.385 3.77l-.018 5.863c-.037.018-.073.046-.1.064-.579.33-1.212.615-1.89.835l.017-5.862c.68-.22 1.312-.496 1.89-.835.028-.018.065-.046.101-.064M13.385 4.66l-.018 5.863c-.523.174-1.083.303-1.642.413l.018-5.863c.569-.1 1.12-.238 1.642-.412" transform="translate(68.807) translate(25.688 122.018) translate(0 5.505)"/>
                        <path d="M11.743 5.073l-.018 5.863c-.367.064-.734.119-1.11.156l.018-5.863c.376-.036.743-.091 1.11-.156" transform="translate(68.807) translate(25.688 122.018) translate(0 5.505)"/>
                        <path d="M10.633 5.23l-.018 5.862c-.321.027-.643.055-.973.064l.019-5.862c.32-.01.65-.037.972-.065" transform="translate(68.807) translate(25.688 122.018) translate(0 5.505)"/>
                        <path d="M9.66 5.294l-.018 5.862c-.293.01-.596.01-.899 0l.018-5.862c.303.009.606.009.9 0" transform="translate(68.807) translate(25.688 122.018) translate(0 5.505)"/>
                        <path d="M8.761 5.294l-.018 5.862c-.284-.01-.578-.018-.862-.046l.018-5.862c.294.027.578.046.862.046" transform="translate(68.807) translate(25.688 122.018) translate(0 5.505)"/>
                        <path d="M7.908 5.248L7.89 11.11c-.284-.027-.569-.055-.844-.092l.018-5.862c.275.037.56.073.844.092M7.055 5.156l-.018 5.862c-.294-.036-.578-.091-.863-.146l.019-5.863c.284.055.578.11.862.147" transform="translate(68.807) translate(25.688 122.018) translate(0 5.505)"/>
                        <path d="M6.193 5.01l-.019 5.862c-.302-.065-.605-.138-.908-.22l.018-5.863c.303.083.606.156.909.22" transform="translate(68.807) translate(25.688 122.018) translate(0 5.505)"/>
                        <path d="M5.294 4.789l-.019 5.862c-.358-.1-.715-.22-1.046-.357l.019-5.863c.33.138.679.248 1.046.358M4.239 4.431l-.019 5.863c-.44-.175-.853-.367-1.238-.597C1.275 8.716.422 7.413.432 6.12L.45.257c0 1.293.844 2.596 2.55 3.578.394.23.807.422 1.239.596" transform="translate(68.807) translate(25.688 122.018) translate(0 5.505)"/>
                    </g>
                    <path fill="#EBEFFF" d="M15.239 2.23c3.385 1.953 3.403 5.146.036 7.11-3.367 1.954-8.89 1.963-12.275 0-3.385-1.955-3.404-5.157-.037-7.11C6.33.274 11.853.274 15.24 2.23z" transform="translate(68.807) translate(25.688 122.018)"/>
                </g>
                <g fill="#D0E5F7">
                    <g>
                        <path d="M9.817.798l-.129 44.688c0 .67-.44 1.34-1.321 1.844-1.77 1.028-4.642 1.028-6.422 0-.9-.513-1.34-1.192-1.34-1.871L.735.77c0 .679.45 1.357 1.34 1.871 1.78 1.028 4.65 1.028 6.421 0 .881-.504 1.322-1.174 1.322-1.844z" transform="translate(68.807) translate(29.358 79.817) translate(0 2.752)"/>
                        <path d="M9.817.798l-.129 44.688v.037L9.817.835V.798" transform="translate(68.807) translate(29.358 79.817) translate(0 2.752)"/>
                        <path d="M9.817.835l-.129 44.688c0 .083-.01.174-.027.257l.128-44.688c.018-.083.028-.165.028-.257" transform="translate(68.807) translate(29.358 79.817) translate(0 2.752)"/>
                        <path d="M9.789 1.1L9.661 45.79c-.019.083-.046.174-.074.257l.129-44.688c.027-.092.055-.175.073-.257M9.716 1.358l-.129 44.688c-.037.082-.073.174-.12.257l.13-44.688c.045-.092.082-.175.119-.257M9.587 1.615L9.46 46.303c-.055.091-.11.183-.184.275L9.404 1.89c.073-.092.137-.184.183-.275" transform="translate(68.807) translate(29.358 79.817) translate(0 2.752)"/>
                        <path d="M9.413 1.88L9.284 46.57c-.082.1-.174.202-.284.303l.128-44.689c.101-.091.202-.192.285-.302M9.128 2.183L9 46.872c-.165.146-.358.293-.578.422L8.55 2.606c.22-.129.413-.267.578-.423" transform="translate(68.807) translate(29.358 79.817) translate(0 2.752)"/>
                        <path d="M8.55 2.615l-.128 44.688c-.018.009-.037.018-.055.036-.303.175-.642.322-.99.44l.128-44.687c.357-.12.688-.257.99-.44.019-.019.037-.028.055-.037M7.505 3.083L7.376 47.77c-.275.091-.56.156-.862.21l.128-44.687c.294-.055.587-.12.863-.211" transform="translate(68.807) translate(29.358 79.817) translate(0 2.752)"/>
                        <path d="M6.642 3.294l-.128 44.688c-.193.036-.386.064-.578.082l.128-44.688c.193-.018.386-.046.578-.082" transform="translate(68.807) translate(29.358 79.817) translate(0 2.752)"/>
                        <path d="M6.064 3.376l-.128 44.688c-.165.019-.34.028-.505.037L5.56 3.413c.174-.01.34-.019.504-.037M5.56 3.413L5.43 48.1c-.156.01-.312.01-.468 0l.129-44.688h.468" transform="translate(68.807) translate(29.358 79.817) translate(0 2.752)"/>
                        <path d="M5.092 3.413L4.963 48.1c-.146 0-.302-.01-.45-.028l.13-44.688c.155.019.302.019.449.028" transform="translate(68.807) translate(29.358 79.817) translate(0 2.752)"/>
                        <path d="M4.651 3.385l-.128 44.688c-.147-.009-.294-.027-.44-.045L4.21 3.339c.138.019.294.037.44.046" transform="translate(68.807) translate(29.358 79.817) translate(0 2.752)"/>
                        <path d="M4.211 3.34l-.128 44.688c-.156-.019-.303-.046-.45-.083l.128-44.688c.147.037.294.064.45.082M3.752 3.257l-.128 44.688c-.165-.037-.321-.073-.477-.12l.128-44.687c.165.055.321.091.477.119" transform="translate(68.807) translate(29.358 79.817) translate(0 2.752)"/>
                        <path d="M3.284 3.147l-.128 44.688c-.193-.055-.376-.12-.55-.184l.128-44.688c.174.065.358.129.55.184M2.734 2.954l-.128 44.688c-.23-.092-.45-.192-.652-.312-.899-.513-1.34-1.192-1.34-1.871L.745.77c0 .679.449 1.357 1.339 1.871.201.12.422.22.65.312" transform="translate(68.807) translate(29.358 79.817) translate(0 2.752)"/>
                    </g>
                    <path d="M8.477 1.679c1.78 1.027 1.79 2.688.018 3.715-1.77 1.028-4.642 1.028-6.422 0C.293 4.367.284 2.706 2.055 1.68 3.825.65 6.697.65 8.477 1.679z" transform="translate(68.807) translate(29.358 79.817)"/>
                </g>
                <g fill="#382B99">
                    <path d="M.211 4.578L.221.183c-.01 2.505 1.641 5.01 4.953 6.918l-.009 4.394C1.862 9.587.211 7.083.211 4.578z" transform="translate(68.807) translate(0 77.064)"/>
                    <path d="M5.183 7.1l-.009 4.395C1.862 9.587.211 7.083.22 4.578L.23.183C.22 2.68 1.871 5.193 5.182 7.101" transform="translate(68.807) translate(0 77.064)"/>
                    <g>
                        <path d="M5.606.468l-.01 4.394c-.009 2.202-1.45 4.404-4.34 6.083l.01-4.395c2.88-1.688 4.33-3.88 4.34-6.082z" transform="translate(68.807) translate(0 77.064) translate(57.798 2.752)"/>
                        <path d="M5.606.468l-.01 4.394v.129l.01-4.395V.468" transform="translate(68.807) translate(0 77.064) translate(57.798 2.752)"/>
                        <path d="M5.606.596l-.01 4.395c-.009.284-.036.569-.1.853l.009-4.394c.055-.285.091-.57.1-.854M5.505 1.45l-.01 4.394c-.055.284-.137.56-.238.844l.01-4.394c.1-.276.183-.56.238-.844M5.266 2.294l-.01 4.394c-.11.284-.238.569-.394.853l.01-4.394c.146-.285.284-.569.394-.853M4.862 3.147L4.853 7.54c-.174.303-.367.597-.605.89l.009-4.394c.238-.294.44-.587.605-.89" transform="translate(68.807) translate(0 77.064) translate(57.798 2.752)"/>
                        <path d="M4.266 4.037l-.01 4.394c-.265.34-.577.67-.926 1l.01-4.394c.348-.321.65-.66.926-1M3.34 5.037L3.33 9.43c-.532.496-1.165.963-1.89 1.404l.01-4.395c.724-.44 1.348-.908 1.89-1.403M1.44 6.431l-.009 4.395c-.064.036-.12.073-.183.11l.009-4.395c.064-.036.128-.073.183-.11" transform="translate(68.807) translate(0 77.064) translate(57.798 2.752)"/>
                    </g>
                    <path d="M59.064 9.294L59.046 13.697 45.917 21.321 45.927 16.927zM22.202 16.927L22.193 21.321 5.165 11.495 5.183 7.101z" transform="translate(68.807) translate(0 77.064)"/>
                    <g>
                        <path d="M23.908.413L23.9 4.807c-6.532 3.799-17.156 3.799-23.725 0L.184.413C6.76 4.21 17.375 4.21 23.907.413z" transform="translate(68.807) translate(0 77.064) translate(22.018 16.514)"/>
                        <path d="M23.908.413L23.9 4.807C22.78 5.46 21.541 6 20.22 6.422l.01-4.394c1.32-.422 2.559-.964 3.678-1.615" transform="translate(68.807) translate(0 77.064) translate(22.018 16.514)"/>
                        <path d="M20.23 2.028l-.01 4.394c-1.018.33-2.082.596-3.174.789l.009-4.394c1.092-.193 2.165-.46 3.174-.79M17.055 2.817l-.01 4.394c-.706.128-1.421.23-2.137.294l.01-4.395c.724-.064 1.44-.165 2.137-.293" transform="translate(68.807) translate(0 77.064) translate(22.018 16.514)"/>
                        <path d="M14.917 3.12l-.009 4.394c-.614.064-1.238.1-1.862.128l.009-4.394c.624-.028 1.248-.065 1.862-.129M13.055 3.239l-.01 4.394c-.568.018-1.146.018-1.715.01l.01-4.395c.568.018 1.146.018 1.715-.01M11.34 3.248l-.01 4.394c-.55-.009-1.1-.046-1.651-.092l.01-4.394c.55.055 1.1.083 1.65.092M9.688 3.165l-.01 4.395c-.55-.046-1.09-.11-1.632-.184l.009-4.394c.541.073 1.083.137 1.633.183M8.055 2.982l-.01 4.394c-.559-.082-1.118-.174-1.66-.293l.01-4.395c.54.12 1.1.211 1.66.294M6.394 2.688l-.009 4.395c-.596-.12-1.174-.266-1.752-.432l.01-4.394c.568.165 1.155.312 1.751.431M4.642 2.257L4.633 6.65c-.697-.201-1.385-.43-2.037-.688l.01-4.394c.66.266 1.339.495 2.036.688" transform="translate(68.807) translate(0 77.064) translate(22.018 16.514)"/>
                        <path d="M2.606 1.569l-.01 4.394C1.743 5.623.936 5.24.174 4.798L.184.404c.761.45 1.568.835 2.422 1.165" transform="translate(68.807) translate(0 77.064) translate(22.018 16.514)"/>
                    </g>
                </g>
                <g fill="#382B99">
                    <g>
                        <path d="M4.835 11.34L.229 13.155C3.826 11.734 6.486 8.018 7.202 2.56L11.807.743c-.715 5.459-3.376 9.184-6.972 10.596z" transform="translate(68.807) translate(39.45) translate(24.77 59.633)"/>
                        <path d="M7.202 2.56L11.807.743c0 .018 0 .028-.009.046L7.193 2.606c.009-.01.009-.028.009-.046" transform="translate(68.807) translate(39.45) translate(24.77 59.633)"/>
                        <path d="M7.193 2.606L11.798.789c-.037.257-.073.514-.12.77L7.074 3.377c.046-.248.092-.504.12-.77M7.083 3.376l4.605-1.816c-.046.257-.092.504-.147.752L6.936 4.128c.055-.247.1-.495.147-.752M6.936 4.128l4.605-1.816c-.055.257-.119.514-.183.761L6.752 4.89c.065-.257.129-.505.184-.762" transform="translate(68.807) translate(39.45) translate(24.77 59.633)"/>
                        <path d="M6.752 4.88l4.606-1.816c-.064.257-.138.514-.211.762L6.54 5.642c.074-.248.147-.495.211-.761M6.541 5.642l4.606-1.816c-.083.266-.165.513-.257.77L6.284 6.413c.092-.248.175-.505.257-.77" transform="translate(68.807) translate(39.45) translate(24.77 59.633)"/>
                        <path d="M6.284 6.413l4.606-1.817c-.101.276-.211.55-.321.808L5.963 7.22c.11-.257.22-.532.321-.807" transform="translate(68.807) translate(39.45) translate(24.77 59.633)"/>
                        <path d="M5.963 7.22l4.606-1.816c-.129.284-.257.568-.395.835L5.57 8.055c.137-.266.266-.541.394-.835M5.569 8.064l4.605-1.816c-.165.312-.33.614-.513.908L5.055 8.972c.184-.293.349-.596.514-.908" transform="translate(68.807) translate(39.45) translate(24.77 59.633)"/>
                        <path d="M5.055 8.972l4.606-1.816c-.239.385-.487.743-.753 1.083l-4.605 1.816c.266-.34.523-.706.752-1.083M4.312 10.055l4.605-1.816c-1.128 1.44-2.513 2.495-4.073 3.11L.239 13.165c1.56-.624 2.944-1.67 4.073-3.11" transform="translate(68.807) translate(39.45) translate(24.77 59.633)"/>
                    </g>
                    <path d="M.789 3.23l4.605-1.817C8.872.037 13.064.43 17.367 2.917l-4.606 1.817C8.46 2.239 4.266 1.854.79 3.229z" transform="translate(68.807) translate(39.45)"/>
                    <path d="M.789 3.23l4.605-1.817c.166-.064.34-.129.514-.193L1.303 3.037c-.175.055-.34.119-.514.192" transform="translate(68.807) translate(39.45)"/>
                    <path d="M1.303 3.037L5.908 1.22c.468-.156.945-.284 1.431-.376L2.734 2.661c-.486.091-.963.22-1.431.376" transform="translate(68.807) translate(39.45)"/>
                    <path d="M2.734 2.66L7.339.845c.377-.073.753-.128 1.138-.165L3.872 2.495c-.386.037-.762.092-1.138.166" transform="translate(68.807) translate(39.45)"/>
                    <path d="M3.872 2.495L8.477.68c.33-.028.67-.046 1.01-.055L4.88 2.44c-.34 0-.68.019-1.01.055" transform="translate(68.807) translate(39.45)"/>
                    <path d="M4.88 2.44L9.487.624c.312 0 .624.009.936.027L5.817 2.468c-.312-.018-.624-.028-.936-.028" transform="translate(68.807) translate(39.45)"/>
                    <path d="M5.817 2.468L10.422.65c.284.019.569.046.853.083L6.67 2.55c-.285-.036-.57-.064-.853-.082M6.67 2.55L11.275.734c.275.037.55.083.826.138L7.495 2.688c-.275-.055-.55-.1-.825-.138" transform="translate(68.807) translate(39.45)"/>
                    <path d="M7.495 2.688L12.101.872c.266.055.532.11.798.183L8.294 2.872c-.266-.074-.533-.129-.799-.184M8.303 2.872l4.605-1.817c.257.064.514.138.77.22L9.074 3.092c-.266-.083-.523-.156-.77-.22" transform="translate(68.807) translate(39.45)"/>
                    <path d="M9.073 3.083l4.606-1.817c.257.083.514.165.77.257L9.845 3.339c-.266-.091-.523-.174-.77-.256M9.835 3.349l4.605-1.817c.248.092.496.193.753.294l-4.606 1.816c-.257-.11-.504-.21-.752-.293" transform="translate(68.807) translate(39.45)"/>
                    <path d="M10.587 3.642l4.606-1.816c.247.1.504.22.752.34l-4.606 1.816c-.256-.129-.504-.239-.752-.34" transform="translate(68.807) translate(39.45)"/>
                    <path d="M11.34 3.972l4.605-1.816c.248.12.505.248.752.376L12.092 4.35c-.257-.129-.505-.257-.753-.377" transform="translate(68.807) translate(39.45)"/>
                    <path d="M12.092 4.349l4.605-1.817c.23.12.45.248.68.376L12.77 4.725c-.23-.129-.46-.257-.68-.376" transform="translate(68.807) translate(39.45)"/>
                    <path d="M12.771 4.725L17.376 2.908 24.606 7.083 20 8.899zM34.798 40.734L39.404 38.917 36.578 60.376 31.972 62.193z" transform="translate(68.807) translate(39.45)"/>
                    <g>
                        <path d="M.734 2.477L5.339.661c9.744 5.623 16.377 19.88 14.799 31.834l-4.606 1.817C17.11 22.358 10.477 8.11.734 2.477z" transform="translate(68.807) translate(39.45) translate(19.266 6.422)"/>
                        <path d="M.734 2.477L5.339.661c.028.018.055.027.083.045L.817 2.523c-.028-.01-.056-.028-.083-.046" transform="translate(68.807) translate(39.45) translate(19.266 6.422)"/>
                        <path d="M.817 2.523L5.422.706c.257.147.514.312.77.468L1.588 2.991l-.77-.468M1.587 3l4.606-1.817c.257.166.513.34.761.514L2.35 3.514c-.257-.184-.505-.349-.762-.514" transform="translate(68.807) translate(39.45) translate(19.266 6.422)"/>
                        <path d="M2.349 3.505l4.605-1.817c.266.184.523.376.78.569L3.128 4.073c-.256-.192-.513-.376-.78-.568M3.128 4.083l4.606-1.817c.266.202.532.413.798.633L3.927 4.716c-.257-.22-.523-.432-.799-.633" transform="translate(68.807) translate(39.45) translate(19.266 6.422)"/>
                        <path d="M3.927 4.716l4.605-1.817c.275.23.541.459.817.707L4.743 5.422c-.266-.248-.541-.477-.816-.706M4.743 5.422L9.35 3.606c.293.266.578.54.862.816L5.606 6.239c-.285-.285-.57-.56-.863-.817" transform="translate(68.807) translate(39.45) translate(19.266 6.422)"/>
                        <path d="M5.606 6.239l4.605-1.817c.303.303.606.606.9.927L6.504 7.165c-.294-.321-.597-.633-.9-.926" transform="translate(68.807) translate(39.45) translate(19.266 6.422)"/>
                        <path d="M6.505 7.156l4.605-1.817c.321.35.642.707.945 1.074L7.45 8.229c-.303-.367-.624-.724-.945-1.073M7.45 8.23l4.605-1.817c.358.422.697.853 1.037 1.293L8.486 9.523c-.33-.44-.679-.872-1.036-1.294" transform="translate(68.807) translate(39.45) translate(19.266 6.422)"/>
                        <path d="M8.486 9.523l4.606-1.817c.413.542.807 1.101 1.192 1.68L9.68 11.201c-.385-.569-.78-1.129-1.193-1.68" transform="translate(68.807) translate(39.45) translate(19.266 6.422)"/>
                        <path d="M9.679 11.202l4.605-1.817c1.496 2.248 2.762 4.707 3.744 7.285l-4.606 1.816c-.982-2.578-2.248-5.036-3.743-7.284M13.422 18.495l4.606-1.816c.22.578.422 1.165.614 1.752l-4.605 1.817c-.193-.597-.395-1.175-.615-1.753" transform="translate(68.807) translate(39.45) translate(19.266 6.422)"/>
                        <path d="M14.037 20.239l4.605-1.817c.156.477.303.963.44 1.45l-4.605 1.816c-.138-.486-.284-.963-.44-1.45" transform="translate(68.807) translate(39.45) translate(19.266 6.422)"/>
                        <path d="M14.477 21.688l4.606-1.816c.119.43.238.862.339 1.302l-4.605 1.817c-.101-.431-.22-.872-.34-1.303" transform="translate(68.807) translate(39.45) translate(19.266 6.422)"/>
                        <path d="M14.817 22.99l4.605-1.816c.1.404.184.808.266 1.211l-4.605 1.817c-.083-.404-.166-.808-.266-1.211M15.083 24.202l4.605-1.817c.083.386.156.78.22 1.175l-4.605 1.816c-.064-.394-.138-.789-.22-1.174" transform="translate(68.807) translate(39.45) translate(19.266 6.422)"/>
                        <path d="M15.303 25.367l4.605-1.817c.064.367.12.744.165 1.11l-4.605 1.817c-.046-.367-.101-.734-.165-1.11M15.477 26.477l4.606-1.816c.045.357.091.715.128 1.073l-4.605 1.816c-.037-.357-.083-.715-.129-1.073M15.606 27.55l4.605-1.816c.037.349.064.697.092 1.046l-4.606 1.816c-.027-.348-.064-.697-.091-1.046" transform="translate(68.807) translate(39.45) translate(19.266 6.422)"/>
                        <path d="M15.688 28.596l4.606-1.816c.027.33.036.67.055 1l-4.606 1.816c-.01-.33-.027-.66-.055-1" transform="translate(68.807) translate(39.45) translate(19.266 6.422)"/>
                        <path d="M15.743 29.596l4.606-1.816c.009.33.018.66.018.99l-4.606 1.817c0-.33-.009-.66-.018-.99" transform="translate(68.807) translate(39.45) translate(19.266 6.422)"/>
                        <path d="M15.761 30.587l4.606-1.816c0 .32 0 .642-.01.963l-4.605 1.816c.01-.32.01-.642.01-.963" transform="translate(68.807) translate(39.45) translate(19.266 6.422)"/>
                        <path d="M15.752 31.541l4.606-1.816c-.01.32-.028.633-.046.954l-4.606 1.816c.019-.312.037-.633.046-.954" transform="translate(68.807) translate(39.45) translate(19.266 6.422)"/>
                        <path d="M15.706 32.495l4.606-1.816c-.018.312-.046.624-.073.936l-4.606 1.816c.028-.312.055-.624.073-.936M15.633 33.431l4.606-1.816c-.028.293-.065.587-.101.88l-4.606 1.817c.037-.294.074-.587.101-.88" transform="translate(68.807) translate(39.45) translate(19.266 6.422)"/>
                    </g>
                </g>
                <path fill="#97A4F6" d="M59.45 8.9c9.743 5.623 16.376 19.88 14.798 31.834l-2.826 21.459c-1.284 9.78-8.798 13.972-16.77 9.367L41 63.679c-7.972-4.606-13.394-16.266-12.11-26.046l2.826-21.459C33.294 4.22 42.468-.908 52.21 4.716l7.239 4.183z" transform="translate(68.807)"/>
                <path fill="#4F4FBF" d="M58.982 74.11c5.862 3.385 5.89 8.862.073 12.248L45.927 93.99c-6.533 3.798-17.156 3.798-23.725 0L5.174 84.165c-6.578-3.798-6.605-9.945-.073-13.743l13.128-7.633c5.817-3.385 15.285-3.385 21.138 0L58.982 74.11z" transform="translate(68.807)"/>
            </g>
            <g>
                <path fill="#DCDAD6" d="M8.404 2.523L4.459 4.817 0.486 2.523 4.431 0.229z" transform="translate(138.532 101.835)"/>
                <path fill="#EBEFFF" d="M8.404 2.523L8.147 91.908 4.202 94.202 4.459 4.817z" transform="translate(138.532 101.835)"/>
                <path fill="#97A4F6" d="M4.459 4.817L4.202 94.202 0.239 91.908 0.486 2.523z" transform="translate(138.532 101.835)"/>
            </g>
            <g>
                <path fill="#DCDAD6" d="M8.495 2.991L4.55 5.275 0.578 2.991 4.523 0.697z" transform="translate(88.073 129.358)"/>
                <path fill="#EBEFFF" d="M8.495 2.991L8.239 92.367 4.294 94.661 4.55 5.275z" transform="translate(88.073 129.358)"/>
                <path fill="#97A4F6" d="M4.55 5.275L4.294 94.661 0.33 92.367 0.578 2.991z" transform="translate(88.073 129.358)"/>
            </g>
            <g>
                <path fill="#DCDAD6" d="M8.826 2.642L4.881 4.936 0.908 2.642 4.853 0.349z" transform="translate(1.835 81.651)"/>
                <path fill="#EBEFFF" d="M8.826 2.642L8.569 92.018 4.624 94.312 4.881 4.936z" transform="translate(1.835 81.651)"/>
                <path fill="#97A4F6" d="M4.881 4.936L4.624 94.312 0.661 92.018 0.908 2.642z" transform="translate(1.835 81.651)"/>
            </g>
            <g>
                <path fill="#DCDAD6" d="M8.349 2.945L4.404 5.229 0.431 2.945 4.376 0.651z" transform="translate(54.128 52.294)"/>
                <path fill="#EBEFFF" d="M8.349 2.945L8.092 92.321 4.156 94.615 4.404 5.229z" transform="translate(54.128 52.294)"/>
                <path fill="#97A4F6" d="M4.404 5.229L4.156 94.615 0.183 92.321 0.431 2.945z" transform="translate(54.128 52.294)"/>
            </g>
            <path fill="#382B99" d="M68.495 149.89s2.166 2.853 2.597 4.725c.422 1.871-.321 2.816-.321 2.816s-3.248 1.835-4.276 2.165c-1.027.33-3.752 3.954-6.21 4.78-2.46.826-5.46 2.413-6.322.523-.862-1.89 9.78-13.027 9.78-13.027l4.752-1.982zM103.569 146.468s-.239 2.183-2.184 2.064c-1.945-.12-3.642-2.183-3.642-2.183l.486 7.77s1.092 11.66 4.496 12.872c3.403 1.21 4.128-5.22 4.128-5.22l-3.284-15.303z"/>
            <path fill="#4F4FBF" d="M100.367 152.495c1.046 0 2.11-.266 3.083-.816 3-1.707 4.045-5.523 2.339-8.523-2.23-3.936-7.954-15.963-7.615-24.156.156-3.78 10-10.495 18.698-13.982 3.201-1.284 4.761-4.917 3.486-8.128-1.285-3.202-4.918-4.762-8.129-3.486-4.33 1.734-25.963 11.082-26.55 25.064-.55 13.238 8.238 29.092 9.238 30.853 1.166 2.037 3.276 3.174 5.45 3.174z"/>
            <path fill="#382B99" d="M88.945 55.468c.22 1.66 2.835 34.275 2.835 34.275s18.248 14.321 27.202 9.844c6.468-3.23 6.99-6.89 6.78-8.67-.129-1.082-.23-2.156-.202-3.247l-4.037-28.698c-.853-6.064-8.303-15.256-14.587-16.89C85.88 36.597 88.65 53.212 88.945 55.469z"/>
            <path fill="#4F4FBF" d="M65.761 156.927c3.23 0 5.973-2.496 6.22-5.771.597-7.725 2.946-29.606 6.588-37.89 2.165-4.908 13.064-10.284 20.128-12.532 3.285-1.046 5.11-4.56 4.064-7.844-1.045-3.284-4.55-5.12-7.834-4.073-3.734 1.183-22.624 7.66-27.799 19.412-5.156 11.725-7.367 38.909-7.605 41.964-.266 3.44 2.312 6.45 5.752 6.715.165.019.33.019.486.019z"/>
            <g>
                <path fill="#97A4F6" d="M92.257 87.661L92.248 93.028 0.367 39.817 0.385 34.45z" transform="translate(0 50.459)"/>
                <path fill="#EBEFFF" d="M150.991 53.532L92.257 87.661 0.385 34.45 59.119 0.321z" transform="translate(0 50.459)"/>
                <path fill="#66C" d="M150.991 53.532L150.972 58.899 92.248 93.028 92.257 87.661z" transform="translate(0 50.459)"/>
            </g>
            <circle cx="98.352" cy="29.261" r="11.863" fill="#EEBCC5" transform="rotate(-21.493 98.352 29.26)"/>
            <path fill="#EEBCC5" d="M95.761 32.45l3.01 9.183.66 1.982c.505 1.504 1.743 2.706 3.303 3.009 1.816.34 3.78-.129 5.569-1.092.761-.404 1.137-1.275.926-2.11l-3.009-11.844-10.459.872z"/>
            <g>
                <g fill="#4F4FBF">
                    <path d="M.404 2.128L.413.34c0 .404.266.808.798 1.12l-.01 1.789C.67 2.936.405 2.532.405 2.128z" transform="translate(51.376 67.89) translate(0 13.761)"/>
                    <path d="M1.211 1.459l-.01 1.789C.67 2.936.405 2.532.405 2.128L.413.34c0 .404.266.808.798 1.12" transform="translate(51.376 67.89) translate(0 13.761)"/>
                    <g>
                        <path d="M1.835.743l-.01 1.79c0 .394-.265.797-.78 1.1l.01-1.789c.514-.303.78-.697.78-1.1z" transform="translate(51.376 67.89) translate(0 13.761) translate(61.468 8.257)"/>
                        <path d="M1.835.743l-.01 1.79v.027l.01-1.79V.744" transform="translate(51.376 67.89) translate(0 13.761) translate(61.468 8.257)"/>
                        <path d="M1.835.77l-.01 1.79c0 .055-.008.1-.018.156l.01-1.79c.009-.054.018-.11.018-.155" transform="translate(51.376 67.89) translate(0 13.761) translate(61.468 8.257)"/>
                        <path d="M1.817.927l-.01 1.789c-.009.055-.027.1-.046.156l.01-1.79c.018-.054.036-.11.046-.155M1.77 1.073l-.009 1.79c-.018.054-.045.1-.073.155l.01-1.789c.036-.046.054-.1.073-.156" transform="translate(51.376 67.89) translate(0 13.761) translate(61.468 8.257)"/>
                        <path d="M1.697 1.23l-.009 1.788c-.027.055-.064.11-.11.165l.01-1.789c.045-.055.082-.11.11-.165" transform="translate(51.376 67.89) translate(0 13.761) translate(61.468 8.257)"/>
                        <path d="M1.596 1.394l-.009 1.79c-.046.064-.1.119-.165.183l.01-1.789c.054-.064.11-.128.164-.184M1.422 1.569l-.01 1.789c-.1.092-.21.174-.339.248l.01-1.79c.128-.073.247-.155.339-.247" transform="translate(51.376 67.89) translate(0 13.761) translate(61.468 8.257)"/>
                        <path d="M1.083 1.826l-.01 1.789c-.009.009-.018.009-.036.018l.009-1.789c.018-.01.027-.01.037-.018" transform="translate(51.376 67.89) translate(0 13.761) translate(61.468 8.257)"/>
                    </g>
                    <path d="M62.523 10.101L62.514 11.89 41.33 24.202 41.33 22.413zM37.514 22.413L37.505 24.202 1.211 3.239 1.211 1.459z" transform="translate(51.376 67.89) translate(0 13.761)"/>
                    <g>
                        <path d="M4.633.394l-.01 1.79c-1.054.614-2.77.614-3.825 0l.01-1.79c1.064.606 2.77.615 3.825 0z" transform="translate(51.376 67.89) translate(0 13.761) translate(36.697 22.018)"/>
                        <path d="M4.633.394l-.01 1.79c-.183.1-.384.192-.595.256L4.037.651c.22-.064.422-.156.596-.257" transform="translate(51.376 67.89) translate(0 13.761) translate(36.697 22.018)"/>
                        <path d="M4.046.651l-.01 1.79c-.164.054-.339.091-.513.128l.01-1.79c.173-.027.348-.073.513-.128M3.532.78l-.01 1.789c-.11.018-.228.037-.348.046l.01-1.79c.119-.008.238-.027.348-.045M3.183.826l-.009 1.789c-.1.009-.202.018-.302.018L2.88.844c.11 0 .21 0 .302-.018" transform="translate(51.376 67.89) translate(0 13.761) translate(36.697 22.018)"/>
                        <path d="M2.89.853l-.01 1.79h-.274l.009-1.79h.275" transform="translate(51.376 67.89) translate(0 13.761) translate(36.697 22.018)"/>
                        <path d="M2.615.853l-.01 1.79c-.091 0-.174-.01-.266-.02L2.35.836c.082.009.174.018.266.018" transform="translate(51.376 67.89) translate(0 13.761) translate(36.697 22.018)"/>
                        <path d="M2.349.835l-.01 1.789-.266-.028.01-1.789.266.028" transform="translate(51.376 67.89) translate(0 13.761) translate(36.697 22.018)"/>
                        <path d="M2.083.807l-.01 1.79c-.091-.01-.183-.028-.266-.047l.01-1.789c.082.019.174.037.266.046" transform="translate(51.376 67.89) translate(0 13.761) translate(36.697 22.018)"/>
                        <path d="M1.817.761l-.01 1.79c-.091-.019-.192-.046-.284-.074l.01-1.789c.09.028.183.055.284.073M1.532.688l-.01 1.79-.33-.111.01-1.789c.11.046.22.083.33.11" transform="translate(51.376 67.89) translate(0 13.761) translate(36.697 22.018)"/>
                        <path d="M1.202.578l-.01 1.789c-.137-.055-.265-.12-.394-.184L.808.394c.128.074.256.129.394.184" transform="translate(51.376 67.89) translate(0 13.761) translate(36.697 22.018)"/>
                    </g>
                </g>
                <path fill="#FFF" d="M62.505 21.651c1.055.615 1.064 1.606.009 2.211L41.33 36.174c-1.055.615-2.77.615-3.825 0L1.202 15.22c-1.055-.614-1.074-1.596-.01-2.21L22.377.696c1.046-.614 2.77-.614 3.826 0l36.303 20.954z" transform="translate(51.376 67.89)"/>
                <g fill="#AFC6F5">
                    <path d="M8.725 5.321L6.459 6.642 4.165 5.321 6.44 4zM4.936 7.523L2.67 8.844.376 7.523 2.651 6.202z" transform="translate(51.376 67.89) translate(11.927 9.174)"/>
                    <g>
                        <path d="M9.22 7.193L6.945 8.514 4.651 7.193 6.927 5.872zM12.45 9.064L10.183 10.385 7.89 9.064 10.165 7.743zM5.431 9.394L3.156 10.716.862 9.394 3.138 8.073zM34.312 8.624L28.523 11.982 14.798 4.055 20.587.697zM15.697 10.936L13.422 12.257 11.138 10.936 13.404 9.615zM8.661 11.266L6.394 12.587 4.101 11.266 6.376 9.945zM18.936 12.807L16.661 14.128 14.376 12.807 16.651 11.486zM11.908 13.138L9.633 14.459 7.349 13.138 9.615 11.817zM29.477 14.743L27.394 15.954 7.954 4.725 10.028 3.514zM22.174 14.679L19.908 16 17.615 14.679 19.89 13.358zM15.147 15.009L12.872 16.33 10.587 15.009 12.862 13.688zM25.413 16.55L23.138 17.872 20.862 16.55 23.128 15.229zM18.385 16.881L16.119 18.202 13.826 16.881 16.101 15.56zM21.624 18.752L19.349 20.073 17.073 18.752 19.339 17.431z" transform="translate(51.376 67.89) translate(11.927 9.174) translate(2.752)"/>
                    </g>
                    <path d="M31.413 18.422L29.138 19.743 26.844 18.422 29.119 17.101zM27.624 20.624L25.349 21.945 23.055 20.624 25.33 19.303z" transform="translate(51.376 67.89) translate(11.927 9.174)"/>
                </g>
            </g>
            <path fill="#382B99" d="M78.596 76.01c-2.018 0-3.77-1.478-4.055-3.533-.055-.385-1.22-9.431 5.175-16.147 5.11-5.367 11.752-12.257 11.752-12.257l5.917 5.698S90.761 56.65 85.67 62c-3.624 3.798-2.991 9.34-2.982 9.394.275 2.239-1.303 4.294-3.541 4.588-.193.018-.376.027-.55.027z"/>
            <path fill="#EEBCC5" d="M80.284 82.193c-1.33 0-2.651-.606-3.513-1.753-1.973-2.623-3.01-4.568-2.505-6.734.303-1.266 1.184-2.403 2.349-2.981 2.165-1.083 4.798-.202 5.88 1.963.202.395.33.807.404 1.22.165.257.431.67.89 1.266 1.45 1.936 1.064 4.688-.88 6.138-.79.596-1.707.88-2.625.88z"/>
            <path fill="#382B99" d="M106.66 99.349c-2.054 0-3.89-1.45-4.302-3.55-.468-2.377 1.082-4.68 3.468-5.148 7.88-1.55 19.027-6.128 19.44-10.679.514-5.688-8.945-18.155-15.835-25.192-1.697-1.734-1.66-4.505.064-6.202 1.734-1.697 4.505-1.67 6.202.064.193.193 4.762 4.872 9.266 10.918 6.578 8.816 9.532 15.752 9.037 21.201-.55 6.01-5.431 10.982-14.505 14.799-5.972 2.504-11.752 3.651-11.99 3.697-.285.073-.57.092-.844.092z"/>
            <path fill="#EEBCC5" d="M105.633 30.385c.688 1.982 2.844 3.037 4.826 2.349 1.981-.688 3.036-2.844 2.348-4.826-.688-1.981-2.844-3.036-4.825-2.348-1.982.679-3.037 2.844-2.349 4.825z"/>
            <path fill="#4F4FBF" d="M87.22 23.239c.817.816 1.798 1.467 2.872 1.899.78.312 1.605.513 2.43.67 1.588.302 3.23.467 4.836.22 1.605-.239 3.174-.909 4.303-2.074 1.119.385 2.293.587 3.467.707-.21.522-.357 1.091-.45 1.65-.22 1.368.304 2.726.817 4.01.367.936.744 1.862 1.23 2.743.541.101 1.303.055 1.468-.468.055-.165.027-.348 0-.523l-.386-2.596c-.091-.605-.183-1.21-.091-1.816.091-.606.385-1.202.908-1.514.193-.11.413-.193.569-.349.156-.156.229-.376.293-.578.542-1.642 1.083-3.284 1.633-4.926-.89-1.799-2.422-3.147-4.257-3.964-1.834-.807-3.954-.954-5.88-.403-1.909-1.23-4.349-2.386-6.413-1.422-.587.275-1.092.706-1.67 1.009-1.596.835-3.514.541-5.321.468-1.798-.074-3.88.238-4.835 1.77-.312.496-.459 1.074-.523 1.652-.128 1.284.303 2.715 1.395 3.394 1 .615 2.45.578 3.605.44z"/>
            <g>
                <path fill="#8194EF" d="M38.752 18.899L40.211 17.835 40.119 15.083 17.193 6.44 0.413 16.128 21.982 28.578z" transform="translate(4.587 65.138)"/>
                <path fill="#C0CBFF" d="M22.009 29.89L.45 17.44.45 16.055 22.009 28.505zM.45 10.486L22.009 22.936 38.789 13.257 17.22.798z" transform="translate(4.587 65.138)"/>
                <path fill="#97A4F6" d="M39.165 13.394l-.376-.137v1.376c1.23.459 1.67 2.761.477 3.826l-.477.367v1.376s.33-.165 1.018-.725c1.743-1.404 1.294-5.376-.642-6.083z" transform="translate(4.587 65.138)"/>
                <path fill="#FFF" d="M6.229 9.945L23.009 19.651 34.138 13.239 17.294 3.44z" transform="translate(4.587 65.138)"/>
                <path fill="#FFF" d="M38.67 14.018L35.661 16.037 21.835 23.927 2.349 12.67 2.349 16.45 21.835 27.706 38.67 18.028z" transform="translate(4.587 65.138)"/>
                <path fill="#EBEFFF" d="M22.028 27.596L38.67 18.028 38.67 14.018 35.661 16.037 22.092 23.78z" transform="translate(4.587 65.138)"/>
                <path fill="#97A4F6" d="M38.789 20.202L22.009 29.89 22.009 28.505 38.789 18.826zM38.789 14.633L22.009 24.321 22.009 22.936 38.789 13.257z" transform="translate(4.587 65.138)"/>
                <path fill="#EBEFFF" d="M22.009 24.321L0.45 11.872 0.45 10.486 22.009 22.936z" transform="translate(4.587 65.138)"/>
                <path fill="#F27281" d="M25.468 23.422L25.468 27.752 26.596 25.881 27.532 26.505 27.413 22.339z" transform="translate(4.587 65.138)"/>
            </g>
            <g>
                <path fill="#D19846" d="M2.422 16.422L1.119 15.468 1.202 13.018 21.651 5.312 36.606 13.945 17.376 25.046z" transform="translate(5.505 58.716)"/>
                <path fill="#DBA75D" d="M17.349 26.22L36.578 15.119 36.578 13.89 17.349 24.991z" transform="translate(5.505 58.716)"/>
                <path fill="#EABD70" d="M36.578 8.927L17.349 20.028 2.394 11.394 21.624 0.284z" transform="translate(5.505 58.716)"/>
                <path fill="#F7CC8D" d="M2.055 11.514l.34-.12v1.23c-1.101.413-1.487 2.468-.432 3.404l.431.33v1.23s-.293-.148-.908-.643c-1.56-1.257-1.156-4.798.569-5.431z" transform="translate(5.505 58.716)"/>
                <path fill="#FFF" d="M2.495 12.064L5.183 13.872 17.505 20.899 34.881 10.872 34.881 14.239 17.505 24.275 2.495 15.642z" transform="translate(5.505 58.716)"/>
                <path fill="#EBEFFF" d="M17.339 24.174L2.495 15.642 2.495 12.064 5.183 13.872 17.275 20.771z" transform="translate(5.505 58.716)"/>
                <path fill="#F7CC8D" d="M2.394 17.587L17.349 26.22 17.349 24.991 2.394 16.358zM2.394 12.624L17.349 21.257 17.349 20.028 2.394 11.394z" transform="translate(5.505 58.716)"/>
                <path fill="#DBA75D" d="M17.349 21.257L36.578 10.156 36.578 8.927 17.349 20.028z" transform="translate(5.505 58.716)"/>
            </g>
            <path fill="#EEBCC5" d="M106.66 99.349c-2.054 0-3.89-1.45-4.302-3.55-.468-2.377 1.082-4.68 3.468-5.148.018 0 2.22-.44 5.156-1.34 2.312-.705 4.77.597 5.477 2.91.706 2.32-.597 4.77-2.909 5.476-3.403 1.037-5.935 1.542-6.036 1.56-.294.073-.578.092-.853.092z"/>
            <g>
                <path fill="#4F4FBF" d="M38.606 22.138L37.578 22.734 0.073 1.083 1.101 0.486z" transform="translate(50.459 56.88)"/>
                <path fill="#4F4FBF" d="M38.606 22.138L38.532 48.954 37.505 49.55 37.578 22.734z" transform="translate(50.459 56.88)"/>
                <path fill="#97A4F6" d="M37.578 22.734L37.505 49.55 0 27.899 0.073 1.083z" transform="translate(50.459 56.88)"/>
            </g>
            <path fill="#FFF" d="M67.266 77.862c1.55.9 2.817 3.083 2.807 4.881-.009 1.78-1.275 2.505-2.825 1.615-1.56-.9-2.817-3.083-2.808-4.863 0-1.807 1.257-2.532 2.826-1.633z"/>
            <g>
                <path fill="#382B99" d="M21.844 17.908c0 2.367-4.688 4.294-10.459 4.294-5.78 0-10.458-1.918-10.458-4.294 0-2.367 4.688-4.293 10.458-4.293 5.771 0 10.459 1.917 10.459 4.293z" opacity=".3" transform="translate(95.413 102.752)"/>
                <path fill="#FFF" d="M10.275 2.055L.615 5.303v12.156c0 2.458 3.275 4.458 7.312 4.458 4.036 0 7.312-1.99 7.312-4.458V5.303l-4.964-3.248z" transform="translate(95.413 102.752)"/>
                <path fill="#DCDEEF" d="M15.248 5.294c0 2.458-3.276 4.458-7.312 4.458-4.037 0-7.312-1.99-7.312-4.458 0-2.46 3.275-4.46 7.312-4.46 4.036.01 7.312 2 7.312 4.46z" transform="translate(95.413 102.752)"/>
                <path fill="#91616A" d="M1.706 7.633c1.285 1.266 3.597 2.12 6.23 2.12 2.633 0 4.936-.845 6.23-2.12.09-.257.137-.523.137-.798 0-2.138-2.844-3.872-6.358-3.872S1.587 4.697 1.587 6.835c-.018.275.037.541.12.798z" transform="translate(95.413 102.752)"/>
                <path fill="#FFF9FF" d="M7.936 1.358c3.688 0 6.798 1.807 6.798 3.945 0 2.137-3.11 3.945-6.798 3.945S1.138 7.44 1.138 5.303c0-2.147 3.11-3.945 6.798-3.945m0-.514C3.899.844.624 2.834.624 5.303c0 2.458 3.275 4.458 7.312 4.458 4.036 0 7.312-1.99 7.312-4.458S11.972.844 7.936.844z" transform="translate(95.413 102.752)"/>
                <g>
                    <path fill="#FFF" d="M2.248 1.028L1.982.872V.99.917 4.725c1.238.835 2 2.247 2 3.752 0 .477-.165.927-.46 1.275-.09.01-.183.019-.274.019v1.064c.523 0 1.055-.138 1.532-.413.954-.55 1.532-1.541 1.532-2.651-1.275-3.89-2.349-5.743-4.064-6.743z" transform="translate(95.413 102.752) translate(11.927 9.174)"/>
                    <path fill="#EBEFFF" d="M.982 1.743l-.266-.156v1.239c1.238.835 2 2.247 2 3.752 0 .725-.377 1.367-1 1.734-.312.183-.661.275-1 .275v1.064c.523 0 1.055-.137 1.532-.412.954-.55 1.532-1.542 1.532-2.652-.01-2-1.074-3.853-2.798-4.844z" transform="translate(95.413 102.752) translate(11.927 9.174)"/>
                </g>
            </g>
            <g>
                <path fill="#647DDD" d="M.266.624C.276.606.284.578.294.56c.045.018.082.027.119.046.046.018.1.036.147.055.091.027.21.073.293.1.092.028.211.074.294.101.046.019.1.037.147.055.045.019.1.037.156.055.045.019 1.348.44 1.532.514l.009.01H3l16.78 9.743.238.33-.238.605-.468.276L2.514 2.697l-.01-.009c-.458-.394-.944-.927-1.403-1.321C.835 1.119.55.872.266.624z" transform="translate(43.12 91.743)"/>
                <path fill="#342646" d="M.587.266c.046.018.083.028.12.046l.146.055c.092.027.211.073.294.1.092.028.21.074.293.102l.147.055c.046.018.101.037.156.055l-.349.385L.541.321C.57.311.578.294.587.266z" transform="translate(43.12 91.743)"/>
                <path fill="#FFE2D7" d="M1.761.688c.046.018 1.487.486 1.55.523-.027.055-.054.064-.155.12-.23.128-.45.421-.45.697 0 .119.074.348.129.394-.459-.404-.963-.936-1.422-1.34C1.367.955 1.66.67 1.76.689z" transform="translate(43.12 91.743)"/>
                <path fill="#433F6D" d="M2.706 2.018c0 .266.184.376.413.248.23-.128.422-.45.422-.716 0-.266-.183-.385-.413-.247-.229.128-.412.45-.422.715z" transform="translate(43.12 91.743)"/>
                <g>
                    <path fill="#DBAC37" d="M17.55 10.908L0.752 1.156 0.991 1.486 17.789 11.239z" transform="translate(43.12 91.743) translate(1.835 .917)"/>
                    <path fill="#DBAC37" d="M17.789 10.303L0.991 0.55 0.752 1.156 17.55 10.908z" transform="translate(43.12 91.743) translate(1.835 .917)"/>
                    <path fill="#FCCF4F" d="M18.257 10.028L1.459 0.275 0.991 0.55 17.789 10.303z" transform="translate(43.12 91.743) translate(1.835 .917)"/>
                    <path fill="#433F6D" d="M17.789 10.303L17.55 10.908 17.789 11.239 18.257 10.963 18.495 10.358 18.257 10.028z" transform="translate(43.12 91.743) translate(1.835 .917)"/>
                </g>
            </g>
            <g>
                <path fill="#647DDD" d="M17.55.9l-.027-.056c-.037.01-.073.028-.11.037-.037.009-.092.027-.129.046-.073.027-.174.064-.256.091-.074.028-.175.065-.257.092-.037.01-.092.028-.129.046-.036.018-.092.027-.137.046-.037.018-1.156.376-1.312.44l-.01.01h-.009L.79 10l-.202.284.202.523.404.23 14.403-8.358.01-.01c.394-.339.807-.797 1.201-1.128.257-.21.505-.422.743-.642z" transform="translate(115.596 101.835)"/>
                <g>
                    <path fill="#342646" d="M3.514.596c-.037.01-.074.028-.11.037-.037.01-.092.028-.129.046-.073.027-.174.064-.257.092-.073.027-.174.064-.257.091-.036.01-.091.028-.128.046-.037.019-.092.028-.138.046l.303.33c.248-.21.486-.422.734-.633 0-.018-.01-.036-.018-.055z" transform="translate(115.596 101.835) translate(13.761)"/>
                    <path fill="#FFE2D7" d="M2.514.954c-.046.018-1.275.413-1.33.45.027.046.045.055.128.1.202.11.385.368.385.597 0 .1-.064.293-.11.34.395-.34.826-.808 1.22-1.147.046-.11-.201-.349-.293-.34z" transform="translate(115.596 101.835) translate(13.761)"/>
                    <path fill="#433F6D" d="M1.697 2.1c0 .23-.156.331-.358.221-.201-.11-.357-.385-.367-.615 0-.229.156-.33.358-.22.202.101.367.386.367.615z" transform="translate(115.596 101.835) translate(13.761)"/>
                </g>
                <g>
                    <path fill="#DBAC37" d="M1.165 9.587L15.56 1.229 15.358 1.514 0.963 9.872z" transform="translate(115.596 101.835) translate(0 .917)"/>
                    <path fill="#DBAC37" d="M0.963 9.073L15.367 0.706 15.56 1.229 1.165 9.587z" transform="translate(115.596 101.835) translate(0 .917)"/>
                    <path fill="#FCCF4F" d="M0.56 8.835L14.954 0.477 15.367 0.706 0.963 9.073z" transform="translate(115.596 101.835) translate(0 .917)"/>
                    <path fill="#433F6D" d="M0.963 9.073L1.165 9.587 0.963 9.872 0.55 9.642 0.358 9.119 0.56 8.835z" transform="translate(115.596 101.835) translate(0 .917)"/>
                </g>
            </g>
        </g>
        <g transform="translate(157.798 129.358)">
            <ellipse cx="15.844" cy="68.771" fill="#3878FF" opacity=".2" rx="12.872" ry="5.798"/>
            <g>
                <path fill="#FFF9FF" d="M16.257 2.798L1.046 11.055 3.54 24.376c.376 3.358 4.303 5.88 8.798 5.88 4.496 0 8.413-2.522 8.799-5.88l2.495-13.321-7.376-8.257z" transform="translate(3.67 42.202)"/>
                <path fill="#D3BAE7" d="M24.56 8.752c0 4.514-5.468 8.175-12.22 8.175-6.753 0-12.22-3.66-12.22-8.175C.12 4.24 5.586.578 12.34.578c6.752 0 12.22 3.66 12.22 8.174z" transform="translate(3.67 42.202)"/>
                <path fill="#752939" d="M1.936 12.523c2.156 2.193 6.009 3.651 10.403 3.651 4.395 0 8.248-1.458 10.404-3.651.147-.45.23-.908.23-1.376 0-3.688-4.762-6.68-10.634-6.68-5.871 0-10.633 2.992-10.633 6.68 0 .468.083.926.23 1.376z" transform="translate(3.67 42.202)"/>
                <path fill="#FFF9FF" d="M12.34 1.523c6.155 0 11.366 3.312 11.366 7.23 0 3.917-5.201 7.229-11.367 7.229-6.156 0-11.367-3.312-11.367-7.23 0-3.917 5.202-7.23 11.367-7.23m0-.944C5.587.578.12 4.238.12 8.752c0 4.514 5.468 8.175 12.22 8.175 6.753 0 12.22-3.66 12.22-8.175 0-4.513-5.467-8.174-12.22-8.174z" transform="translate(3.67 42.202)"/>
            </g>
            <path fill="#1A685A" d="M26.394 13.312c-1.018 2.385-1.036 5.12-1.027 7.761.01 2.964.01 5.927.018 8.89.01 3.376.01 6.798-.825 10.046-.835 3.248-2.633 6.349-5.395 7.844-1.367.743-3.082 1.028-4.367.147-.569-.394-1.009-.982-1.376-1.606-3.1-5.339-.23-12.504 2-17.633 2.587-5.944 6.34-11.275 10.972-15.45z"/>
            <path fill="#409682" d="M3.193 37.67C2.43 26.606 2.945 15.33.468 4.569c6.734 8.99 10.018 21.009 8.908 32.587 2.23-7.651 4.486-15.459 4.45-23.486-.019-3.835 2.128-12.9 2.128-12.9s1.266 8.67 2.431 12.881c.798 2.872.954 5.909 1.11 8.909.23 4.376.46 8.752.68 13.128 3.32-11.01 12.201-26.174 12.201-26.174s-3.266 28.917-5 35.532C25.413 52.55 19.01 57.65 11.68 55.88c-6.66-1.606-8.064-12.129-8.486-18.211z"/>
            <path fill="#4EAF9D" d="M8.404 48.578c-1.395-4.211-.101-8.826.77-13.202 1.037-5.21 1.45-10.67.395-15.88 3.504 8.128 6.596 16.476 9.248 24.99.688 2.202 1.339 4.597.688 6.808-.615 2.082-4.055 5.77-6.33 5.156-1.799-.478-4.166-6.028-4.771-7.872z"/>
        </g>
    </g>
</svg>
