<svg xmlns="http://www.w3.org/2000/svg" width="240" height="240" viewBox="0 0 240 240">
    <defs>
        <linearGradient id="prefix__a" x1="-20.021%" x2="109.849%" y1="97.401%" y2="19.264%">
            <stop offset="0%" stop-color="#624EFF"/>
            <stop offset="100%" stop-color="#DB6EE3"/>
        </linearGradient>
    </defs>
    <g fill="none" fill-rule="evenodd">
        <rect width="240" height="240" fill="url(#prefix__a)" opacity=".529" rx="120"/>
        <g fill-rule="nonzero" transform="translate(50 48)">
            <path fill="#FFD856" d="M.172 22.913c0-12.767 10.442-23.095 23.25-22.91C35.83.18 45.92 10.357 45.999 22.765c.044 6.95-3.007 13.186-7.854 17.416-.512.447-.438 1.261.147 1.607l4.317 2.555c.698.413.405 1.483-.406 1.483l-19.55-.005C10.196 45.589.171 35.422.171 22.913z"/>
            <path fill="#FFC72A" d="M42.608 44.343l-4.318-2.555c-.58-.344-.662-1.157-.153-1.601 4.903-4.275 7.97-10.603 7.858-17.644C45.803 10.363 35.945.365 23.768.01c-1.726-.05-3.411.09-5.036.403 10.525 2.018 18.546 11.295 18.616 22.352.034 5.355-1.77 10.286-4.817 14.203-1.84 2.365-1.242 5.795 1.337 7.32l.09.054c.69.409.41 1.458-.38 1.481l8.624.002c.81 0 1.104-1.07.406-1.482z"/>
            <g>
                <path fill="#C59191" d="M79.486 83.169H27.507c-12.982 0-20.087-15.13-11.795-25.12l.461-.555c3.653-4.4 5.653-9.94 5.653-15.66V31.811C21.826 14.242 36.068 0 53.636 0c17.57 0 31.811 14.242 31.811 31.81v10.363c0 5.779 2.042 11.372 5.765 15.793 8.395 9.97 1.308 25.203-11.726 25.203z" transform="translate(32.33)"/>
                <path fill="#FFF" d="M106.81 108.929v34.364H.185v-34.106c0-7.721 4.627-14.69 11.741-17.684L29.14 84.02l5.796-2.52c4.397-1.912 7.241-6.25 7.241-11.045V68.23h22.64v2.11c0 4.816 2.871 9.171 7.3 11.07l23.282 9.98c6.937 3.073 11.412 9.948 11.412 17.539z" transform="translate(32.33)"/>
                <path fill="#FFCEBF" d="M29.138 92.213c5.875 1.755 14.521 3.628 25.061 3.443 9.89-.172 18.008-2.095 23.657-3.9l2.807-6.684-8.547-3.663c-4.428-1.898-7.3-6.252-7.3-11.07v-2.108H42.179v2.224c0 4.794-2.845 9.132-7.242 11.044l-6.922 3.01 1.124 7.704z" transform="translate(32.33)"/>
                <g fill="#555DF6">
                    <path d="M95.397 7.581L77.859.064h-.003v59.421h28.954V25.122c0-7.59-4.474-14.466-11.413-17.541zM29.14.213v59.273H.184V25.38c0-7.722 4.627-14.69 11.741-17.685L29.14.213z" transform="translate(32.33) translate(0 83.807)"/>
                </g>
                <g>
                    <path fill="#FFB09E" d="M39.754 80.657c2.604 0 5.086-.523 7.348-1.467-2.426-2.24-3.876-5.427-3.876-8.85v-2.109h-22.64v2.224c0 1.732-.373 3.404-1.054 4.923 3.428 3.268 8.066 5.279 13.176 5.279h7.046z" transform="translate(32.33) translate(21.59)"/>
                    <path fill="#FFCEBF" d="M54.533 34.174v18.729c0 10.551-8.553 19.104-19.104 19.104h-7.046c-10.55 0-19.104-8.553-19.104-19.104V34.174c0-6.864 5.564-12.428 12.428-12.428h20.398c6.864 0 12.428 5.564 12.428 12.428z" transform="translate(32.33) translate(21.59)"/>
                    <path fill="#7A6D79" d="M54.533 43.918c-.008.026-.019.051-.026.078-.691 2.385-2.504 6.89-6.884 10.267-2.04 1.573-4.366 2.71-6.914 3.378-1.155.304-1.846 1.486-1.543 2.64.255.972 1.131 1.615 2.09 1.615.182 0 .367-.023.55-.071 3.112-.817 5.958-2.209 8.458-4.137 1.727-1.331 3.125-2.802 4.257-4.281.004-.168.013-.335.013-.504v-8.985z" transform="translate(32.33) translate(21.59)"/>
                    <path fill="#685E68" d="M38.338 63.619H33.27c-2.306 0-4.176-1.87-4.176-4.176 0-2.307 1.87-4.177 4.176-4.177h5.068c2.306 0 4.176 1.87 4.176 4.177 0 2.306-1.87 4.176-4.176 4.176z" transform="translate(32.33) translate(21.59)"/>
                    <path fill="#B98080" d="M36.42 16.789c.486-6.12 6.344-10.18 11.952-12.284 9.275 5.558 15.485 15.706 15.485 27.306v2.186c-.513.108-1.023.202-1.528.278-3.089.461-5.72.261-7.517 0-11.58-1.543-18.977-10.095-18.391-17.486z" transform="translate(32.33) translate(21.59)"/>
                    <path fill="#C59191" d="M32.046 0c7.184 0 13.811 2.382 19.136 6.4-2.656 4.622-8.756 13.76-20.195 20.527-8.491 5.023-16.498 6.71-21.428 7.348H.235V31.81C.235 14.242 14.477 0 32.045 0z" transform="translate(32.33) translate(21.59)"/>
                </g>
            </g>
            <path fill="#EFEDEF" d="M121.526 143.292h-69.22l-3.818-36.016c-.27-2.554 1.732-4.78 4.3-4.78h68.255c2.57 0 4.572 2.226 4.301 4.78l-3.818 36.016z"/>
            <path fill="#E5E1E5" d="M121.043 102.496h-8.65c2.57 0 4.572 2.226 4.301 4.78l-3.818 36.016h8.65l3.818-36.016c.27-2.554-1.732-4.78-4.3-4.78z"/>
            <circle cx="86.916" cy="122.894" r="6.055" fill="#C9BFC8"/>
            <g fill="#FFF" transform="translate(12.16 20.739)">
                <circle cx="2.277" cy="2.174" r="2.162"/>
                <circle cx="10.926" cy="2.174" r="2.162"/>
                <circle cx="19.576" cy="2.174" r="2.162"/>
            </g>
        </g>
    </g>
</svg>
