<svg xmlns="http://www.w3.org/2000/svg" width="200" height="89" viewBox="0 0 200 89">
    <defs>
        <linearGradient id="prefix__a" x1="-.062%" x2="99.963%" y1="50.057%" y2="50.057%">
            <stop offset="0%" stop-color="#EA3D54"/>
            <stop offset="100%" stop-color="#C12D85"/>
        </linearGradient>
        <linearGradient id="prefix__b" x1=".116%" x2="99.915%" y1="50.142%" y2="50.142%">
            <stop offset="0%" stop-color="#EA3D54"/>
            <stop offset="100%" stop-color="#C12D85"/>
        </linearGradient>
        <linearGradient id="prefix__c" x1="-.035%" x2="100.171%" y1="50.196%" y2="50.196%">
            <stop offset="0%" stop-color="#EA3D54"/>
            <stop offset="100%" stop-color="#C12D85"/>
        </linearGradient>
        <linearGradient id="prefix__d" x1=".149%" x2="100.062%" y1="50.038%" y2="50.038%">
            <stop offset="0%" stop-color="#EA3D54"/>
            <stop offset="100%" stop-color="#C12D85"/>
        </linearGradient>
        <linearGradient id="prefix__e" x1=".107%" x2="100.369%" y1="49.965%" y2="49.965%">
            <stop offset="0%" stop-color="#EA3D54"/>
            <stop offset="100%" stop-color="#C12D85"/>
        </linearGradient>
    </defs>
    <g fill="none">
        <g fill="#403E3E">
            <path d="M11.093 8.47c1.154 1.232 1.75 2.782 1.75 4.651 0 1.87-.557 3.38-1.71 4.613C9.98 18.966 8.55 19.563 6.8 19.563c-.914 0-1.75-.16-2.505-.517-.755-.358-1.391-.835-1.829-1.511v1.75H0V.317h2.664V8.39C3.658 7.197 5.01 6.6 6.799 6.6c1.71 0 3.141.637 4.294 1.87zm-2.067 7.554c.716-.756 1.073-1.75 1.073-2.942 0-1.193-.357-2.148-1.073-2.903-.716-.756-1.63-1.153-2.704-1.153-1.034 0-1.908.358-2.624 1.034-.716.715-1.114 1.71-1.114 3.022 0 1.312.358 2.345 1.114 3.021.755.676 1.63 1.034 2.624 1.034 1.074 0 1.988-.358 2.704-1.113zM27.078 13.956h-9.265c.16 1.034.597 1.83 1.352 2.386.755.557 1.63.875 2.704.875 1.312 0 2.505-.477 3.618-1.471l1.272 1.829c-1.431 1.312-3.061 1.988-4.97 1.988-1.908 0-3.499-.637-4.771-1.87-1.272-1.232-1.909-2.782-1.909-4.611 0-1.83.637-3.34 1.87-4.613C18.21 7.197 19.721 6.6 21.55 6.6c1.67 0 3.022.557 4.095 1.63 1.074 1.074 1.63 2.426 1.63 4.056 0 .517-.08 1.074-.198 1.67zm-7.953-4.294c-.636.557-1.073 1.272-1.272 2.227h6.76c0-.915-.319-1.67-.955-2.227-.596-.557-1.352-.835-2.266-.835-.835.04-1.59.318-2.267.835zM32.962 19.284L30.298 19.284 30.298.318 32.962.318zM39.404.994c.357.358.516.756.516 1.233 0 .477-.159.914-.516 1.232-.358.318-.756.517-1.273.517-.517 0-.954-.159-1.272-.517-.358-.318-.517-.755-.517-1.232s.159-.915.517-1.233c.358-.358.795-.517 1.272-.517.517 0 .915.199 1.273.517zm.04 18.29h-2.665V6.88h2.664v12.405zM54.791 6.879L48.787 19.563 47.873 19.563 41.869 6.879 44.692 6.879 48.31 15.109 51.968 6.879zM67.833 13.956h-9.264c.159 1.034.596 1.83 1.351 2.386.756.557 1.63.875 2.704.875 1.312 0 2.505-.477 3.619-1.471l1.272 1.829c-1.432 1.312-3.062 1.988-4.97 1.988-1.909 0-3.5-.637-4.772-1.87-1.272-1.232-1.908-2.782-1.908-4.611 0-1.83.636-3.34 1.869-4.613C58.966 7.197 60.477 6.6 62.306 6.6c1.67 0 3.022.557 4.096 1.63 1.073 1.074 1.63 2.426 1.63 4.056 0 .517-.04 1.074-.199 1.67zM59.92 9.662c-.636.557-1.073 1.272-1.272 2.227h6.76c0-.915-.319-1.67-.955-2.227-.596-.557-1.352-.835-2.266-.835-.835.04-1.63.318-2.267.835zM83.539 17.058v2.266c-.835.199-1.59.278-2.187.278-1.432 0-2.545-.357-3.38-1.073s-1.232-1.79-1.232-3.26V9.184H74.75V6.879h2.028v-3.26h2.664v3.26h3.698v2.306h-3.698v5.845c0 .795.2 1.352.637 1.67.397.318 1.033.477 1.829.477.357 0 .914-.04 1.63-.12zM96.342 13.956h-9.264c.159 1.034.596 1.83 1.351 2.386.756.557 1.63.875 2.704.875 1.312 0 2.505-.477 3.618-1.471l1.273 1.829c-1.432 1.312-3.062 1.988-4.97 1.988-1.909 0-3.5-.637-4.772-1.87-1.272-1.232-1.908-2.782-1.908-4.611 0-1.83.636-3.34 1.869-4.613C87.475 7.197 88.986 6.6 90.815 6.6c1.67 0 3.022.557 4.096 1.63 1.073 1.074 1.63 2.426 1.63 4.056.04.517-.04 1.074-.2 1.67zm-7.913-4.294c-.636.557-1.073 1.272-1.272 2.227h6.76c0-.915-.319-1.67-.955-2.227-.596-.557-1.352-.835-2.266-.835-.835.04-1.63.318-2.267.835zM107.674 7.396c.914.517 1.63 1.232 2.147 2.107l-1.869 1.471c-.874-1.272-1.988-1.908-3.34-1.908-1.113 0-2.067.397-2.783 1.153-.716.795-1.113 1.71-1.113 2.863s.358 2.147 1.113 2.902c.755.756 1.67 1.153 2.783 1.153 1.312 0 2.426-.636 3.34-1.869l1.87 1.432c-1.194 1.908-2.943 2.863-5.25 2.863-1.828 0-3.38-.637-4.652-1.87-1.272-1.272-1.908-2.782-1.908-4.611 0-1.83.636-3.34 1.908-4.613 1.273-1.272 2.824-1.869 4.653-1.869 1.153 0 2.186.279 3.101.796zM121.153 7.952c.835.915 1.233 2.108 1.233 3.579v7.753h-2.664v-7.356c0-.874-.239-1.55-.716-2.067-.477-.517-1.153-.795-1.988-.795s-1.511.278-2.028.795c-.517.556-.795 1.232-.795 2.067v7.396h-2.664V.318h2.664v7.754c.875-.994 2.107-1.511 3.578-1.511 1.432.04 2.585.517 3.38 1.391zM134.91 7.952c.836.915 1.233 2.108 1.233 3.579v7.753h-2.664V11.89c0-.875-.238-1.551-.755-2.068-.477-.517-1.153-.795-1.949-.795-.835 0-1.51.278-2.027.795-.517.557-.796 1.233-.796 2.068v7.395h-2.664V6.88h2.465V8.11c.915-.994 2.148-1.51 3.698-1.51 1.511 0 2.625.437 3.46 1.351zM149.86 8.47c1.273 1.232 1.95 2.782 1.95 4.612 0 1.829-.637 3.34-1.95 4.612-1.272 1.272-2.862 1.869-4.651 1.869-1.83 0-3.38-.637-4.652-1.909-1.273-1.233-1.909-2.783-1.909-4.612 0-1.83.636-3.34 1.909-4.613 1.272-1.232 2.823-1.868 4.652-1.868 1.829.04 3.38.676 4.652 1.908zm-7.395 1.749c-.715.755-1.113 1.75-1.113 2.902 0 1.153.358 2.108 1.073 2.863.716.756 1.63 1.153 2.744 1.153 1.113 0 2.028-.397 2.744-1.153.715-.755 1.113-1.71 1.113-2.863s-.358-2.147-1.113-2.902c-.756-.756-1.63-1.153-2.744-1.193-1.034.04-1.988.397-2.704 1.193zM156.7 19.284L154.036 19.284 154.036.318 156.7.318zM170.577 8.47c1.272 1.232 1.948 2.782 1.948 4.612 0 1.829-.636 3.34-1.948 4.612-1.273 1.272-2.863 1.869-4.653 1.869-1.829 0-3.38-.637-4.652-1.909-1.272-1.233-1.908-2.783-1.908-4.612 0-1.83.636-3.34 1.908-4.613 1.273-1.232 2.823-1.868 4.652-1.868 1.79.04 3.34.676 4.653 1.908zm-7.396 1.749c-.716.755-1.113 1.75-1.113 2.902 0 1.153.357 2.108 1.073 2.863.716.756 1.63 1.153 2.744 1.153 1.113 0 2.028-.397 2.743-1.153.716-.755 1.114-1.71 1.114-2.863s-.358-2.147-1.114-2.902c-.755-.756-1.63-1.153-2.743-1.193-1.074.04-1.988.397-2.704 1.193z" transform="translate(0 64)"/>
            <g stroke="#403E3E" stroke-width=".1">
                <path d="M.596 14.592c0-.994.676-1.948 1.79-2.624v-.08c-.636-.357-1.074-.993-1.074-1.908 0-.954.716-1.75 1.352-2.147v-.08c-.795-.596-1.59-1.749-1.59-3.1C1.074 2.106 3.18.516 5.646.516c.676 0 1.272.12 1.71.278h4.254v1.511H9.105c.557.517.994 1.392.994 2.386 0 2.465-1.988 4.016-4.453 4.016-.596 0-1.272-.12-1.829-.398-.437.358-.795.716-.795 1.352 0 .755.517 1.272 2.147 1.272h2.386c2.823 0 4.254.835 4.254 2.784 0 2.147-2.386 4.016-6.163 4.016-2.982-.04-5.05-1.153-5.05-3.142zm9.185-.636c0-1.073-.835-1.431-2.465-1.431H5.21c-.477 0-1.034-.04-1.59-.16-.875.597-1.233 1.273-1.233 1.95 0 1.232 1.312 2.027 3.538 2.027 2.307 0 3.857-1.153 3.857-2.386zm-1.59-9.383c0-1.67-1.153-2.704-2.585-2.704-1.431 0-2.584.994-2.584 2.704 0 1.67 1.193 2.743 2.584 2.743 1.392 0 2.585-1.034 2.585-2.743z" transform="translate(0 64) translate(173.757 6.362)"/>
                <path d="M5.646 17.932c-3.26 0-5.288-1.272-5.288-3.38 0-.993.596-1.948 1.63-2.663-.636-.477-.954-1.153-.954-1.949 0-1.073.795-1.868 1.232-2.226-.755-.636-1.47-1.75-1.47-3.141 0-2.545 2.027-4.374 4.81-4.374.597 0 1.233.12 1.75.278h4.453v2.028H9.622c.438.596.676 1.352.676 2.147 0 2.505-1.948 4.294-4.731 4.294-.597 0-1.233-.119-1.79-.358-.358.279-.556.597-.556 1.074 0 .318 0 .994 1.868.994h2.386c3.022 0 4.493.994 4.493 3.022.08 2.465-2.624 4.254-6.322 4.254zM5.606.716c-2.147 0-4.294 1.312-4.294 3.857 0 1.351.756 2.385 1.471 2.902l.12.08v.397l-.12.08c-.278.199-1.232.914-1.232 1.948 0 .915.517 1.432.954 1.67l.12.08v.397l-.12.08c-1.074.676-1.67 1.51-1.67 2.385 0 1.75 1.829 2.863 4.771 2.863 3.38 0 5.885-1.63 5.885-3.737 0-1.074-.398-2.505-3.976-2.505H5.129c-1.59 0-2.385-.517-2.385-1.511 0-.756.437-1.233.874-1.59l.12-.08.159.08c.517.238 1.153.357 1.71.357 2.465 0 4.214-1.55 4.214-3.777 0-.835-.358-1.67-.914-2.187l-.478-.437h2.903v-.994H7.237c-.279-.2-.835-.358-1.63-.358zm.318 15.865c-2.345 0-3.777-.875-3.777-2.307 0-.556.239-1.391 1.352-2.147l.08-.08.119.04c.636.16 1.232.16 1.51.16h2.108c1.272 0 2.704.198 2.704 1.71 0 1.311-1.511 2.624-4.096 2.624zm-2.226-3.937c-.676.477-1.034 1.074-1.034 1.67 0 1.113 1.272 1.79 3.26 1.79 2.227 0 3.579-1.114 3.579-2.108 0-.596-.278-1.193-2.187-1.193H5.21c-.318 0-.875-.04-1.511-.159zm1.908-5.05c-1.63 0-2.862-1.272-2.862-3.021 0-1.75 1.153-2.983 2.862-2.983 1.71 0 2.863 1.233 2.863 2.983S7.276 7.594 5.606 7.594zm0-5.447c-1.391 0-2.346.994-2.346 2.465 0 1.432.994 2.505 2.346 2.505s2.346-1.034 2.346-2.505c0-1.47-.954-2.465-2.346-2.465z" transform="translate(0 64) translate(173.757 6.362)"/>
            </g>
            <path d="M199.642 6.879l-6.044 13.837c-.516 1.193-1.153 2.028-1.868 2.584-.716.557-1.63.835-2.664.835-.676 0-1.392-.08-2.068-.238V21.63c.795.08 1.272.12 1.471.12.636 0 1.153-.12 1.59-.398.438-.278.796-.756 1.114-1.432l.517-1.153-4.97-11.849h2.863l3.578 9.066 3.658-9.066h2.823v-.04zM30.179 21.59H67.952V23.976H30.179z" transform="translate(0 64)"/>
        </g>
        <g>
            <path fill="url(#prefix__a)" d="M37.286 42.643c-.215-.322-.536-.429-.857-.429H23.036c-.322 0-.643.215-.857.429l-8.143 11.25c-.536.75 0 1.714.857 1.714h29.893c.857 0 1.393-.964.857-1.714l-8.357-11.25z" transform="translate(70)"/>
            <path fill="url(#prefix__b)" d="M31.607 16.5l10.822 7.929c.321.214.642.214.964.107l13.393-4.179c.857-.321 1.071-1.393.321-1.928L32.893.857c-.75-.536-1.714 0-1.714.857v13.929c0 .321.214.75.428.857z" transform="translate(70)"/>
            <path fill="url(#prefix__c)" d="M2.893 20.357l13.286 4.179c.321.107.642 0 .964-.107L27.964 16.5c.322-.214.429-.536.429-.857V1.714c0-.857-.964-1.393-1.714-.857L2.57 18.43c-.75.535-.535 1.714.322 1.928z" transform="translate(70)"/>
            <path fill="url(#prefix__d)" d="M20.036 40.821l-4.179-12.75c-.107-.321-.321-.535-.643-.642l-13.285-4.5C1.07 22.607.32 23.464.536 24.32L9.75 52.714c.321.857 1.393.965 1.929.322l8.25-11.25c.107-.322.214-.643.107-.965z" transform="translate(70)"/>
            <path fill="url(#prefix__e)" d="M57.75 22.929L44.464 27.32c-.321.108-.535.322-.643.643l-4.178 12.857c-.107.322 0 .643.107.965l8.143 11.25c.536.75 1.607.535 1.928-.322l9.215-28.393c.321-.857-.429-1.714-1.286-1.392z" transform="translate(70)"/>
        </g>
    </g>
</svg>
