<svg xmlns="http://www.w3.org/2000/svg" width="36" height="35" viewBox="0 0 36 35">
    <defs>
        <linearGradient id="prefix__a" x1="100%" x2="0%" y1="0%" y2="100%">
            <stop offset="0%" stop-color="#C12D85"/>
            <stop offset="100%" stop-color="#EA3D54"/>
        </linearGradient>
    </defs>
    <g fill="none">
        <path fill="url(#prefix__a)" d="M17.401 34.303c-6.836 0-12.999-4.119-15.615-10.434C-.83 17.553.616 10.283 5.451 5.449 10.285.616 17.555-.83 23.871 1.787c6.315 2.617 10.433 8.78 10.432 15.617-.012 9.329-7.572 16.889-16.902 16.899z" transform="translate(.5)"/>
        <path fill="#FFF" d="M17.401 1c9.058 0 16.401 7.343 16.402 16.4 0 9.058-7.342 16.402-16.4 16.403C8.345 33.803 1 26.46 1 17.403c0-4.35 1.727-8.522 4.803-11.598C8.879 2.728 13.05 1 17.4 1m0-1C7.791 0 .001 7.79 0 17.4c0 9.61 7.79 17.402 17.4 17.403 9.61 0 17.401-7.79 17.403-17.4C34.793 7.798 27.008.013 17.4 0z" transform="translate(.5)"/>
        <path fill="#FFF" d="M12.613 19.044l-.66 2.163-2.138-.028c-1.228-2.49-1.15-5.424.208-7.845l1.89.414.77 1.92c-.413 1.084-.438 2.277-.07 3.376zM25.656 16.168c.476 3.071-.783 6.155-3.273 8.015l-2.393-.205-.267-2.129c1.01-.546 1.801-1.422 2.242-2.482l-4.491-.154.114-3.323 4.557.157 3.51.12z" transform="translate(.5)"/>
        <path fill="#FFF" d="M22.382 24.183c-1.999 1.495-4.56 2.024-6.987 1.443-2.428-.58-4.473-2.21-5.58-4.447l2.798-2.134c.47 1.396 1.532 2.514 2.903 3.055 1.371.54 2.91.449 4.207-.25l2.66 2.333zM22.933 11.172l-2.798 2.134c-1.263-.849-2.845-1.075-4.296-.615-1.45.46-2.613 1.556-3.157 2.977l-2.659-2.334c1.246-2.216 3.43-3.75 5.937-4.17 2.508-.42 5.072.319 6.973 2.008z" transform="translate(.5)"/>
    </g>
</svg>
