<svg xmlns="http://www.w3.org/2000/svg" width="26" height="40" viewBox="0 0 26 40">
    <g fill="none">
        <path fill="#CCF8FF" d="M22.555 11.023v-7.93H3.44v7.93c0 3.525 2.135 6.578 5.248 8.068.788.377.788 1.441 0 1.818-3.114 1.49-5.248 4.543-5.248 8.068v7.93h19.116v-7.93c0-3.525-2.134-6.578-5.248-8.068-.788-.377-.788-1.441 0-1.818 3.114-1.49 5.248-4.543 5.248-8.068z"/>
        <path fill="#ABEBF4" d="M3.439 3.094v7.93c0 3.524 2.135 6.577 5.248 8.067.788.377.788 1.441 0 1.818-3.114 1.49-5.248 4.543-5.248 8.068v7.93h5.085c-1.19-4.281-1.572-8.928.8-11.976 2.746-3.529 2.579-7.334 1.742-10.244-.673-2.34.881-4.721 3.295-5.05 5.563-.758 8.194-3.065 8.194-3.065V3.094H3.44z"/>
        <path fill="#EFD4BF" d="M13.521 9.538C9.108 7.791 5.248 8.721 3.44 9.376v1.647c0 3.525 2.134 6.578 5.248 8.068 0 0 2.67.929 2.67 2.886.018 0 .018.694.014 1.408-.005.852.725 1.546 1.626 1.546.901 0 1.63-.694 1.626-1.546-.004-.714-.004-1.408.014-1.408 0-1.957 2.67-2.886 2.67-2.886 3.114-1.49 5.248-4.543 5.248-8.068 0 0-5.99-.28-9.034-1.485z"/>
        <path fill="#E0C1AD" d="M13.521 9.538C9.108 7.791 5.248 8.721 3.44 9.376v1.647c0 3.525 2.134 6.578 5.248 8.068 0 0 1.985.689 2.532 2.134.656-2.344.395-4.632-.153-6.538-.637-2.213.726-4.465 2.916-4.98-.151-.056-.31-.11-.46-.169z"/>
        <path fill="#EFD4BF" d="M14.623 28.45c0-.852-.731-1.543-1.633-1.543s-1.633.691-1.633 1.544c0 .852.731 1.543 1.633 1.543s1.633-.69 1.633-1.543zM8.79 34.883h8.414s-1.245-2.913-4.207-2.913c-2.963 0-4.207 2.913-4.207 2.913z"/>
        <path fill="#DD9F80" d="M22.9 5.601H3.094C1.709 5.601.586 4.478.586 3.094.586 1.709 1.71.586 3.094.586H22.9c1.385 0 2.508 1.123 2.508 2.508 0 1.384-1.123 2.507-2.508 2.507z"/>
        <path fill="#C68D6D" d="M8.181 3.094c0-1.385 1.123-2.508 2.508-2.508H3.094C1.709.586.586 1.709.586 3.094S1.71 5.6 3.094 5.6h7.595c-1.385 0-2.508-1.123-2.508-2.507z"/>
        <path fill="#DD9F80" d="M22.9 34.399H3.094c-1.385 0-2.508 1.123-2.508 2.507 0 1.385 1.123 2.508 2.508 2.508H22.9c1.385 0 2.508-1.123 2.508-2.508 0-1.384-1.123-2.507-2.508-2.507z"/>
        <path fill="#C68D6D" d="M8.181 36.906c0-1.384 1.123-2.507 2.508-2.507H3.094c-1.385 0-2.508 1.123-2.508 2.507 0 1.385 1.123 2.508 2.508 2.508h7.595c-1.385 0-2.508-1.123-2.508-2.508z"/>
        <path fill="#2D2D2D" d="M19.298 14.762c.324 0 .586-.262.586-.586v-.973c0-.323-.262-.586-.586-.586-.323 0-.586.263-.586.586v.973c0 .324.263.586.586.586zM6.696 12.617c-.324 0-.586.263-.586.586v.973c0 .324.262.586.586.586.323 0 .585-.262.585-.586v-.973c0-.323-.262-.586-.585-.586zM15.25 13.817c-.198-.255-.566-.302-.822-.104-.842.654-2.02.654-2.862 0-.256-.198-.624-.151-.822.104-.199.256-.152.624.103.823.633.49 1.392.736 2.15.736s1.517-.246 2.15-.736c.255-.199.302-.567.103-.823z"/>
        <path fill="#2D2D2D" d="M23.141 33.823v-4.846c0-3.656-2.138-6.95-5.581-8.596-.233-.112-.258-.304-.258-.381 0-.077.025-.27.258-.38 3.443-1.648 5.581-4.941 5.581-8.596V6.177c1.594-.124 2.853-1.459 2.853-3.083C25.994 1.388 24.606 0 22.9 0H3.094C1.388 0 0 1.388 0 3.094c0 1.624 1.26 2.96 2.853 3.083v4.847c0 3.655 2.139 6.948 5.581 8.595.233.112.258.304.258.381 0 .077-.025.27-.258.38-1.644.787-3.033 1.985-4.018 3.463-.18.269-.108.635.163.812.33.217.7.007.812-.163.868-1.303 2.095-2.359 3.55-3.054.449-.215.763-.604.876-1.06.633.49.954 1.027.954 1.6 0 .034.02.459.014 1.404-.003.553.219 2.135 2.212 2.135s2.215-1.582 2.212-2.135c-.005-.945.013-1.37.013-1.405 0-.572.321-1.11.954-1.6.113.457.428.846.878 1.06 3.032 1.451 4.915 4.34 4.915 7.54v4.836h-4.704c-.652-.963-2.015-2.429-4.268-2.429-2.253 0-3.616 1.466-4.268 2.429H4.025v-4.836c0-.81.121-1.611.36-2.38.097-.31-.076-.638-.385-.734-.309-.096-.638.076-.734.385-.274.882-.413 1.8-.413 2.729v4.846C1.259 33.947 0 35.282 0 36.906 0 38.612 1.388 40 3.094 40H22.9c1.706 0 3.094-1.388 3.094-3.094 0-1.624-1.26-2.96-2.853-3.083zM1.172 3.093c0-1.059.862-1.921 1.922-1.921H22.9c1.06 0 1.922.862 1.922 1.922S23.96 5.016 22.9 5.016h-3.755c-.323 0-.586.262-.586.586 0 .323.263.585.586.585h2.824v4.214c-1.588-.107-5.873-.474-8.232-1.407-4.013-1.589-7.577-1.061-9.712-.427v-2.38h12.69c.324 0 .587-.262.587-.586 0-.323-.263-.586-.586-.586H3.094c-1.06 0-1.922-.862-1.922-1.921zm12.879 18.871c-.02.233-.018.64-.014 1.424.001.24-.142.957-1.04.957s-1.041-.718-1.04-.957c.004-.783.007-1.19-.014-1.423-.01-2.221-2.667-3.281-3.025-3.414-3.019-1.453-4.893-4.336-4.893-7.527v-1.23c1.914-.624 5.365-1.261 9.281.289 2.569 1.017 7.047 1.389 8.644 1.492-.203 2.97-2.03 5.607-4.874 6.976-.356.132-3.015 1.194-3.025 3.413zm-1.054 10.592c1.264 0 2.174.624 2.772 1.257h-5.544c.598-.633 1.508-1.257 2.772-1.257zm9.903 6.272H3.094c-1.06 0-1.922-.862-1.922-1.922s.862-1.921 1.922-1.921H22.9c1.06 0 1.922.862 1.922 1.921 0 1.06-.862 1.922-1.922 1.922z"/>
        <path fill="#000" d="M15.209 28.45c0-1.174-.995-2.13-2.219-2.13-1.223 0-2.219.956-2.219 2.13 0 1.175.996 2.13 2.22 2.13 1.223 0 2.218-.955 2.218-2.13zm-3.266 0c0-.528.47-.957 1.047-.957.578 0 1.047.43 1.047.958s-.47.957-1.047.957-1.047-.43-1.047-.957z"/>
    </g>
</svg>
