<svg xmlns="http://www.w3.org/2000/svg" width="25" height="20" viewBox="0 0 25 20">
    <g fill="#2D2D2D">
        <path d="M22.36 9.766l2.297-2.297c.457-.457.457-1.2 0-1.657-.458-.458-1.2-.458-1.658 0l-2.296 2.296-2.296-2.296c-.458-.458-1.2-.458-1.657 0-.458.458-.458 1.2 0 1.657l2.296 2.297-2.296 2.296c-.458.458-.458 1.2 0 1.657.228.23.528.344.828.344.3 0 .6-.115.829-.344l2.296-2.296L23 13.719c.23.23.53.344.83.344.3 0 .599-.115.828-.344.457-.457.457-1.2 0-1.657L22.36 9.766zM4.834 5.078H2.148C.962 5.078 0 6.04 0 7.227v5.078c0 1.186.962 2.148 2.148 2.148h2.686c.135 0 .244-.11.244-.244V5.322c0-.135-.11-.244-.244-.244zM13.672 0H12.5c-.257 0-.507.085-.712.241L6.736 4.104c-.06.046-.095.118-.095.194v10.935c0 .076.035.148.095.194l5.052 3.863c.205.157.455.241.712.241h1.172c.647 0 1.172-.524 1.172-1.172V1.172C14.844.525 14.319 0 13.672 0z"/>
    </g>
</svg>
