<svg xmlns="http://www.w3.org/2000/svg" width="22" height="22" viewBox="0 0 22 22">
    <g fill="none">
        <circle cx="11" cy="11" r="11" fill="#4A4A4A"/>
        <path fill="#2D2D2D" d="M22 11.131C22 17.11 17.11 22 11.131 22c-3.464 0-6.521-1.562-8.491-4.076 1.834 1.495 4.212 2.378 6.793 2.378 5.978 0 10.869-4.891 10.869-10.869 0-2.581-.883-4.959-2.378-6.793C20.438 4.61 22 7.667 22 11.131z"/>
        <path fill="#FFF" d="M16.53 11.848l-8 5C8.368 16.95 8.184 17 8 17c-.167 0-.334-.041-.485-.125C7.197 16.698 7 16.364 7 16V6c0-.363.197-.698.515-.874.318-.177.707-.167 1.015.026l8 5c.292.183.47.504.47.848 0 .345-.178.665-.47.848z"/>
    </g>
</svg>
