<svg xmlns="http://www.w3.org/2000/svg" width="22" height="22" viewBox="0 0 22 22">
    <g fill="none">
        <path fill="#EA3D54" d="M18.747 18.084c-.19.048-.31.233-.278.426l.489 3.039c.03.165-.051.33-.201.407-.15.077-.332.045-.448-.077l-3.18-3.546c-.071-.08-.174-.126-.281-.126H4.172c-1.106 0-2.167-.44-2.95-1.222C.44 16.202 0 15.14 0 14.035V4.171C0 1.868 1.868 0 4.172 0h13.656C20.132 0 22 1.868 22 4.172v9.862c-.024 1.938-1.366 3.61-3.253 4.05z"/>
        <path fill="#FFF" d="M1.517 4.552c-.21 0-.38-.17-.38-.38.003-1.675 1.36-3.032 3.035-3.034.21 0 .38.17.38.38 0 .209-.17.379-.38.379-1.256 0-2.274 1.019-2.275 2.275 0 .101-.04.197-.112.269-.07.07-.167.11-.268.11z"/>
        <circle cx="5.69" cy="1.517" r="1" fill="#FFF"/>
        <g fill="#FFF" transform="translate(3.414 7.586)">
            <circle cx="1.517" cy="1.517" r="1.517"/>
            <circle cx="7.586" cy="1.517" r="1.517"/>
            <circle cx="13.655" cy="1.517" r="1.517"/>
        </g>
    </g>
</svg>
