<svg xmlns="http://www.w3.org/2000/svg" width="22" height="22" viewBox="0 0 22 22">
    <g fill="none">
        <path fill="#B6B6B6" d="M18.468 18.51l.49 3.039c.03.163-.052.33-.202.408-.15.077-.331.043-.447-.077l-3.18-3.545c-.073-.082-.176-.125-.283-.125H4.172c-1.108 0-2.17-.438-2.952-1.22C.438 16.204 0 15.142 0 14.034V4.172C0 1.87 1.87 0 4.172 0h13.656C20.13 0 22 1.87 22 4.172v9.862c-.026 1.937-1.366 3.609-3.253 4.052-.189.047-.31.232-.279.425z"/>
        <path fill="#A7A7A7" d="M1.517 4.55c-.21 0-.378-.171-.378-.378 0-1.676 1.357-3.033 3.033-3.033.21 0 .378.172.378.378 0 .206-.171.378-.378.378-1.254 0-2.273 1.018-2.277 2.277 0 .1-.039.198-.112.267-.069.073-.163.111-.266.111z"/>
        <circle cx="5.689" cy="1.517" r="1" fill="#A7A7A7"/>
        <g fill="#EFEFEF" transform="translate(3.395 7.563)">
            <circle cx="1.538" cy="1.543" r="1.517"/>
            <circle cx="7.605" cy="1.543" r="1.517"/>
            <circle cx="13.673" cy="1.543" r="1.517"/>
        </g>
    </g>
</svg>
