<svg xmlns="http://www.w3.org/2000/svg" width="30" height="22" viewBox="0 0 30 22">
    <g fill="none" opacity=".698">
        <path fill="#494949" d="M21.731 9.187v.34c0 .415.064.83.199 1.222l.766 2.304h1.45v-5.31h-.965c-.8-.006-1.45.643-1.45 1.444z"/>
        <path fill="#545454" d="M28.345 10.193l-.819 2.86-3.865-3.38c-.532 0-.965-.433-.965-.965 0-.802.649-1.45 1.45-1.45h3.38c.532 0 .965.432.965.964v.907c0 .356-.047.713-.146 1.064z"/>
        <path fill="#B9B9B9" d="M23.661 14.497H26.556V16.631999999999998H23.661z"/>
        <path fill="#A7A7A7" d="M23.66 15.386c.451.181.936.287 1.451.287s1-.106 1.45-.287v-.889h-2.894l-.006.889z"/>
        <path fill="#DCDCDC" d="M28.889 16.34l-2.328-.667-1.45.959-1.45-.96-2.328.667c-.62.176-1.052.749-1.052 1.392v3.532c0 .27.216.486.485.486h8.69c.27 0 .486-.217.486-.486v-3.532c0-.65-.427-1.216-1.053-1.392z"/>
        <path fill="#B9B9B9" d="M25.596 21.743L24.632 21.743 24.871 16.637 25.351 16.637z"/>
        <path fill="#C8C8C8" d="M25.111 14.982c-1.602 0-2.895-1.298-2.895-2.894v-.568c0-.257.1-.502.281-.684l.877-.877c.187-.187.439-.292.702-.286 1.544.046 2.912.38 3.655 1.11.181.182.28.428.28.685v.614c0 1.602-1.298 2.9-2.9 2.9z"/>
        <path fill="#B9B9B9" d="M23.66 11.637c0-.555.469-1 1.024-.964.977.064 2.421.228 3.31.649-.03-.205-.117-.398-.263-.544-.749-.731-2.111-1.059-3.655-1.111-.263-.006-.515.1-.702.286l-.877.877c-.181.182-.28.427-.28.685v.567c0 1.322.882 2.433 2.093 2.783-.404-.497-.643-1.128-.643-1.818l-.006-1.41z"/>
        <path fill="#CFCFCF" d="M28.012 19.17c0-.386.152-.755.427-1.024l1.245-1.245c.164.24.263.526.263.83v3.532c0 .27-.216.486-.485.486h-1.45v-2.58z"/>
        <path fill="#9D9D9D" d="M25.35 17.602h-.485c-.134 0-.24-.105-.24-.24v-.725h.966v.726c.005.134-.106.24-.24.24z"/>
        <g fill="#CFCFCF">
            <path d="M2.012 1.368l-.819.626c-.14.105-.345.064-.433-.093L.023.56l.299-.45c.064-.1.204-.117.292-.035l1.398 1.292zM2.012 1.368l.818.626c.14.105.345.064.433-.093L4 .56l-.298-.45c-.065-.1-.205-.117-.293-.035L2.012 1.368z" transform="translate(23.1 15.263)"/>
        </g>
        <path fill="#494949" d="M8.643 14.778c-.415-1.094-.742-2.971-.813-3.953-.134-1.86-1.538-3.38-3.432-3.38-1.895 0-3.299 1.52-3.433 3.38-.07.976-.398 2.86-.813 3.953-.094.24.012.509.252.614.444.199 1.385.59 2.52.748h2.941c1.135-.152 2.082-.544 2.521-.748.246-.105.35-.369.257-.614z"/>
        <path fill="#545454" d="M8.392 15.398c.24-.106.345-.375.251-.614-.415-1.094-.742-2.971-.813-3.954-.134-1.86-1.538-3.38-3.432-3.38h-.012c-1.456.006-1.97 1.994-.72 2.731.077.047.123.065.123.065l1.1 5.894h.982c1.129-.152 2.082-.544 2.52-.742z"/>
        <path fill="#B9B9B9" d="M7.889 17.111l-1.562-.784c-.327-.163-.532-.497-.532-.865v-1.45h-2.9v1.45c0 .368-.205.702-.532.865L.8 17.111C.31 17.357 0 17.86 0 18.404v2.853c0 .27.216.486.485.486h7.726c.269 0 .485-.217.485-.486v-2.853c-.006-.544-.316-1.047-.807-1.293z"/>
        <path fill="#A7A7A7" d="M4.345 15.947c.52 0 1.018-.105 1.474-.298-.012-.058-.024-.123-.024-.187v-1.45h-2.9v1.45c0 .064-.012.123-.024.187.456.193.954.298 1.474.298z"/>
        <path fill="#DCDCDC" d="M7.889 17.111l-1.111-.555c-.515.795-1.41 1.327-2.433 1.327s-1.918-.526-2.433-1.327l-1.11.555C.31 17.357 0 17.86 0 18.404v2.853c0 .27.216.486.485.486h7.726c.269 0 .485-.217.485-.486v-2.853c-.006-.544-.316-1.047-.807-1.293z"/>
        <path fill="#C8C8C8" d="M4.345 14.982c-1.474 0-2.69-1.099-2.871-2.52-.03-.205.07-.41.257-.503.222-.111.544-.304.854-.579.345-.31.544-.631.66-.871.1-.205.322-.322.544-.263 1.702.432 2.86 1.315 3.281 1.678.111.1.176.24.164.386-.117 1.497-1.363 2.672-2.889 2.672z"/>
        <path fill="#B9B9B9" d="M7.07 11.924c-.42-.363-1.579-1.246-3.28-1.678-.223-.059-.445.058-.544.263-.088.181-.228.41-.439.643-.064.076-.134.152-.216.222-.31.275-.632.468-.854.58-.187.093-.287.297-.257.502.163 1.28 1.163 2.298 2.432 2.491-.579-.391-1.011-.935-1.011-1.9v-.69c.11-.082.222-.164.333-.263.269-.24.503-.515.69-.813 1.298.403 2.181 1.082 2.515 1.368.093.082.315.293.584.538.117-.275.188-.573.217-.883.006-.14-.059-.28-.17-.38z"/>
        <path fill="#CFCFCF" d="M.292 17.538c-.187.246-.292.55-.292.871v2.854c0 .27.216.486.485.486H1.93v-2.433c0-.293-.135-.573-.363-.755L.292 17.538z"/>
        <path fill="#898989" d="M21.906 16.45l-4.04-1.468-2.895.965-2.895-.965-4.04 1.468c-.767.275-1.27 1.006-1.27 1.813v2.994c0 .27.216.486.485.486h15.457c.269 0 .485-.217.485-.486v-2.994c-.012-.807-.52-1.532-1.287-1.813z"/>
        <path fill="#757575" d="M14.462 16.912L14.006 21.743 15.936 21.743 15.48 16.912z"/>
        <path fill="#5E5E5E" d="M15.48 17.579h-1.012c-.187 0-.34-.152-.34-.34v-1.292h1.69v1.293c0 .187-.151.339-.338.339z"/>
        <path fill="#6E6E6E" d="M22.66 16.953c.328.351.521.819.521 1.316v2.994c0 .27-.216.486-.485.486H20.28v-1.614c0-.515.204-1.006.567-1.369l1.813-1.813z"/>
        <path fill="#494949" d="M20.28 5.023V.977c0-.533-.432-.965-.964-.965H13.52c-2.134 0-3.865 1.73-3.865 3.865v1.146c0 .52.082 1.035.246 1.527l.157.48c.047.145.077.303.077.455v.246h9.66v-.246c0-.158.024-.31.076-.456l.158-.48c.17-.49.252-1.005.252-1.526z"/>
        <path fill="#545454" d="M12.076 1.97c0 1.083.877 1.96 1.96 1.96h.268l.129 3.801h5.362v-.246c0-.158.024-.31.076-.456l.158-.48c.164-.49.246-1.005.246-1.526V.977c0-.533-.433-.965-.965-.965h-5.275c-1.082 0-1.959.877-1.959 1.959z"/>
        <path fill="#B9B9B9" d="M12.07 11.602H17.865000000000002V15.947H12.07z"/>
        <path fill="#A7A7A7" d="M12.076 13.234c.854.497 1.842.784 2.895.784 1.052 0 2.047-.287 2.894-.784v-1.632H12.07l.006 1.632z"/>
        <g fill="#6E6E6E">
            <path d="M3.86 1.795L2.322 3.333c-.205.205-.55.182-.726-.046L0 1.18.415.298c.123-.257.445-.356.69-.204L3.86 1.795zM3.86 1.795l1.538 1.538c.204.205.55.182.725-.046L7.719 1.18 7.304.298c-.123-.257-.444-.356-.69-.204L3.86 1.795z" transform="translate(11.111 14.152)"/>
        </g>
        <path fill="#C8C8C8" d="M14.97 13.053c-2.666 0-4.83-2.164-4.83-4.83v-.568c0-.257.1-.503.281-.684l.398-.398c.181-.181.28-.427.28-.684V4.73c0-.222.152-.415.369-.468 1.14-.269 4.696-.906 7.117.872.158.116.245.304.245.502v.258c0 .257.1.503.281.684l.398.398c.181.18.28.427.28.684v.567c.012 2.66-2.152 4.825-4.818 4.825z"/>
        <path fill="#B9B9B9" d="M18.59 5.135C16.89 3.883 14.633 3.83 13.04 4c-.672.07-1.221.181-1.56.263-.217.053-.369.246-.369.468v1.158c0 .257-.1.503-.28.684l-.398.398c-.182.181-.281.427-.281.684v.567c0 2.468 1.854 4.503 4.246 4.79-.83-.866-1.351-2.041-1.351-3.34V6.14c0-.49.362-.9.848-.959 1.158-.146 3.28-.234 4.947.708v-.257c-.006-.193-.093-.386-.251-.497z"/>
        <path fill="#6E6E6E" d="M7.28 16.953c-.327.351-.52.819-.52 1.316v2.994c0 .27.217.486.486.486H9.66v-1.614c0-.515-.205-1.006-.567-1.369L7.28 16.953z"/>
    </g>
</svg>
