<svg xmlns="http://www.w3.org/2000/svg" width="30" height="22" viewBox="0 0 30 22">
    <g fill="none">
        <path fill="#5A4146" d="M21.774 9.205v.34c0 .415.067.829.199 1.223l.769 2.308h1.452V7.753h-.968c-.802 0-1.452.65-1.452 1.452z"/>
        <path fill="#694B4B" d="M28.4 10.21l-.82 2.866-3.87-3.387c-.535 0-.968-.434-.968-.968 0-.802.65-1.452 1.452-1.452h3.387c.534 0 .967.434.967.968v.91c0 .36-.05.717-.149 1.063z"/>
        <path fill="#E6AF78" d="M23.709 14.528H26.612V16.67H23.709z"/>
        <path fill="#D29B6E" d="M23.71 15.416c.448.183.938.285 1.451.285.514 0 1.003-.102 1.452-.285v-.889H23.71v.89z"/>
        <path fill="#D5DCED" d="M28.947 16.368l-2.334-.667-1.452.964-1.451-.964-2.335.667c-.623.178-1.052.748-1.052 1.396v3.538c0 .267.216.484.483.484h8.71c.267 0 .484-.217.484-.484v-3.538c0-.648-.43-1.218-1.053-1.396z"/>
        <path fill="#AFB9D2" d="M25.645 21.785L24.677 21.785 24.919 16.669 25.403 16.669z"/>
        <path fill="#F0C087" d="M25.161 15.011c-1.603 0-2.903-1.3-2.903-2.903v-.567c0-.256.102-.503.283-.684l.878-.878c.186-.185.44-.292.702-.284 1.547.049 2.916.38 3.665 1.111.183.18.279.43.279.686v.616c0 1.604-1.3 2.903-2.904 2.903z"/>
        <path fill="#E6AF78" d="M23.71 11.661c0-.558.468-1.002 1.025-.966.977.062 2.427.225 3.316.653-.029-.204-.117-.397-.265-.542-.749-.73-2.118-1.062-3.665-1.111-.262-.008-.516.099-.702.284l-.877.878c-.182.181-.284.427-.284.684v.567c0 1.324.887 2.439 2.099 2.788-.403-.498-.647-1.13-.647-1.82V11.66z"/>
        <path fill="#C7CFE2" d="M28.065 19.206c0-.385.152-.754.425-1.027l1.245-1.245c.167.238.265.524.265.83v3.538c0 .267-.217.484-.484.484h-1.451v-2.58z"/>
        <path fill="#959CB5" d="M25.403 17.637h-.484c-.133 0-.242-.109-.242-.242v-.726h.968v.726c0 .133-.108.242-.242.242z"/>
        <g fill="#C7CFE2">
            <path d="M2.017 1.372l-.82.626c-.142.108-.346.065-.431-.091L.03.563.326.112C.392.012.532-.006.62.076l1.397 1.296zM2.017 1.372l.82.626c.141.108.345.065.43-.091L4.004.563 3.707.112c-.065-.1-.205-.118-.293-.036L2.017 1.372z" transform="translate(23.145 15.293)"/>
        </g>
        <path fill="#5A4146" d="M8.661 14.81c-.413-1.096-.741-2.98-.812-3.96-.135-1.866-1.54-3.387-3.442-3.387-1.9 0-3.307 1.52-3.442 3.387-.07.98-.398 2.864-.812 3.96-.09.24.014.507.252.615.443.2 1.388.594 2.527.747h2.95c1.134-.153 2.086-.547 2.527-.747.238-.108.344-.374.252-.616z"/>
        <path fill="#694B4B" d="M8.41 15.425c.237-.108.343-.374.251-.616-.413-1.095-.741-2.979-.812-3.96-.135-1.865-1.54-3.386-3.442-3.386h-.014c-1.459.006-1.974 1.995-.718 2.737.075.045.123.066.123.066l1.1 5.906h.984c1.134-.153 2.086-.547 2.528-.747z"/>
        <path fill="#E6AF78" d="M7.907 17.144l-1.566-.783c-.328-.164-.535-.5-.535-.866v-1.451H2.904v1.451c0 .367-.207.702-.535.866l-1.566.783C.311 17.39 0 17.892 0 18.442v2.86c0 .267.217.483.484.483h7.742c.267 0 .484-.216.484-.483v-2.86c0-.55-.311-1.052-.803-1.298z"/>
        <path fill="#D29B6E" d="M4.355 15.979c.52 0 1.02-.107 1.477-.299-.012-.06-.026-.121-.026-.185v-1.451H2.904v1.451c0 .064-.014.125-.026.186.458.19.957.298 1.478.298z"/>
        <path fill="#D5DCED" d="M7.907 17.144l-1.115-.558c-.518.799-1.415 1.329-2.437 1.329-1.023 0-1.92-.53-2.437-1.329l-1.116.558C.311 17.39 0 17.892 0 18.442v2.86c0 .267.217.483.484.483h7.742c.267 0 .484-.216.484-.483v-2.86c0-.55-.311-1.052-.803-1.298z"/>
        <path fill="#F0C087" d="M4.355 15.011c-1.476 0-2.695-1.101-2.88-2.527-.026-.207.073-.41.26-.503.222-.112.546-.302.856-.579.345-.308.547-.632.662-.87.098-.206.325-.322.545-.266 1.704.435 2.864 1.321 3.285 1.683.113.097.178.24.166.389-.117 1.496-1.368 2.673-2.894 2.673z"/>
        <path fill="#E6AF78" d="M7.083 11.949c-.421-.362-1.581-1.248-3.285-1.683-.22-.056-.447.06-.545.265-.087.18-.23.41-.442.646v.001c-.067.075-.137.15-.22.224-.31.277-.634.467-.857.579-.186.094-.285.296-.258.503.165 1.28 1.167 2.3 2.439 2.494-.58-.394-1.012-.936-1.012-1.902v-.69c.11-.081.22-.162.332-.261.269-.24.504-.518.692-.817 1.303.407 2.187 1.084 2.522 1.372.092.08.32.29.585.54.115-.275.19-.571.215-.882.012-.149-.053-.292-.166-.39z"/>
        <path fill="#C7CFE2" d="M.295 17.57c-.186.247-.295.55-.295.872v2.86c0 .267.217.483.484.483h1.451v-2.438c0-.294-.133-.572-.363-.755L.295 17.57z"/>
        <path fill="#FF507D" d="M21.952 16.483l-4.049-1.472L15 15.98l-2.903-.968-4.049 1.473c-.765.278-1.274 1.005-1.274 1.818v3c0 .267.217.484.484.484h15.484c.267 0 .484-.217.484-.484v-3c0-.813-.51-1.54-1.274-1.819z"/>
        <path fill="#707487" d="M14.493 16.947L14.032 21.785 15.968 21.785 15.507 16.947z"/>
        <path fill="#5B5D6E" d="M15.508 17.612h-1.016c-.187 0-.339-.152-.339-.34V15.98h1.694v1.294c0 .187-.152.339-.339.339z"/>
        <path fill="#D23C69" d="M22.705 16.984c.327.35.52.817.52 1.318v3c0 .267-.216.483-.483.483h-2.42v-1.617c0-.514.205-1.006.567-1.369l1.816-1.815z"/>
        <path fill="#5A4146" d="M20.323 5.033V.979c0-.534-.434-.968-.968-.968h-5.807c-2.137 0-3.87 1.733-3.87 3.871v1.15c0 .52.083 1.037.248 1.53l.16.484c.05.148.075.303.075.459v.248h9.678v-.248c0-.156.025-.311.074-.46l.161-.482c.165-.494.249-1.01.249-1.53z"/>
        <path fill="#694B4B" d="M12.097 1.977c0 1.086.88 1.966 1.966 1.966h.272l.131 3.81h5.373v-.248c0-.156.025-.311.074-.46l.161-.482c.165-.494.249-1.01.249-1.53V.978c0-.534-.434-.968-.968-.968h-5.293c-1.085 0-1.965.88-1.965 1.966z"/>
        <path fill="#E6AF78" d="M12.097 11.624H17.904V15.979000000000001H12.097z"/>
        <path fill="#D29B6E" d="M12.097 13.26c.855.496 1.844.784 2.903.784s2.048-.288 2.903-.784v-1.636h-5.806v1.636z"/>
        <g fill="#D23C69">
            <path d="M3.926 1.8L2.383 3.342c-.208.207-.55.184-.728-.05l-1.6-2.108.418-.882c.124-.26.446-.356.691-.205l2.762 1.701z" transform="translate(11.074 14.18)"/>
            <path d="M3.926 1.8l1.543 1.543c.207.207.55.184.728-.05l1.6-2.108-.419-.882c-.123-.26-.445-.356-.69-.205L3.925 1.799z" transform="translate(11.074 14.18)"/>
        </g>
        <path fill="#F0C087" d="M15 13.076c-2.672 0-4.839-2.167-4.839-4.839V7.67c0-.256.102-.503.284-.684l.4-.4c.182-.182.284-.429.284-.685V4.74c0-.224.15-.419.368-.47 1.145-.27 4.706-.91 7.13.871.157.116.244.306.244.502V5.9c0 .256.102.503.283.684l.401.4c.182.182.284.429.284.685v.567c0 2.672-2.167 4.839-4.839 4.839z"/>
        <path fill="#E6AF78" d="M18.627 5.143c-1.705-1.254-3.97-1.308-5.562-1.137-.673.073-1.228.185-1.567.265-.218.051-.369.246-.369.47V5.9c0 .256-.102.503-.283.684l-.401.401c-.182.181-.284.428-.284.684v.567c0 2.474 1.858 4.511 4.254 4.8-.835-.87-1.35-2.048-1.35-3.348V6.152c0-.49.364-.9.85-.961 1.162-.146 3.289-.233 4.956.71v-.257c0-.196-.087-.386-.244-.501z"/>
        <path fill="#D23C69" d="M7.295 16.984c-.327.35-.52.817-.52 1.318v3c0 .267.216.483.483.483h2.42v-1.617c0-.514-.205-1.006-.567-1.369l-1.816-1.815z"/>
    </g>
</svg>
