<svg xmlns="http://www.w3.org/2000/svg" width="22" height="22" viewBox="0 0 22 22">
    <g fill="none">
        <circle cx="11" cy="11" r="11" fill="#4A4A4A"/>
        <path fill="#2D2D2D" d="M22 11.131C22 17.11 17.11 22 11.131 22c-3.464 0-6.521-1.562-8.491-4.076 1.834 1.495 4.212 2.378 6.793 2.378 5.978 0 10.869-4.891 10.869-10.869 0-2.581-.883-4.959-2.378-6.793C20.438 4.61 22 7.667 22 11.131z"/>
        <g fill="#FFF">
            <path d="M1.223 13.308c.016.377.326.674.703.674h6.57c.376 0 .686-.297.702-.674l.47-9.903H.753l.47 9.903zm5.474-7.443c0-.158.128-.286.286-.286h.457c.157 0 .285.128.285.286v5.658c0 .157-.127.285-.285.285h-.457c-.158 0-.286-.128-.286-.285V5.865zm-2 0c0-.158.127-.286.285-.286h.457c.158 0 .286.128.286.286v5.658c0 .157-.128.285-.286.285h-.457c-.158 0-.286-.128-.286-.285V5.865zm-2.001 0c0-.158.128-.286.286-.286h.457c.158 0 .286.128.286.286v5.658c0 .157-.128.285-.286.285h-.457c-.158 0-.286-.128-.286-.285V5.865zM9.98.72H6.95V.147C6.95.066 6.882 0 6.801 0H3.619c-.08 0-.147.066-.147.147V.72H.442C.198.72 0 .918 0 1.162v1.387h10.421V1.162c0-.244-.197-.442-.441-.442z" transform="translate(6 4)"/>
        </g>
    </g>
</svg>
