<svg xmlns="http://www.w3.org/2000/svg" width="25" height="20" viewBox="0 0 25 20">
    <g fill="#2D2D2D" opacity=".2">
        <path d="M17.477 15.183c-.285 0-.57-.104-.796-.312-.475-.44-.503-1.182-.063-1.656.87-.941 1.35-2.166 1.35-3.45 0-1.283-.48-2.507-1.35-3.448-.44-.475-.412-1.217.063-1.656.475-.44 1.217-.412 1.656.063 1.274 1.376 1.976 3.166 1.976 5.042 0 1.875-.702 3.665-1.976 5.041-.23.25-.545.376-.86.376z"/>
        <path d="M20.615 18.681c-.3 0-.601-.115-.83-.344-.457-.458-.456-1.2.002-1.657 1.85-1.846 2.87-4.301 2.87-6.914 0-2.614-1.02-5.07-2.87-6.914-.458-.457-.46-1.2-.002-1.658.457-.458 1.199-.459 1.657-.002C23.737 3.48 25 6.525 25 9.766c0 3.24-1.263 6.285-3.558 8.573-.228.228-.528.342-.827.342zM4.834 5.078H2.148C.962 5.078 0 6.04 0 7.227v5.078c0 1.186.962 2.148 2.148 2.148h2.686c.135 0 .244-.11.244-.244V5.322c0-.135-.11-.244-.244-.244zM13.672 0H12.5c-.257 0-.507.085-.712.241L6.736 4.104c-.06.046-.095.118-.095.194v10.935c0 .076.035.148.095.194l5.052 3.863c.205.157.455.241.712.241h1.172c.647 0 1.172-.524 1.172-1.172V1.172C14.844.525 14.319 0 13.672 0z"/>
    </g>
</svg>
