<svg xmlns="http://www.w3.org/2000/svg" width="17" height="18" viewBox="0 0 17 18">
    <g fill="#4A4A4A">
        <path d="M5.276 7.395c-.2.2-.2.519 0 .718l2.69 2.69c.098.098.23.151.358.151.127 0 .259-.049.357-.15l2.69-2.69c.2-.2.2-.52 0-.719-.199-.199-.518-.199-.718 0L8.831 9.218V.508C8.83.224 8.605 0 8.324 0c-.282 0-.508.225-.508.507v8.711L5.994 7.395c-.2-.199-.523-.199-.718 0z"/>
        <path d="M16.617 11.552l-1.766-6.389c-.041-.146-.143-.263-.278-.327l-.049-.022c-.068-.03-.139-.045-.21-.045H11.13c-.282 0-.508.225-.508.507 0 .282.226.507.508.507h2.84l1.492 5.404h-3.945c-.282 0-.508.226-.508.507v.459c0 .672-.544 1.217-1.217 1.217H6.696c-.672 0-1.217-.545-1.217-1.217v-.459c0-.281-.226-.507-.507-.507H1.18l1.5-5.415h2.84c.282 0 .508-.225.508-.507 0-.282-.226-.508-.508-.508H2.334c-.072 0-.143.015-.21.046l-.05.022c-.135.064-.24.18-.278.327L.03 11.54c-.011.045-.019.09-.019.136v2.664c0 2.018 1.642 3.66 3.66 3.66h9.305c2.018 0 3.66-1.642 3.66-3.66v-2.653c0-.049-.004-.094-.019-.135zm-.996 2.788c0 1.458-1.187 2.645-2.645 2.645H3.67c-1.458 0-2.645-1.187-2.645-2.645v-2.138h3.446c.026 1.206 1.018 2.18 2.232 2.18H9.8c1.214 0 2.206-.974 2.233-2.18h3.596v2.138h-.008z"/>
    </g>
</svg>
