<svg xmlns="http://www.w3.org/2000/svg" width="35" height="35" viewBox="0 0 35 35">
    <defs>
        <linearGradient id="prefix__a" x1="100%" x2="0%" y1="0%" y2="100%">
            <stop offset="0%" stop-color="#C12D85"/>
            <stop offset="100%" stop-color="#EA3D54"/>
        </linearGradient>
    </defs>
    <g fill="none" fill-rule="evenodd">
        <path fill="url(#prefix__a)" fill-rule="nonzero" d="M17.401 34.303c-6.836 0-12.999-4.119-15.615-10.434C-.83 17.553.616 10.283 5.451 5.449 10.285.616 17.555-.83 23.871 1.787c6.315 2.617 10.433 8.78 10.432 15.617-.012 9.329-7.572 16.889-16.902 16.899z"/>
        <path fill="#FFF" fill-rule="nonzero" d="M17.401 1c9.058 0 16.401 7.343 16.402 16.4 0 9.058-7.342 16.402-16.4 16.403C8.345 33.803 1 26.46 1 17.403c0-4.35 1.727-8.522 4.803-11.598C8.879 2.728 13.05 1 17.4 1m0-1C7.791 0 .001 7.79 0 17.4c0 9.61 7.79 17.402 17.4 17.403 9.61 0 17.401-7.79 17.403-17.4C34.793 7.798 27.008.013 17.4 0z"/>
        <path fill="#FFF" d="M19.592 12.754c.438-.017.876-.004 1.314-.008h.18v-2.273c-.233-.02-.48-.055-.722-.066-.45-.019-.898-.045-1.346-.034-.68-.004-1.343.201-1.902.587-.622.454-1.034 1.14-1.143 1.901-.05.322-.076.648-.079.974-.013.512-.002 1.02-.002 1.531v.194h-2.175v2.542h2.164v6.383h2.643v-6.374h2.157c.111-.846.218-1.682.333-2.553h-.487c-.612.002-2.02 0-2.02 0s.006-1.262.022-1.806c.02-.75.464-.978 1.063-.998z"/>
    </g>
</svg>
