<svg id="Layer_1" data-name="Layer 1" xmlns="http://www.w3.org/2000/svg" viewBox="0 0 29.07196 27.20012">
	<defs>
		<style>.cls-1{fill:#61c0c4;opacity:0.6;}.cls-2{fill:#fff;}</style>
	</defs>
	<title>like</title>
	<path class="cls-1"
		  d="M17.2583,30.44043C7.04639,23.66406,2.03516,16.01953,3.853,9.99072a7.68991,7.68991,0,0,1,7.43115-5.46728,8.78542,8.78542,0,0,1,6.25049,2.73584,8.78457,8.78457,0,0,1,6.25049-2.73584,7.6877,7.6877,0,0,1,7.42968,5.46728C33.0332,16.02051,28.02246,23.665,17.811,30.44043l-.27637.18262Z"
		  transform="translate(-2.99821 -4.02365)"/>
	<path class="cls-2"
		  d="M23.78522,5.02365c7.66979.0012,13.85391,11.66036-6.25066,25-20.10588-13.34068-13.92109-25-6.25057-25A8.37715,8.37715,0,0,1,17.53456,7.988a8.37408,8.37408,0,0,1,6.25066-2.96436m.00016-1h-.00132a9.19176,9.19176,0,0,0-6.24951,2.54123A9.19325,9.19325,0,0,0,11.284,4.02365a8.18634,8.18634,0,0,0-7.9095,5.82282c-.90532,3.00187-1.39172,11.05835,13.60719,21.01044l.55288.36686.55287-.36686C33.085,20.90582,32.59914,12.84947,31.6941,9.84762a8.18692,8.18692,0,0,0-7.90872-5.824Z"
		  transform="translate(-2.99821 -4.02365)"/>
</svg>