<svg xmlns:xlink="http://www.w3.org/1999/xlink" xmlns="http://www.w3.org/2000/svg" width="14" height="15"
	 viewBox="0 0 14 15">
	<defs>
		<path id="a" d="M0 .092h13.908v13.02H0z"/>
	</defs>
	<g fill="none" fill-rule="evenodd">
		<path fill="#FFF"
			  d="M6.953 2.737c-2.63 0-4.77 2.14-4.77 4.773 0 1.325.55 2.573 1.49 3.461a3.373 3.373 0 0 1 .34-.814 3.958 3.958 0 0 1 2.94-6.604 3.962 3.962 0 0 1 3.958 3.957c0 .992-.372 1.932-1.018 2.647.01.02.022.038.033.056.134.24.237.495.31.758a4.768 4.768 0 0 0 1.488-3.461 4.777 4.777 0 0 0-4.77-4.773"/>
		<path fill="#FFF"
			  d="M9.543 7.51a2.593 2.593 0 0 0-2.59-2.59 2.592 2.592 0 0 0-2.588 2.59c0 .914.478 1.72 1.195 2.18a2.596 2.596 0 0 0-1.195 2.183v2.183c0 .225.182.407.408.407h4.363a.407.407 0 0 0 .407-.407v-2.183c0-.915-.477-1.72-1.197-2.182A2.587 2.587 0 0 0 9.543 7.51"/>
		<g transform="translate(0 .463)">
			<mask id="b" fill="#fff">
				<use xlink:href="#a"/>
			</mask>
			<path fill="#FFF"
				  d="M11.87 2.13A6.91 6.91 0 0 0 6.955.09 6.91 6.91 0 0 0 2.037 2.13 6.91 6.91 0 0 0 0 7.046a6.973 6.973 0 0 0 3.549 6.065v-.955a6.154 6.154 0 0 1-2.734-5.11A6.146 6.146 0 0 1 6.954.906a6.145 6.145 0 0 1 6.138 6.14 6.155 6.155 0 0 1-2.735 5.11v.955a6.97 6.97 0 0 0 3.552-6.065A6.904 6.904 0 0 0 11.87 2.13"
				  mask="url(#b)"/>
		</g>
	</g>
</svg>
