<svg xmlns="http://www.w3.org/2000/svg" width="30" height="40" viewBox="0 0 30 40">
    <defs>
        <linearGradient id="prefix__a" x1="22.129%" x2="83.957%" y1="38.4%" y2="76.841%">
            <stop offset="0%" stop-color="#FFF" stop-opacity=".2"/>
            <stop offset="100%" stop-color="#FFF" stop-opacity="0"/>
        </linearGradient>
    </defs>
    <g fill="none">
        <path fill="#2D2D2D" d="M29.167 15h-2.5v-3.333C26.667 5.234 21.433 0 15 0S3.333 5.234 3.333 11.667V15h-2.5c-.46 0-.833.373-.833.833v20.834C0 38.505 1.495 40 3.333 40h23.334C28.505 40 30 38.505 30 36.667V15.833c0-.46-.373-.833-.833-.833zm-7.5 0H8.333v-3.333C8.333 7.99 11.324 5 15 5c3.676 0 6.667 2.99 6.667 6.667V15z"/>
        <path fill="#F2F2F2" d="M5 11.667c0-5.515 4.486-10 10-10s10 4.485 10 10V15h-1.667v-3.333c0-4.595-3.738-8.334-8.333-8.334-4.595 0-8.333 3.739-8.333 8.334V15H5v-3.333z"/>
        <path fill="#FFCA28" d="M28.333 36.667c0 .918-.748 1.666-1.666 1.666H3.333c-.918 0-1.666-.748-1.666-1.666v-20h26.666v20z"/>
        <path fill="#FFF" d="M5 36.667v-20H1.667v20c0 .918.748 1.666 1.666 1.666H6.25c-.69 0-1.25-.748-1.25-1.666z" opacity=".2"/>
        <path fill="#000" d="M25 16.667v20c0 .918-.56 1.666-1.25 1.666h2.917c.918 0 1.666-.748 1.666-1.666v-20H25z" opacity=".1"/>
        <path fill="#303C42" d="M13.03 27.68l-.525 4.728c-.026.235.05.471.207.648.158.176.385.277.621.277h3.334c.237 0 .463-.1.62-.277.159-.177.234-.413.208-.648l-.526-4.727c.854-.621 1.364-1.604 1.364-2.681 0-1.838-1.495-3.333-3.333-3.333S11.667 23.162 11.667 25c0 1.078.51 2.06 1.364 2.68z"/>
        <path fill="#5C6671" d="M15 23.333c.919 0 1.667.748 1.667 1.667 0 .639-.363 1.21-.948 1.494-.318.155-.504.492-.465.842l.482 4.33h-1.472l.482-4.33c.04-.35-.147-.687-.465-.842-.585-.283-.948-.855-.948-1.494 0-.919.748-1.667 1.667-1.667z"/>
        <path fill="#000" d="M14.353 26.563c-.112-.224-.186-.468-.186-.73 0-.918.748-1.666 1.666-1.666.244 0 .472.058.68.153-.261-.579-.838-.987-1.513-.987-.919 0-1.667.748-1.667 1.667 0 .639.363 1.21.948 1.494.031.015.043.05.072.069zM15.463 29.216l-.194-1.741c-.054-.048-.088-.115-.155-.148-.164-.079-.305-.185-.43-.305.03.103.075.203.062.314l-.482 4.33h.926l.273-2.45z" opacity=".1"/>
        <path fill="url(#prefix__a)" d="M29.167 15h-2.5v-3.333C26.667 5.234 21.433 0 15 0S3.333 5.234 3.333 11.667V15h-2.5c-.46 0-.833.373-.833.833v20.834C0 38.505 1.495 40 3.333 40h23.334C28.505 40 30 38.505 30 36.667V15.833c0-.46-.373-.833-.833-.833zm-7.5 0H8.333v-3.333C8.333 7.99 11.324 5 15 5c3.676 0 6.667 2.99 6.667 6.667V15z"/>
    </g>
</svg>
